<?xml version="1.0" encoding="UTF-8"?>
<!DOCTYPE svg PUBLIC "-//W3C//DTD SVG 1.1//EN" "http://www.w3.org/Graphics/SVG/1.1/DTD/svg11.dtd">
<!-- Creator: CorelDRAW -->
<svg xmlns="http://www.w3.org/2000/svg" xml:space="preserve" width="2048px" height="2048px" style="shape-rendering:geometricPrecision; text-rendering:geometricPrecision; image-rendering:optimizeQuality; fill-rule:evenodd; clip-rule:evenodd"
viewBox="0 0 2048 2048"
 xmlns:xlink="http://www.w3.org/1999/xlink">
 <defs>
  <style type="text/css">
   <![CDATA[
    .fil0 {fill:none}
    .fil1 {fill:#212121;fill-rule:nonzero}
    .fil2 {fill:#f51d05;fill-rule:nonzero}
   ]]>
  </style>
 </defs>
 <g id="Layer_x0020_1">
  <metadata id="CorelCorpID_0Corel-Layer"/>
  <rect class="fil0" x="255.999" y="255.999" width="1536" height="1536"/>
  <path class="fil1" d="M1599.86 1235.92c0,39.626 -16.0961,75.5587 -42.124,101.604 -26.0918,26.1083 -62.041,42.2646 -101.671,42.2646 -39.7075,0 -75.6721,-16.1114 -101.704,-42.1477 -26.0339,-26.0374 -42.1441,-62.0044 -42.1441,-101.714 0,-39.626 16.1539,-75.58 42.2611,-101.676 26.0374,-26.0268 61.963,-42.1252 101.587,-42.1252 39.7122,0 75.6603,16.0937 101.68,42.1134 26.0221,26.0232 42.1146,61.9737 42.1146,101.681zm-87.3745 56.6044c14.4413,-14.452 23.3752,-34.467 23.3752,-56.6044 0,-22.0406 -8.92914,-41.9929 -23.3658,-56.4308 -14.4354,-14.4354 -34.3855,-23.3646 -56.4296,-23.3646 -22.1303,0 -42.137,8.93268 -56.5867,23.3764 -14.3693,14.3634 -23.2618,34.3075 -23.2618,56.426 0,22.0441 8.94331,42.0107 23.3953,56.4638 14.452,14.4543 34.415,23.3988 56.4532,23.3988 22.1173,0 42.0579,-8.89371 56.4201,-23.2654z"/>
  <path class="fil1" d="M1375.62 1408l168.145 0c34.0016,0 63.9473,12.463 85.5698,33.2811 21.6862,20.8795 34.6689,49.7764 34.6689,82.5662l0 140.775 0 31.3784 -32.5051 0 -350.911 0 -32.5051 0 0 -31.3784 0 -140.775c0,-33.0012 14.8524,-61.7918 38.1685,-82.5154 23.4225,-20.8193 55.5225,-33.3319 89.3682,-33.3319zm168.145 62.7567l-168.145 0c-17.4165,0 -33.7276,6.25512 -45.4359,16.6606 -10.4398,9.27993 -17.0906,22.0051 -17.0906,36.4299l0 109.396 285.9 0 0 -109.396c0,-15.5965 -5.75552,-28.9394 -15.3697,-38.1957 -9.67678,-9.31654 -23.6008,-14.8949 -39.8587,-14.8949z"/>
  <line class="fil0" x1="880.041" y1="1422.87" x2="1136.04" y2= "1422.87" />
  <polygon class="fil2" points="880.041,1390.87 976.04,1390.87 976.04,1294.87 1040.04,1294.87 1040.04,1390.87 1136.04,1390.87 1136.04,1454.87 1040.04,1454.87 1040.04,1550.87 976.04,1550.87 976.04,1454.87 880.041,1454.87 "/>
  <path class="fil1" d="M1215.52 1043.85l58.1422 0c1.38071,0 2.54055,-0.134646 3.48898,-0.386221 4.2189,-1.1185 8.01142,-4.67126 10.9618,-9.46772 3.83268,-6.2315 5.9563,-13.9169 5.9563,-21.5386l-0.101575 0c0,-3.39213 -0.367323,-6.60237 -1.13032,-9.48072l0.022441 -0.00590552 -85.956 -280.603 -0.302362 -0.905906c-1.23307,-4.68071 -3.77126,-8.81103 -7.19764,-12 -3.43937,-3.20197 -7.79056,-5.46024 -12.6354,-6.38741l0.00354331 -0.0188977 -55.2107 -10.4327 -99.8847 158.17 -21.3992 33.8882 -21.9236 -33.4855 -104.348 -159.38 -55.5674 11.2689c-4.65237,0.940158 -8.89371,3.21851 -12.3213,6.44646 -3.38622,3.18898 -5.89607,7.29567 -7.13032,11.9315l-0.302362 1.00748 -85.9961 280.638c-0.390945,1.52835 -0.577559,3.28819 -0.577559,5.21339 0,7.29095 3.02126,15.0414 7.90276,21.5941 4.73859,6.36024 10.911,11.2122 17.3788,12.9343 1.41378,0.375591 2.95158,0.578741 4.59804,0.578741l51.789 0 0 51.5859 -51.789 0c-5.91969,0 -11.85,-0.836221 -17.6965,-2.39292 -18.1181,-4.82599 -34.213,-16.8095 -45.5882,-32.0776 -11.2311,-15.0756 -18.1807,-33.7595 -18.1807,-52.2225 0,-6.06851 0.778347,-12.2551 2.42599,-18.4429l0.302362 -1.00748 86.0103 -280.687c3.78898,-14.0894 11.3799,-26.5146 21.5906,-36.1323 10.1929,-9.60119 23.0906,-16.4303 37.5095,-19.3441l72.6426 -14.7319 17.0752 -3.46181 9.52324 14.5453 91.9489 140.443 87.8457 -139.107 9.36142 -14.824 17.1354 3.2374 72.4442 13.689 0.101575 0c14.5252,2.78032 27.6177,9.59528 38.0244,19.2827 10.4173,9.69804 18.137,22.2803 21.9071,36.5835l-0.022441 0.00590552 85.956 280.603 0.302362 0.905906c1.98898,7.49882 2.94449,15.1158 2.94449,22.5792l-0.101575 0c-0.0011811,17.1933 -4.78111,34.5095 -13.4114,48.541 -9.51261,15.4665 -23.7543,27.4536 -41.791,32.237 -5.40709,1.43386 -10.9536,2.2004 -16.5874,2.2004l-58.1422 0 0 -51.5859z"/>
  <path class="fil2" d="M887.162 1088.84l239.556 0.0874016 0 -0.22441 5.94922 0 0 -142.227 -245.505 0 0 142.364zm271.557 63.8504l-303.558 -0.111024 -32.0008 -0.011811 0 -31.8638 0 -206.229 0 -32.0008 32.0008 0 309.507 0 32.0008 0 0 32.0008 0 206.229 0 32.0008 -32.0008 0 -5.94922 0 0 -0.0141732z"/>
  <line class="fil0" x1="803.827" y1="1216" x2="1216" y2= "1216" />
  <path class="fil2" d="M803.827 1184c-17.6728,0 -32.0008,14.328 -32.0008,32.0008 0,17.6728 14.328,32.0008 32.0008,32.0008l412.174 0c17.6728,0 32.0008,-14.328 32.0008,-32.0008 0,-17.6728 -14.328,-32.0008 -32.0008,-32.0008l-412.174 0z"/>
  <path class="fil1" d="M1148.36 506.413c0,38.1437 -15.4937,72.7312 -40.5473,97.8024 -25.1162,25.1315 -59.7201,40.6831 -97.8674,40.6831 -38.2217,0 -72.8398,-15.5079 -97.8981,-40.5697 -25.0595,-25.0642 -40.5674,-59.6847 -40.5674,-97.9087 0,-38.1437 15.5492,-72.7524 40.6796,-97.8721 25.0642,-25.0536 59.6457,-40.5496 97.7859,-40.5496 38.2264,0 72.8304,15.4914 97.8757,40.5378 25.0488,25.05 40.539,59.6552 40.539,97.8768zm-84.1052 54.4867c13.9016,-13.911 22.5012,-33.1772 22.5012,-54.4867 0,-21.2162 -8.59607,-40.4221 -22.4917,-54.3201 -13.8957,-13.8945 -33.0992,-22.4894 -54.3189,-22.4894 -21.3024,0 -40.5603,8.59843 -54.4689,22.5012 -13.8319,13.826 -22.3914,33.0236 -22.3914,54.3154 0,21.2185 8.60906,40.4386 22.5201,54.3508 13.911,13.9134 33.1276,22.5236 54.3402,22.5236 21.2906,0 40.4847,-8.56182 54.3095,-22.3949z"/>
  <path class="fil1" d="M735.862 1235.92c0,39.626 -16.0961,75.5587 -42.124,101.604 -26.0918,26.1083 -62.041,42.2646 -101.671,42.2646 -39.7075,0 -75.6721,-16.1114 -101.704,-42.1477 -26.0339,-26.0374 -42.1441,-62.0044 -42.1441,-101.714 0,-39.626 16.1539,-75.58 42.2611,-101.676 26.0374,-26.0268 61.963,-42.1252 101.587,-42.1252 39.7122,0 75.6603,16.0937 101.68,42.1134 26.0221,26.0232 42.1146,61.9737 42.1146,101.681zm-87.3745 56.6044c14.4413,-14.452 23.3752,-34.467 23.3752,-56.6044 0,-22.0406 -8.92914,-41.9929 -23.3658,-56.4308 -14.4354,-14.4354 -34.3855,-23.3646 -56.4296,-23.3646 -22.1303,0 -42.137,8.93268 -56.5867,23.3764 -14.3693,14.3634 -23.2618,34.3075 -23.2618,56.426 0,22.0441 8.94331,42.0107 23.3953,56.4638 14.452,14.4543 34.415,23.3988 56.4532,23.3988 22.1173,0 42.0579,-8.89371 56.4201,-23.2654z"/>
  <path class="fil1" d="M511.616 1408l168.145 0c34.0016,0 63.9473,12.463 85.5698,33.2811 21.6862,20.8795 34.6689,49.7764 34.6689,82.5662l0 140.775 0 31.3784 -32.5051 0 -350.911 0 -32.5051 0 0 -31.3784 0 -140.775c0,-33.0012 14.8524,-61.7918 38.1685,-82.5154 23.4225,-20.8193 55.5225,-33.3319 89.3682,-33.3319zm168.145 62.7567l-168.145 0c-17.4165,0 -33.7276,6.25512 -45.4359,16.6606 -10.4398,9.27993 -17.0906,22.0051 -17.0906,36.4299l0 109.396 285.9 0 0 -109.396c0,-15.5965 -5.75552,-28.9394 -15.3697,-38.1957 -9.67678,-9.31654 -23.6008,-14.8949 -39.8587,-14.8949z"/>
 </g>
</svg>
