<?xml version="1.0" encoding="UTF-8"?>
<!DOCTYPE svg PUBLIC "-//W3C//DTD SVG 1.1//EN" "http://www.w3.org/Graphics/SVG/1.1/DTD/svg11.dtd">
<!-- Creator: CorelDRAW -->
<svg xmlns="http://www.w3.org/2000/svg" xml:space="preserve" width="2048px" height="2048px" style="shape-rendering:geometricPrecision; text-rendering:geometricPrecision; image-rendering:optimizeQuality; fill-rule:evenodd; clip-rule:evenodd"
viewBox="0 0 2048 2048"
 xmlns:xlink="http://www.w3.org/1999/xlink">
 <defs>
  <style type="text/css">
   <![CDATA[
    .fil0 {fill:none}
    .fil3 {fill:#f51d05}
    .fil1 {fill:#212121;fill-rule:nonzero}
    .fil2 {fill:#f51d05;fill-rule:nonzero}
   ]]>
  </style>
 </defs>
 <g id="Layer_x0020_1">
  <metadata id="CorelCorpID_0Corel-Layer"/>
  <rect class="fil0" x="256.002" y="255.997" width="1536" height="1536.01"/>
  <path class="fil1" d="M1692.43 447.872c-397.167,-0.236221 -466.183,0.127559 -668.425,0.127559 -24.0473,0 -52.1941,7.59213 -71.6646,26.2418 -14.4567,13.8461 -24.3933,34.6748 -24.3933,64.415l0 1061.34 832.058 0 0 -1061.34c0,-26.4496 -7.68308,-46.017 -18.6461,-60.0237 -14.0858,-17.9965 -33.5244,-27.5457 -48.9284,-30.7607zm3.5752 -63.7489l5.5004 0.375591c27.913,4.97835 64.2815,21.8906 90.104,54.8835 19.0477,24.3366 32.3965,56.9835 32.3965,99.2741l0 1093.34 0 32.0008 -32.0008 0 -896.059 0 -32.0008 0 0 -32.0008 0 -1093.34c0,-49.3607 17.9835,-85.3572 44.1437,-110.414 32.8288,-31.4433 78.0402,-44.2441 115.916,-44.2441 383.761,0 161.101,-0.184252 672.001,0.125197z"/>
  <path class="fil1" d="M1632 582.252l-575.998 0 0 211.495 575.998 0 0 -211.495zm-607.999 -70.252l640 0 32.0008 0 0 35.126 0 281.747 0 35.126 -32.0008 0 -640 0 -32.0008 0 0 -35.126 0 -281.747 0 -35.126 32.0008 0z"/>
  <polygon class="fil1" points="1120,1088 992,1088 992,960 1120,960 "/>
  <polygon class="fil1" points="1696,1088 1568,1088 1568,960 1696,960 "/>
  <polygon class="fil1" points="1408,1088 1280,1088 1280,959.998 1408,959.998 "/>
  <polygon class="fil1" points="1120,1311.67 992,1311.67 992,1183.67 1120,1183.67 "/>
  <polygon class="fil1" points="1568,1183.67 1696,1183.67 1696,1536 1568,1536 "/>
  <polygon class="fil2" points="1408,1311.67 1280,1311.67 1280,1183.67 1408,1183.67 "/>
  <polygon class="fil2" points="1120,1536 992,1536 992,1408 1120,1408 "/>
  <polygon class="fil1" points="1408,1536 1280,1536 1280,1408 1408,1408 "/>
  <polyline class="fil0" points="799.726,1216 224,1216 224,800.001 799.726,800.001 "/>
  <polygon class="fil2" points="799.726,1248 224,1248 191.999,1248 191.999,1216 191.999,800.001 191.999,768.001 224,768.001 799.726,768.001 799.726,832.002 256.001,832.002 256.001,1184 799.726,1184 "/>
  <polyline class="fil0" points="799.726,1376 224,1376 224,1280 "/>
  <polygon class="fil1" points="799.726,1408 224,1408 191.999,1408 191.999,1376 191.999,1280 256.001,1280 256.001,1344 799.726,1344 "/>
  <polyline class="fil0" points="799.726,1536 224,1536 224,1440 "/>
  <polygon class="fil1" points="799.726,1568 224,1568 191.999,1568 191.999,1536 191.999,1440 256.001,1440 256.001,1504 799.726,1504 "/>
  <path class="fil2" d="M514.144 922.889c-22.7351,0 -43.3276,9.21379 -58.2319,24.1181 -14.8925,14.8925 -24.1099,35.4744 -24.1099,58.2237 0,22.7882 9.17717,43.3465 24.0059,58.1646 14.9008,14.889 35.5276,24.0969 58.3359,24.0969 22.7244,0 43.2933,-9.20316 58.1764,-24.0862 14.8795,-14.8795 24.0827,-35.4473 24.0827,-58.1752 0,-22.8307 -9.20198,-43.4516 -24.0792,-58.3418 -14.8205,-14.8299 -35.3859,-24 -58.18,-24zm-96.8363 -14.4862c24.7902,-24.789 59.0339,-40.115 96.8363,-40.115 37.7303,0 71.9528,15.3626 96.7831,40.2107 24.7618,24.7819 40.0772,58.9796 40.0772,96.7324 0,37.8012 -15.3154,72.0154 -40.0796,96.7796 -24.7677,24.7666 -58.9855,40.0831 -96.7808,40.0831 -37.7256,0 -71.9339,-15.3201 -96.7265,-40.0949 -24.8421,-24.8232 -40.2166,-59.0386 -40.2166,-96.7678 0,-37.8248 15.3319,-72.052 40.1067,-96.828z"/>
  <path class="fil3" d="M519.119 1058.62l0 16.2414 -15.2717 0 0 -15.163c-11.0599,-0.448819 -21.4205,-3.36969 -27.5185,-6.8941l4.78819 -18.8079c6.72166,3.65197 16.1764,7.07953 26.6717,7.07953 9.16772,0 15.3803,-3.60709 15.3803,-9.98859 0,-6.14882 -5.12835,-9.97442 -17.0362,-14.0185 -17.2099,-5.80276 -28.9571,-13.8461 -28.9571,-29.452 0,-14.1413 10.0973,-25.2532 27.2433,-28.6748l0 -15.2717 15.952 0 0 14.1803c10.4303,0.468898 17.9091,2.74134 23.1921,5.31496l-4.72441 18.1736c-4.21181,-1.77165 -11.6185,-5.47559 -23.1921,-5.47559 -10.4894,0 -13.8402,4.5 -13.8402,9.00591 0,5.35276 5.57835,8.72953 19.2579,13.852 19.1291,6.77953 26.7803,15.6189 26.7803,30.0945 0.0578741,14.3599 -10.3087,26.5488 -28.7256,29.804z"/>
 </g>
</svg>
