<?xml version="1.0" encoding="UTF-8"?>
<!DOCTYPE svg PUBLIC "-//W3C//DTD SVG 1.1//EN" "http://www.w3.org/Graphics/SVG/1.1/DTD/svg11.dtd">
<!-- Creator: CorelDRAW -->
<svg xmlns="http://www.w3.org/2000/svg" xml:space="preserve" width="2048px" height="2048px" style="shape-rendering:geometricPrecision; text-rendering:geometricPrecision; image-rendering:optimizeQuality; fill-rule:evenodd; clip-rule:evenodd"
viewBox="0 0 2048 2048"
 xmlns:xlink="http://www.w3.org/1999/xlink">
 <defs>
  <style type="text/css">
   <![CDATA[
    .fil0 {fill:none}
    .fil3 {fill:#f51d05}
    .fil1 {fill:#000;fill-rule:nonzero}
    .fil2 {fill:none;fill-rule:nonzero}
   ]]>
  </style>
 </defs>
 <g id="Layer_x0020_1">
  <metadata id="CorelCorpID_0Corel-Layer"/>
  <g id="_511635216">
   <rect id="_511633992" class="fil0" width="2048" height="2048"/>
   <rect id="_511633608" class="fil0" x="256.002" y="255.997" width="1536" height="1536.01"/>
   <path id="_511627560" class="fil1" d="M558.534 718.291l-51.1926 -111.954c-81.4772,-178.119 -99.5954,-176.948 -251.34,-185.933l0.542126 71.4166c128.296,7.59922 122.274,5.27953 185.825,144.201l311.902 686.607 80.6209 0.0283465 607.499 0 221.398 -382.205 0.106299 0.0649607 40.0748 -69.4323c29.4862,-50.8996 58.6784,-101.658 88.0288,-152.508m-123.771 71.4154l-12.874 22.3217 -254.094 438.642 -599.156 0 -210.78 -460.963 1076.9 0z"/>
   <polygon id="_511633248" class="fil2" points="770.753,932.75 1490.39,932.75 1532.49,861.049 738.063,861.049 "/>
   <polygon id="_511633152" class="fil2" points="829.046,1062 1414.49,1062 1456.59,990.302 796.706,990.302 "/>
   <polygon id="_511633536" class="fil2" points="887.339,1191.25 1338.58,1191.25 1380.68,1119.56 854.999,1119.56 "/>
   <path id="_511635600" class="fil1" d="M1309.75 1370.36c-35.5075,0 -67.6689,14.4 -90.939,37.6772 -23.2772,23.2701 -37.6772,55.4315 -37.6772,90.939 0,35.5158 14.4,67.6701 37.6772,90.9473 23.2701,23.2701 55.4315,37.6701 90.939,37.6701 35.5158,0 67.6701,-14.4 90.9402,-37.6701 23.2772,-23.2772 37.6772,-55.4315 37.6772,-90.9473 0,-35.5075 -14.4,-67.6689 -37.6772,-90.939 -23.2701,-23.2772 -55.4245,-37.6772 -90.9402,-37.6772zm-40.2461 88.3701c10.2969,-10.2969 24.5256,-16.6689 40.2461,-16.6689 15.7205,0 29.9492,6.37205 40.2461,16.6689 10.298,10.2969 16.6701,24.5327 16.6701,40.2461 0,15.7205 -6.37205,29.9563 -16.6701,40.2532 -10.2969,10.298 -24.5256,16.663 -40.2461,16.663 -15.7205,0 -29.9492,-6.36497 -40.2461,-16.663 -10.2969,-10.2969 -16.6689,-24.5327 -16.6689,-40.2532 0,-15.7134 6.37205,-29.9492 16.6689,-40.2461z"/>
   <path id="_511637256" class="fil3" d="M896.585 1484.35c3.91654,-3.91536 9.09213,-6.05906 14.6303,-6.05906 5.53937,0 10.7221,2.1437 14.6398,6.05906 3.91418,3.91418 6.05079,9.09686 6.05079,14.6303 0,5.53701 -2.13425,10.7209 -6.05079,14.6374 -3.91772,3.91654 -9.10158,6.05315 -14.6398,6.05315 -5.53819,0 -10.7138,-2.13662 -14.6303,-6.05315 -3.91654,-3.91654 -6.05906,-9.09922 -6.05906,-14.6374 0,-5.53465 2.14606,-10.7161 6.05906,-14.6303z"/>
   <path id="_511633128" class="fil1" d="M911.215 1370.36c-35.5146,0 -67.6689,14.4 -90.939,37.6772 -23.2772,23.2701 -37.6772,55.4315 -37.6772,90.939 0,35.5158 14.4,67.6701 37.6772,90.9473 23.2701,23.2701 55.4245,37.6701 90.939,37.6701 35.5158,0 67.6701,-14.4 90.9473,-37.6701 23.2701,-23.2772 37.6701,-55.4315 37.6701,-90.9473 0,-35.5075 -14.4,-67.6689 -37.6701,-90.939 -23.2772,-23.2772 -55.4315,-37.6772 -90.9473,-37.6772zm-40.2461 88.3701c10.2969,-10.2969 24.5256,-16.6689 40.2461,-16.6689 15.7205,0 29.9563,6.37205 40.2544,16.6689 10.2969,10.2969 16.6618,24.5327 16.6618,40.2461 0,15.7205 -6.36497,29.9563 -16.6618,40.2532 -10.298,10.298 -24.5339,16.663 -40.2544,16.663 -15.7205,0 -29.9492,-6.36497 -40.2461,-16.663 -10.2969,-10.2969 -16.6689,-24.5327 -16.6689,-40.2532 0,-15.7134 6.37205,-29.9492 16.6689,-40.2461z"/>
   <line id="_511627416" class="fil0" x1="1158.11" y1="1515.26" x2="1066.55" y2= "1515.26" />
  </g>
 </g>
</svg>
