<?xml version="1.0" encoding="UTF-8"?>
<!DOCTYPE svg PUBLIC "-//W3C//DTD SVG 1.1//EN" "http://www.w3.org/Graphics/SVG/1.1/DTD/svg11.dtd">
<!-- Creator: CorelDRAW -->
<svg xmlns="http://www.w3.org/2000/svg" xml:space="preserve" width="2048px" height="2048px" style="shape-rendering:geometricPrecision; text-rendering:geometricPrecision; image-rendering:optimizeQuality; fill-rule:evenodd; clip-rule:evenodd"
viewBox="0 0 2048 2048"
 xmlns:xlink="http://www.w3.org/1999/xlink">
 <defs>
  <style type="text/css">
   <![CDATA[
    .fil0 {fill:none}
    .fil1 {fill:#212121;fill-rule:nonzero}
    .fil2 {fill:#f51d05;fill-rule:nonzero}
   ]]>
  </style>
 </defs>
 <g id="Layer_x0020_1">
  <metadata id="CorelCorpID_0Corel-Layer"/>
  <rect class="fil0" width="2048" height="2048"/>
  <rect class="fil0" x="255.999" y="255.999" width="1536" height="1536"/>
  <polygon class="fil1" points="1471.8,464.483 1325.56,465.825 1043.61,468.409 368.629,1143.39 903.693,1678.46 1578.68,1003.47 1581.26,721.529 1582.57,578.982 1662.65,498.899 1660.6,722.153 1657.87,1020.58 1646.35,1048.43 931.852,1762.93 903.693,1791.09 875.534,1762.93 284.155,1171.55 255.997,1143.39 284.155,1115.23 998.658,400.732 1026.51,389.218 1324.93,386.483 1551.88,384.398 "/>
  <polygon class="fil2" points="1792,313.229 1397.42,707.81 1341.1,651.494 1735.69,256.912 "/>
  <path class="fil2" d="M1368.35 678.735c-11.661,-11.661 -26.9528,-17.4921 -42.2445,-17.4921 -15.2917,0 -30.5823,5.83111 -42.2433,17.4921l-0.0011811 0.0011811c-11.6599,11.661 -17.4921,26.9516 -17.4921,42.2433 0,15.2917 5.83229,30.5799 17.4921,42.241l0.0011811 0.00236221 0.00236221 0.0011811c11.661,11.661 26.9504,17.4921 42.241,17.4921 15.2917,0 30.5823,-5.83229 42.2433,-17.4921l0.0011811 -0.0011811c11.661,-11.661 17.4921,-26.9516 17.4921,-42.2433 0,-15.2917 -5.83111,-30.5835 -17.4921,-42.2445zm-42.2445 -97.1457c35.6693,0 71.3422,13.6099 98.5607,40.8296 27.2185,27.2185 40.8296,62.8914 40.8296,98.5607 0,35.667 -13.611,71.3398 -40.8296,98.5595l-0.0011811 0.0011811c-27.2185,27.2173 -62.8926,40.8296 -98.5595,40.8296 -35.6681,0 -71.341,-13.6122 -98.5583,-40.8296l-0.0011811 -0.0011811 -0.0011811 -0.00236221c-27.2185,-27.2197 -40.8296,-62.8902 -40.8296,-98.5572 0,-35.667 13.6122,-71.341 40.8296,-98.5595l0.0011811 -0.0011811c27.2185,-27.2197 62.8926,-40.8296 98.5595,-40.8296z"/>
  <path class="fil1" d="M851.121 1432.59l55.1741 -55.1741c17.387,-17.4921 25.6843,-35.1957 24.9981,-53.217 -0.741733,-17.9693 -10.0417,-35.8311 -27.8516,-53.641l-112.25 -112.25c-17.8099,-17.8099 -35.6729,-27.111 -53.641,-27.8516 -18.0213,-0.686221 -35.7248,7.60985 -53.2182,24.9969l-55.1729 55.1741 221.961 221.962zm-135.713 -244.792c3.64725,-3.75237 7.50473,-6.23741 11.6268,-7.50473 4.0689,-1.21654 8.34922,-0.951969 12.9473,0.79252 4.54489,1.79646 9.46064,5.23229 14.7449,10.5154l115.42 115.421c5.28544,5.28544 8.72009,10.2 10.5177,14.7449 1.74331,4.59804 2.00788,8.87835 0.79252,12.9484 -1.2685,4.12087 -3.75237,7.97953 -7.50473,11.6268l-19.6595 19.6583 -158.544 -158.544 19.6595 -19.6583zm109.713 -109.714l60.2469 -60.2457 -31.7091 -31.7091 -95.1261 95.1261 221.962 221.962 95.1261 -95.1261 -31.7091 -31.7091 -60.2469 60.2457 -65.0032 -65.0032 47.8807 -47.8796 -31.7091 -31.7091 -47.8807 47.8796 -61.8319 -61.8319zm127.469 -190.888l-51.0508 51.052 186.448 257.476 32.0256 -32.0256 -34.2449 -46.2945 42.8079 -42.8079 46.2945 34.2449 35.1969 -35.1957 -257.477 -186.449zm12.0496 66.5894l129.056 95.4438 -33.6118 33.6118 -95.4438 -129.056zm261.599 103.687l92.2725 -92.2725 -31.7091 -31.7079 -57.3922 57.3922 -190.253 -190.253 -34.8803 34.8803 221.962 221.961z"/>
 </g>
</svg>
