<?xml version="1.0" encoding="UTF-8"?>
<!DOCTYPE svg PUBLIC "-//W3C//DTD SVG 1.1//EN" "http://www.w3.org/Graphics/SVG/1.1/DTD/svg11.dtd">
<!-- Creator: CorelDRAW -->
<svg xmlns="http://www.w3.org/2000/svg" xml:space="preserve" width="2048px" height="2048px" style="shape-rendering:geometricPrecision; text-rendering:geometricPrecision; image-rendering:optimizeQuality; fill-rule:evenodd; clip-rule:evenodd"
viewBox="0 0 2048 2048"
 xmlns:xlink="http://www.w3.org/1999/xlink">
 <defs>
  <style type="text/css">
   <![CDATA[
    .fil2 {fill:none}
    .fil0 {fill:#212121;fill-rule:nonzero}
    .fil1 {fill:#f51d05;fill-rule:nonzero}
   ]]>
  </style>
 </defs>
 <g id="Layer_x0020_1">
  <metadata id="CorelCorpID_0Corel-Layer"/>
  <path class="fil0" d="M993.335 1527.03c0,46.5697 -18.9697,88.8225 -49.6359,119.477 -30.5894,30.5776 -72.8056,49.4965 -119.391,49.4965 -46.6122,0 -88.8331,-18.952 -119.459,-49.5863 -30.5799,-30.5906 -49.4705,-72.8079 -49.4705,-119.387 0,-46.6028 18.8847,-88.8166 49.4563,-119.4 30.6272,-30.639 72.8528,-49.5827 119.473,-49.5827 46.591,0 88.8142,18.9106 119.405,49.493 30.6579,30.6473 49.6217,72.8953 49.6217,119.49zm-92.8394 76.0323c19.3937,-19.3866 31.3914,-46.2662 31.3914,-76.0323 0,-29.7886 -11.9929,-56.667 -31.3784,-76.0453 -19.4622,-19.4575 -46.4044,-31.4894 -76.2001,-31.4894 -29.8099,0 -56.6705,11.974 -76.0288,31.3382 -19.4421,19.4504 -31.4528,46.3843 -31.4528,76.1965 0,29.7898 12.0165,56.7248 31.467,76.1823 19.3571,19.363 46.2142,31.3429 76.0146,31.3429 29.7874,0 56.7225,-12.0378 76.1871,-31.4929z"/>
  <path class="fil0" d="M1638.52 1527.03c0,46.5697 -18.9697,88.8225 -49.6347,119.477 -30.5906,30.5776 -72.8067,49.4965 -119.392,49.4965 -46.6122,0 -88.8331,-18.952 -119.459,-49.5863 -30.5788,-30.5906 -49.4705,-72.8079 -49.4705,-119.387 0,-46.6028 18.8858,-88.8166 49.4563,-119.4 30.6272,-30.639 72.8528,-49.5827 119.473,-49.5827 46.591,0 88.8142,18.9106 119.405,49.493 30.6579,30.6473 49.6217,72.8953 49.6217,119.49zm-92.8394 76.0323c19.3937,-19.3866 31.3914,-46.2662 31.3914,-76.0323 0,-29.7886 -11.9929,-56.667 -31.3784,-76.0453 -19.4622,-19.4575 -46.4044,-31.4894 -76.2001,-31.4894 -29.8099,0 -56.6705,11.974 -76.0288,31.3382 -19.4421,19.4504 -31.4528,46.3843 -31.4528,76.1965 0,29.7898 12.0165,56.7248 31.4681,76.1823 19.3571,19.363 46.213,31.3429 76.0134,31.3429 29.7886,0 56.7237,-12.0378 76.1871,-31.4929z"/>
  <path class="fil0" d="M1456.36 416.131c82.6548,0 165.478,29.0847 228.873,87.254 7.40906,6.8067 14.4343,13.8378 21.0697,21.0662 57.1335,62.25 85.702,139.272 85.6997,216.408 -0.00236221,77.1379 -28.5733,154.142 -85.7138,216.347 -6.63544,7.22481 -13.6559,14.2476 -21.0555,21.0378l-494.246 453.631 -20.7614 19.0547 -20.7614 -19.0547 -494.288 -453.631c-3.27284,-3.00827 -6.75473,-6.35906 -10.4327,-10.0323 -3.54449,-3.54095 -6.73583,-6.84686 -9.57166,-9.91064l-338.042 -321.816 -0.00590552 0.00590552c-3.31299,-3.0815 -6.52796,-6.43229 -9.62717,-10.0228 -3.05906,-3.53977 -5.89961,-7.22363 -8.51812,-11.0232l-0.360236 -0.6 -2.06929 -3.14646 -0.359055 -0.360236c-15.4181,-24.3166 -22.1067,-52.852 -19.7126,-80.6434 2.35394,-27.3295 13.3902,-54.0355 33.4323,-75.5091l0.100394 -0.109843c23.7839,-25.6465 55.3689,-39.7796 87.4961,-41.6044 32.3351,-1.83898 65.1591,8.86772 91.1635,32.915l0.0779528 0 0.0236221 -0.0259843 131.831 121.218c3.91536,-5.98347 8.04804,-11.8736 12.3969,-17.6551 12.4547,-16.5555 26.5169,-32.1484 42.1772,-46.5378 63.4264,-58.1705 146.252,-87.254 228.897,-87.254 82.6465,0 165.455,29.0847 228.846,87.254l57.2989 52.5697 57.2552 -52.5697c63.4052,-58.1693 146.232,-87.254 228.887,-87.254zm187.349 132.38c-51.5351,-47.2878 -119.358,-70.9323 -187.349,-70.9323 -67.9914,0 -135.82,23.6445 -187.363,70.9323l-78.0095 71.6233 -20.7532 19.0559 -20.7697 -19.0559 -78.0697 -71.6233c-51.5315,-47.2878 -119.341,-70.9323 -187.322,-70.9323 -67.9843,0 -135.812,23.6445 -187.373,70.9323 -13.2095,12.1358 -24.7831,24.9071 -34.7362,38.1366 -10.3453,13.7516 -19.1362,28.1232 -26.3799,42.9177l-18.0567 36.8799 -30.189 -27.7583 -160.091 -147.202 -0.120473 -0.120473 -0.100394 -0.0933072 0.0555119 -0.0590552c-13.1114,-12.0921 -29.7532,-17.4697 -46.2142,-16.5343 -16.6949,0.948426 -33.2799,8.4756 -45.9721,22.1622l-0.101575 0.108662c-10.2461,10.9807 -15.8965,24.7016 -17.1095,38.7874 -1.27559,14.8028 2.23701,29.9221 10.35,42.7181l-0.0862205 0.0543308 1.4126 2.14725 0.0236221 -0.0153543c1.36536,1.98189 2.84646,3.90237 4.4374,5.74371 1.4752,1.70906 3.16536,3.45355 5.06575,5.22048l0.240945 0.240945 339.202 322.92 1.43976 1.44095c2.9563,3.2126 5.68465,6.06851 8.17796,8.56064 2.54882,2.54646 5.46378,5.33032 8.75198,8.35158l473.524 434.576 473.484 -434.576c6.14528,-5.63859 11.9658,-11.4602 17.4543,-17.4366 46.4185,-50.5335 69.6308,-112.742 69.6319,-174.823 0.0011811,-62.0871 -23.2063,-124.316 -69.6178,-174.884 -5.49922,-5.98937 -11.3232,-11.8193 -17.4685,-17.4638z"/>
  <path class="fil1" d="M1287.39 700.4c39.5492,0 79.2768,13.852 109.798,41.5571 4.00158,3.63425 7.77048,7.40906 11.3008,11.2984 26.7921,29.5193 40.1882,65.9126 40.187,102.442 0,36.5303 -13.3996,72.9166 -40.1929,102.415 -3.53504,3.89174 -7.30276,7.65945 -11.2949,11.2831l-211.747 192.21 -20.6421 18.7358 -20.6421 -18.7358 -211.766 -192.21c-3.99213,-3.62362 -7.75867,-7.39016 -11.2913,-11.2819 -26.7945,-29.4957 -40.1941,-65.8831 -40.1953,-102.417 -0.0011811,-36.5292 13.3961,-72.9237 40.1882,-102.443 3.5315,-3.89055 7.29922,-7.66418 11.2984,-11.2961l0.119291 0c30.5481,-27.704 70.2308,-41.5571 109.699,-41.5571 39.5457,0 79.2638,13.852 109.785,41.5571l12.7973 11.6102 12.7878 -11.6102c30.5327,-27.7051 70.2627,-41.5571 109.812,-41.5571zm68.5146 86.9233c-18.7099,-16.9843 -43.5237,-25.4764 -68.5146,-25.4764 -24.9921,0 -49.8118,8.49213 -68.5288,25.4764l-33.4205 30.3425 -20.6339 18.7335 -20.6504 -18.7335 -33.4477 -30.3425c-18.7087,-16.9843 -43.5154,-25.4764 -68.5004,-25.4764 -25.0335,0 -49.8685,8.47323 -68.5878,25.4173l0.0543308 0.0590552c-2.55945,2.32323 -4.96654,4.73268 -7.21772,7.213 -16.2295,17.8831 -24.3461,39.5977 -24.3461,61.1599 0,21.5563 8.12008,43.2626 24.3532,61.1339 2.24292,2.46969 4.64882,4.87441 7.21064,7.19882l191.123 173.475 191.107 -173.475c2.56299,-2.32559 4.9689,-4.73032 7.21182,-7.20001 16.2331,-17.8713 24.352,-39.5764 24.352,-61.1315 0,-21.5622 -8.11536,-43.2756 -24.3461,-61.1587 -2.25118,-2.4815 -4.65945,-4.89095 -7.21772,-7.21536z"/>
  <rect class="fil2" width="2048" height="2048"/>
  <rect class="fil2" x="255.999" y="255.999" width="1536" height="1536"/>
 </g>
</svg>
