<?xml version="1.0" encoding="UTF-8"?>
<!DOCTYPE svg PUBLIC "-//W3C//DTD SVG 1.1//EN" "http://www.w3.org/Graphics/SVG/1.1/DTD/svg11.dtd">
<!-- Creator: CorelDRAW -->
<svg xmlns="http://www.w3.org/2000/svg" xml:space="preserve" width="2048px" height="2048px" style="shape-rendering:geometricPrecision; text-rendering:geometricPrecision; image-rendering:optimizeQuality; fill-rule:evenodd; clip-rule:evenodd"
viewBox="0 0 2048 2048"
 xmlns:xlink="http://www.w3.org/1999/xlink">
 <defs>
  <style type="text/css">
   <![CDATA[
    .fil0 {fill:none}
    .fil3 {fill:#212121}
    .fil1 {fill:#212121;fill-rule:nonzero}
    .fil2 {fill:#f51d05;fill-rule:nonzero}
   ]]>
  </style>
 </defs>
 <g id="Layer_x0020_1">
  <metadata id="CorelCorpID_0Corel-Layer"/>
  <g id="_511695432">
   <rect id="_511700400" class="fil0" width="2048" height="2048"/>
   <rect id="_511701216" class="fil0" x="255.999" y="255.999" width="1536" height="1536"/>
   <g>
    <polygon id="_511697760" class="fil1" points="1471.79,464.483 1325.56,465.826 1043.61,468.409 368.631,1143.39 903.693,1678.46 1578.68,1003.47 1581.26,721.53 1582.57,578.983 1662.65,498.9 1660.6,722.153 1657.87,1020.58 1646.35,1048.43 931.852,1762.93 903.693,1791.09 875.535,1762.93 284.156,1171.55 255.998,1143.39 284.156,1115.23 998.658,400.732 1026.51,389.22 1324.93,386.484 1551.88,384.4 "/>
    <polygon id="_511703064" class="fil2" points="1792,313.23 1397.42,707.81 1341.1,651.494 1735.68,256.914 "/>
    <path id="_511700160" class="fil2" d="M1368.35 678.735c-11.661,-11.661 -26.9528,-17.4921 -42.2445,-17.4921 -15.2917,0 -30.5823,5.83111 -42.2433,17.4921l-0.0011811 0.0011811c-11.6599,11.661 -17.4921,26.9516 -17.4921,42.2433 0,15.2917 5.83229,30.5811 17.4921,42.2422l0.0011811 0.0011811 0.0011811 0.0011811c11.661,11.661 26.9516,17.4921 42.2422,17.4921 15.2917,0 30.5811,-5.83229 42.2422,-17.4921l0.00236221 -0.0011811c11.661,-11.661 17.4921,-26.9516 17.4921,-42.2433 0,-15.2917 -5.83111,-30.5835 -17.4921,-42.2445zm-42.2445 -97.1446c35.6693,0 71.341,13.6099 98.5607,40.8284 27.2185,27.2185 40.8284,62.8914 40.8284,98.5607 0,35.667 -13.6099,71.341 -40.8284,98.5595l-0.00236221 0.0011811c-27.2185,27.2173 -62.8926,40.8296 -98.5583,40.8296 -35.6681,0 -71.341,-13.6122 -98.5583,-40.8296l-0.0011811 -0.0011811 -0.0011811 -0.0011811c-27.2197,-27.2209 -40.8296,-62.8914 -40.8296,-98.5583 0,-35.6658 13.6122,-71.3398 40.8296,-98.5595l0.0011811 -0.0011811c27.2185,-27.2185 62.8926,-40.8284 98.5595,-40.8284z"/>
    <path id="_511692936" class="fil3" d="M925.918 1183.14c15.4016,-14.1898 16.8213,-38.0646 2.72599,-53.6977 -8.03623,-8.91379 -19.4291,-13.5721 -31.4185,-12.3473l-8.41654 0.859843 -37.5709 -41.6611c-6.08032,-6.74174 -16.4563,-7.38544 -23.2205,-1.28032 -6.76536,6.10512 -7.22599,16.5024 -1.13858,23.2524l37.7374 41.8347 -1.4941 8.09056c-2.14252,11.5984 1.26024,23.3185 9.17481,32.0752 1.86969,2.06693 3.93307,4.02874 6.2256,5.62441l6.28465 4.37244 8.37284 81.6355c0.929528,9.06379 9.09095,15.7394 18.163,14.8205 9.04725,-0.917717 15.6602,-9.15119 14.739,-18.1748l-7.98898 -78.1489 5.96575 -5.64331c0.607087,-0.575197 1.22599,-1.07717 1.85906,-1.61221z"/>
    <path id="_511695312" class="fil3" d="M1131.32 1139.18c-3.14882,-53.0138 -24.1394,-102.546 -59.6847,-141.956 -41.6929,-46.2248 -98.8217,-73.5473 -161.002,-76.7457 -62.0197,-3.19134 -121.937,18.2091 -168.038,59.8028 -46.2048,41.6882 -73.5201,98.7898 -76.7209,160.951 -2.88544,56.0315 15.0059,111.289 49.5402,155.426 34.4339,44.0091 83.1993,74.4497 138.08,85.3146 6.87638,1.36181 14.0362,-0.38504 19.5579,-4.6937 5.57717,-4.34882 8.99883,-10.8626 9.37324,-17.9209 0.698032,-13.1445 -8.23938,-24.5575 -21.0933,-27.2362 -42.1937,-8.79449 -79.6512,-32.478 -106.197,-66.3615 -27.104,-34.5957 -41.2134,-77.9847 -38.9469,-121.932 2.5063,-48.6508 23.9575,-93.5174 60.1241,-126.141 36.1229,-32.5807 83.1142,-49.3666 131.702,-46.8969 48.6981,2.47677 93.5753,23.9528 126.223,60.1548 25.4658,28.2355 41.4709,63.2563 45.8906,101.002l2.29488 19.6051 -41.5229 -2.12362c-3.87992,-0.198425 -7.59331,1.12441 -10.4811,3.72402 -1.47047,1.32284 -2.61732,2.8311 -3.47362,4.61457 -2.55709,5.32205 -1.59803,11.6185 2.34803,15.9945l60.9426 67.5591c5.35276,5.93268 14.752,6.36969 20.674,1.02638l67.5768 -60.9709c4.41142,-3.98032 5.94213,-10.0878 3.95788,-15.6851 -1.98071,-5.5878 -7.00867,-9.39922 -12.9413,-9.70158l-37.2992 -1.90158 -0.885827 -14.9091z"/>
   </g>
  </g>
 </g>
</svg>
