<?xml version="1.0" encoding="UTF-8"?>
<!DOCTYPE svg PUBLIC "-//W3C//DTD SVG 1.1//EN" "http://www.w3.org/Graphics/SVG/1.1/DTD/svg11.dtd">
<!-- Creator: CorelDRAW -->
<svg xmlns="http://www.w3.org/2000/svg" xml:space="preserve" width="2048px" height="2048px" style="shape-rendering:geometricPrecision; text-rendering:geometricPrecision; image-rendering:optimizeQuality; fill-rule:evenodd; clip-rule:evenodd"
viewBox="0 0 2048 2048"
 xmlns:xlink="http://www.w3.org/1999/xlink">
 <defs>
  <style type="text/css">
   <![CDATA[
    .fil0 {fill:none}
    .fil2 {fill:#212121;fill-rule:nonzero}
    .fil1 {fill:#f51d05;fill-rule:nonzero}
   ]]>
  </style>
 </defs>
 <g id="Layer_x0020_1">
  <metadata id="CorelCorpID_0Corel-Layer"/>
  <g id="_511689912">
   <rect id="_511704432" class="fil0" width="2048" height="2048"/>
   <rect id="_511701960" class="fil0" x="255.999" y="255.999" width="1536" height="1536"/>
   <path id="_511701720" class="fil1" d="M864.002 401.228c-43.8414,0 -83.5359,17.7744 -112.269,46.5071 -28.7327,28.7339 -46.5071,68.4308 -46.5071,112.269 0,43.8355 17.7744,83.5312 46.5095,112.265 28.7327,28.7303 68.426,46.5059 112.266,46.5059 43.839,0 83.5323,-17.7756 112.265,-46.5059 28.7351,-28.7339 46.5095,-68.4296 46.5095,-112.265 0,-43.8378 -17.7744,-83.5347 -46.5071,-112.269 -28.7327,-28.7327 -68.4272,-46.5071 -112.267,-46.5071zm-147.072 11.7036c37.6429,-37.6418 89.6434,-60.9296 147.072,-60.9296 57.4276,0 109.428,23.2878 147.071,60.9296 37.6429,37.6441 60.9296,89.6469 60.9296,147.072 0,57.4229 -23.2878,109.424 -60.9319,147.069 -37.6418,37.6406 -89.641,60.9284 -147.069,60.9284 -57.4288,0 -109.428,-23.2878 -147.07,-60.9284 -37.6441,-37.6441 -60.9319,-89.6457 -60.9319,-147.069 0,-57.4252 23.2866,-109.428 60.9296,-147.072z"/>
   <polygon id="_511700136" class="fil1" points="938.161,516.811 898.931,556.041 938.162,595.274 903.359,630.077 864.127,590.845 824.896,630.077 790.092,595.274 829.323,556.041 790.092,516.811 824.896,482.007 864.127,521.237 903.357,482.007 "/>
   <path id="_511701816" class="fil2" d="M1792 466.512c-15.7654,1.20473 -33.0047,2.2252 -49.8662,3.22087 -113.329,6.71339 -207.162,12.2669 -263.301,134.982l-360.612 793.822 -523.367 -0.347244 0.0755906 -62.6812 480.447 -0.302362 56.7248 -123.957 -536.63 0 -195.571 -337.618 -0.0944883 0.056693 -35.4 -61.3323 -55.4575 -95.7355 0.126378 -0.126378 -53.0752 -91.9359 73.3973 0 2.15551 4.48229 27.8858 48.3473 295.193 0c10.6571,18.9768 23.9528,36.5918 39.6733,52.3122 3.81969,3.81969 7.75394,7.4941 11.7898,11.0244l-310.115 0 11.3717 19.7173 224.452 387.472 529.262 0 186.19 -407.189 -325.349 0c4.03583,-3.53032 7.97008,-7.20473 11.7898,-11.0244 15.7205,-15.7205 29.0162,-33.3355 39.6733,-52.3122l302.85 0 45.2209 -98.895c71.9717,-157.339 182.943,-163.908 316.987,-171.843 16.6347,-0.989765 33.6792,-1.99843 53.5725,-3.60591l0 63.4689z"/>
   <polygon id="_511693656" class="fil1" points="1197.73,861.441 562.045,861.441 524.854,798.105 1226.61,798.105 "/>
   <polygon id="_511703808" class="fil1" points="1146.24,975.615 629.095,975.615 591.904,912.278 1174.81,912.278 "/>
   <polygon id="_511698288" class="fil1" points="1094.75,1089.79 696.143,1089.79 658.953,1026.46 1123.31,1026.46 "/>
   <path id="_511689360" class="fil2" d="M647.084 1417.73c31.3654,0 59.7756,12.7193 80.3304,33.2811 20.5618,20.5559 33.2823,48.965 33.2823,80.3316 0,31.3725 -12.7205,59.7756 -33.2823,80.3375 -20.5547,20.5547 -48.965,33.2752 -80.3304,33.2752 -31.3725,0 -59.7756,-12.7205 -80.3304,-33.2752 -20.5618,-20.5618 -33.2823,-48.965 -33.2823,-80.3375 0,-31.3666 12.7205,-59.7756 33.2823,-80.3316 20.5547,-20.5618 48.9579,-33.2811 80.3304,-33.2811zm35.5512 78.0615c-9.09568,-9.09568 -21.665,-14.7248 -35.5512,-14.7248 -13.8862,0 -26.4555,5.62914 -35.5512,14.7248 -9.09568,9.09568 -14.7248,21.6709 -14.7248,35.5512 0,13.8862 5.62914,26.4614 14.7248,35.5571 9.09568,9.09568 21.665,14.7189 35.5512,14.7189 13.8862,0 26.4555,-5.62323 35.5512,-14.7189 9.09568,-9.09568 14.7248,-21.6709 14.7248,-35.5571 0,-13.8803 -5.62914,-26.4555 -14.7248,-35.5512z"/>
   <path id="_511689432" class="fil2" d="M1073.81 1417.73c31.3725,0 59.7756,12.7193 80.3304,33.2811 20.5618,20.5559 33.2823,48.965 33.2823,80.3316 0,31.3725 -12.7205,59.7756 -33.2823,80.3375 -20.5547,20.5547 -48.9579,33.2752 -80.3304,33.2752 -31.3725,0 -59.7756,-12.7205 -80.3375,-33.2752 -20.5547,-20.5618 -33.2752,-48.965 -33.2752,-80.3375 0,-31.3666 12.7205,-59.7756 33.2752,-80.3316 20.5618,-20.5618 48.965,-33.2811 80.3375,-33.2811zm35.5512 78.0615c-9.09568,-9.09568 -21.665,-14.7248 -35.5512,-14.7248 -13.8862,0 -26.4614,5.62914 -35.5583,14.7248 -9.09568,9.09568 -14.7177,21.6709 -14.7177,35.5512 0,13.8862 5.62205,26.4614 14.7177,35.5571 9.09686,9.09568 21.6721,14.7189 35.5583,14.7189 13.8862,0 26.4555,-5.62323 35.5512,-14.7189 9.09568,-9.09568 14.7248,-21.6709 14.7248,-35.5571 0,-13.8803 -5.62914,-26.4555 -14.7248,-35.5512z"/>
  </g>
 </g>
</svg>
