<?xml version="1.0" encoding="UTF-8"?>
<!DOCTYPE svg PUBLIC "-//W3C//DTD SVG 1.1//EN" "http://www.w3.org/Graphics/SVG/1.1/DTD/svg11.dtd">
<!-- Creator: CorelDRAW -->
<svg xmlns="http://www.w3.org/2000/svg" xml:space="preserve" width="2048px" height="2048px" style="shape-rendering:geometricPrecision; text-rendering:geometricPrecision; image-rendering:optimizeQuality; fill-rule:evenodd; clip-rule:evenodd"
viewBox="0 0 2048 2048"
 xmlns:xlink="http://www.w3.org/1999/xlink">
 <defs>
  <style type="text/css">
   <![CDATA[
    .fil0 {fill:none}
    .fil1 {fill:#212121;fill-rule:nonzero}
    .fil2 {fill:#f51d05;fill-rule:nonzero}
   ]]>
  </style>
 </defs>
 <g id="Layer_x0020_1">
  <metadata id="CorelCorpID_0Corel-Layer"/>
  <rect class="fil0" width="2048" height="2048"/>
  <polygon class="fil1" points="1471.79,464.483 1325.56,465.826 1043.61,468.409 368.631,1143.39 903.693,1678.46 1578.68,1003.47 1581.26,721.53 1582.57,578.983 1662.65,498.9 1660.6,722.153 1657.87,1020.58 1646.35,1048.43 931.852,1762.93 903.693,1791.09 875.535,1762.93 284.156,1171.55 255.998,1143.39 284.156,1115.23 998.658,400.732 1026.51,389.22 1324.93,386.484 1551.88,384.4 "/>
  <polygon class="fil2" points="1792,313.23 1397.42,707.81 1341.1,651.494 1735.68,256.914 "/>
  <path class="fil2" d="M1368.35 678.735c-11.661,-11.661 -26.9528,-17.4921 -42.2445,-17.4921 -15.2917,0 -30.5823,5.83111 -42.2433,17.4921l-0.0011811 0.0011811c-11.6599,11.661 -17.4921,26.9516 -17.4921,42.2433 0,15.2917 5.83229,30.5811 17.4921,42.2422l0.0011811 0.0011811 0.0011811 0.0011811c11.661,11.661 26.9516,17.4921 42.2422,17.4921 15.2917,0 30.5811,-5.83229 42.2422,-17.4921l0.00236221 -0.0011811c11.661,-11.661 17.4921,-26.9516 17.4921,-42.2433 0,-15.2917 -5.83111,-30.5835 -17.4921,-42.2445zm-42.2445 -97.1446c35.6693,0 71.341,13.6099 98.5607,40.8284 27.2185,27.2185 40.8284,62.8914 40.8284,98.5607 0,35.667 -13.6099,71.341 -40.8284,98.5595l-0.00236221 0.0011811c-27.2185,27.2173 -62.8926,40.8296 -98.5583,40.8296 -35.6681,0 -71.341,-13.6122 -98.5583,-40.8296l-0.0011811 -0.0011811 -0.0011811 -0.0011811c-27.2197,-27.2209 -40.8296,-62.8914 -40.8296,-98.5583 0,-35.6658 13.6122,-71.3398 40.8296,-98.5595l0.0011811 -0.0011811c27.2185,-27.2185 62.8926,-40.8284 98.5595,-40.8284z"/>
  <path class="fil1" d="M753.695 1438.16l30.9567 -30.9567c9.75473,-9.81497 14.4106,-19.7469 14.0244,-29.8583 -0.414567,-10.0819 -5.63386,-20.1036 -15.6272,-30.0969l-62.98 -62.98c-9.99095,-9.99095 -20.0138,-15.2114 -30.0957,-15.6248 -10.1102,-0.386221 -20.0433,4.26851 -29.8583,14.0244l-30.9555 30.9567 124.536 124.536zm-76.1445 -137.346c2.04567,-2.10591 4.20945,-3.49843 6.52205,-4.21063 2.28425,-0.681497 4.68544,-0.532678 7.26615,0.445276 2.54882,1.00748 5.3067,2.93504 8.27127,5.89961l64.7599 64.7587c2.96457,2.96575 4.89213,5.72245 5.90079,8.27363 0.977954,2.57953 1.12677,4.98189 0.444095,7.26379 -0.711024,2.31378 -2.10473,4.47756 -4.20945,6.52441l-11.0315 11.0303 -88.9548 -88.9548 11.0315 -11.0303zm148.732 64.7587l19.5697 -19.5697 -124.537 -124.536 -19.5685 19.5697 124.536 124.536zm-63.3355 -125.96c5.09882,5.04095 10.3181,8.83701 15.626,11.4165 5.33741,2.55 10.7043,4.29922 16.1303,5.15906 5.39646,0.889371 10.7929,1.30512 16.1587,1.21654 5.33859,-0.0602363 10.6158,-0.238583 15.7465,-0.504331 5.15906,-0.296457 10.1398,-0.296457 14.9445,0 4.80355,0.237402 9.36969,1.18583 13.6984,2.72717 4.29922,1.57205 8.27363,4.12205 11.9492,7.73977 2.93504,2.93504 4.89331,5.72363 5.84174,8.33268 0.948426,2.60906 1.06772,5.04095 0.355512,7.35237 -0.741733,2.28307 -2.13543,4.50709 -4.24016,6.55394 -2.04567,2.10473 -4.24016,3.52796 -6.55276,4.24016 -2.3126,0.711024 -4.74449,0.592914 -7.35355,-0.356693 -2.60906,-0.948426 -5.36693,-2.87599 -8.33268,-5.84174l-8.89489 -8.89489 -18.502 18.502 7.65001 7.65001c6.67205,6.67205 13.402,11.2087 20.2512,13.6701 6.84922,2.46024 13.6701,2.75788 20.4603,0.889371 6.75945,-1.89685 13.3429,-6.04843 19.7764,-12.424 6.37678,-6.43347 10.5272,-13.0169 12.4252,-19.7776 1.86732,-6.79016 1.57087,-13.611 -0.890552,-20.4603 -2.46142,-6.84922 -6.99686,-13.5791 -13.6689,-20.2512 -5.1,-5.04095 -10.3181,-8.83583 -15.626,-11.4154 -5.33741,-2.55 -10.7043,-4.3004 -16.1303,-5.15906 -5.39646,-0.890552 -10.7941,-1.30512 -16.1599,-1.21654 -5.33859,0.0590552 -10.6158,0.237402 -15.7453,0.504331 -5.15906,0.295276 -10.141,0.296457 -14.9445,0 -4.80355,-0.237402 -9.37087,-1.18583 -13.6984,-2.72835 -4.3004,-1.57205 -8.30316,-4.1504 -11.9504,-7.73859 -4.38898,-4.44685 -6.7004,-8.42127 -6.9378,-12.0378 -0.207874,-3.58819 1.24606,-6.93898 4.44803,-10.0228 3.08386,-3.20197 6.43347,-4.65473 10.0217,-4.44803 3.61772,0.237402 7.59095,2.55 12.0378,6.93898l5.16024 5.16024 18.5032 -18.5032 -3.91536 -3.91536c-6.67087,-6.67087 -13.4315,-11.237 -20.2217,-13.7575 -6.81969,-2.48977 -13.5803,-2.78622 -20.3114,-0.979135 -6.7004,1.84016 -13.2248,5.9315 -19.6004,12.2469 -6.31536,6.3756 -10.4067,12.8988 -12.2445,19.5992 -1.80945,6.73111 -1.51299,13.4917 0.977954,20.3126 2.52047,6.78898 7.08662,13.5496 13.7587,20.2205l0 0zm155.491 -59.0658l17.791 17.791c2.96575,2.96575 4.89331,5.72363 5.84174,8.33386 0.948426,2.60906 1.06772,5.03977 0.355512,7.35237 -0.711024,2.31378 -2.13425,4.50709 -4.24016,6.55394 -2.04567,2.10473 -4.24016,3.52796 -6.55276,4.23898 -2.3126,0.712205 -4.74449,0.594095 -7.35355,-0.354331 -2.60906,-0.949607 -5.36693,-2.87717 -8.33268,-5.84292l-67.2485 -67.2485c-4.38898,-4.44803 -6.613,-8.50985 -6.76182,-12.2162 -0.0874016,-3.7063 1.42441,-7.11615 4.62638,-10.2 3.08386,-3.20315 6.49489,-4.71496 10.2,-4.62638 3.7063,0.148819 7.7693,2.37166 12.2173,6.76064l13.3429 13.3429 18.502 -18.502 -12.098 -12.098c-6.67087,-6.67205 -13.4315,-11.237 -20.2807,-13.6984 -6.84922,-2.46142 -13.6406,-2.72835 -20.4295,-0.861024 -6.76182,1.89921 -13.3441,6.04961 -19.7788,12.424 -6.3756,6.43583 -10.526,13.0181 -12.4228,19.7776 -1.86851,6.79134 -1.60158,13.5815 0.859843,20.4307 2.46024,6.84922 7.02756,13.6099 13.6984,20.2807l64.7587 64.7587c6.67205,6.67205 13.402,11.2087 20.2524,13.6689 6.84922,2.46142 13.6689,2.75906 20.4591,0.890552 6.76064,-1.89803 13.3429,-6.04843 19.7776,-12.424 6.3756,-6.43465 10.526,-13.0169 12.424,-19.7776 1.86732,-6.79016 1.57087,-13.611 -0.890552,-20.4603 -2.46024,-6.84922 -6.99686,-13.5791 -13.6689,-20.2512l-16.5449 -16.5461 -18.5032 18.502zm-1.06772 -97.8485c-4.3878,-4.44803 -6.61182,-8.50985 -6.76064,-12.2162 -0.0885827,-3.7063 1.42441,-7.11615 4.62638,-10.2 3.08386,-3.20197 6.49371,-4.71496 10.2,-4.6252 3.7063,0.148819 7.76812,2.37166 12.2162,6.75945l67.2497 67.2497c4.38898,4.44803 6.61182,8.51103 6.76064,12.2173 0.0897638,3.70512 -1.42323,7.11615 -4.62638,10.2 -3.08268,3.20197 -6.49371,4.71378 -10.2,4.62638 -3.7063,-0.148819 -7.76812,-2.37284 -12.2162,-6.76182l-67.2497 -67.2497zm46.4351 85.5733c6.67205,6.67205 13.461,11.1496 20.3988,13.5213 6.93898,2.37284 13.8177,2.61024 20.6977,0.65315 6.84922,-1.98662 13.4917,-6.19725 19.9252,-12.5717 6.3756,-6.43465 10.5862,-13.0772 12.5728,-19.9264 1.95709,-6.87875 1.71969,-13.7587 -0.651969,-20.6977 -2.37284,-6.9378 -6.84922,-13.7268 -13.5225,-20.4l-64.7587 -64.7587c-6.67087,-6.67087 -13.4906,-11.178 -20.4284,-13.5496 -6.93898,-2.37284 -13.7882,-2.57953 -20.6681,-0.622441 -6.84922,1.98662 -13.4917,6.19725 -19.9264,12.5717 -6.37323,6.43347 -10.585,13.0772 -12.5717,19.9264 -1.95709,6.87875 -1.74921,13.728 0.623623,20.6669 2.37166,6.9378 6.87875,13.7575 13.5496,20.4284l64.7599 64.7587zm-23.4839 -165.81l94.8249 94.8249c6.67205,6.67205 13.402,11.2087 20.2524,13.6689 6.84922,2.46142 13.6689,2.75906 20.4591,0.890552 6.76064,-1.89685 13.3441,-6.04843 19.7776,-12.424 6.3756,-6.43347 10.526,-13.0169 12.424,-19.7776 1.86732,-6.79016 1.57087,-13.6099 -0.890552,-20.4591 -2.46024,-6.84922 -6.99686,-13.5803 -13.6689,-20.2524l-94.8249 -94.8249 -18.502 18.502 96.0698 96.0698c2.96575,2.96575 4.89331,5.72363 5.84292,8.33268 0.947245,2.61024 1.06654,5.04095 0.354331,7.35355 -0.711024,2.31378 -2.13425,4.50709 -4.24016,6.55394 -2.04567,2.10473 -4.24016,3.52914 -6.55276,4.23898 -2.3126,0.712205 -4.74449,0.594095 -7.35355,-0.354331 -2.60906,-0.949607 -5.36693,-2.87717 -8.33268,-5.84174l-96.0698 -96.0709 -19.5697 19.5697zm238.042 11.0303l20.1036 -20.1036 -124.536 -124.537 -17.4354 17.4366 74.543 74.543 -94.6465 -54.4406 -24.5516 24.5516 124.536 124.536 17.6138 -17.6126 -90.1997 -90.1997 114.573 65.8264zm-78.28 -135.21l20.4591 -20.4591 106.746 106.745 19.5697 -19.5697 -106.746 -106.745 20.4603 -20.4603 -17.791 -17.791 -60.489 60.489 17.791 17.791z"/>
  <rect class="fil0" x="255.999" y="255.999" width="1536" height="1536"/>
 </g>
</svg>
