<?xml version="1.0" encoding="UTF-8"?>
<!DOCTYPE svg PUBLIC "-//W3C//DTD SVG 1.1//EN" "http://www.w3.org/Graphics/SVG/1.1/DTD/svg11.dtd">
<!-- Creator: CorelDRAW -->
<svg xmlns="http://www.w3.org/2000/svg" xml:space="preserve" width="2048px" height="2048px" style="shape-rendering:geometricPrecision; text-rendering:geometricPrecision; image-rendering:optimizeQuality; fill-rule:evenodd; clip-rule:evenodd"
viewBox="0 0 2048 2048"
 xmlns:xlink="http://www.w3.org/1999/xlink">
 <defs>
  <style type="text/css">
   <![CDATA[
    .fil0 {fill:none}
    .fil2 {fill:#f51d05}
    .fil3 {fill:#231F20;fill-rule:nonzero}
    .fil1 {fill:#f51d05;fill-rule:nonzero}
   ]]>
  </style>
 </defs>
 <g id="Layer_x0020_1">
  <metadata id="CorelCorpID_0Corel-Layer"/>
  <rect class="fil0" width="2048" height="2048"/>
  <rect class="fil0" x="255.999" y="255.999" width="1536" height="1536"/>
  <path class="fil1" d="M958.751 823.498c-4.4067,-15.9414 -20.1638,-25.6961 -36.1264,-22.9477l0.00708662 0.0590552 -0.0141732 0.00354331 -3.09921 0.698032c0.777166,-0.15 2.50748,-0.538583 3.09921,-0.698032l-0.00826772 -0.0602363 0.0153543 -0.00236221 -0.0141732 -0.10748c-159.868,20.7626 -302.259,131.136 -374.985,273.056 -8.00788,15.6709 -1.79646,34.8673 13.8744,42.8752 15.6709,8.00788 34.8673,1.79646 42.8752,-13.8744 103.964,-202.88 295.187,-234.383 323.986,-238.362 20.7721,-1.09961 36.1122,-19.937 30.3898,-40.6394zm-36.013 -22.9181l-0.00354331 -0.0283465c0.121654,-0.0153543 0.109843,-0.00354331 0.00354331,0.0283465z"/>
  <path class="fil2" d="M515.563 1223.04c-19.5591,0 -35.563,-15.8386 -35.563,-35.4449 0,-19.5933 16.0039,-35.5973 35.563,-35.5973 19.6051,0 35.4437,15.8386 35.4437,35.5973 0,19.6063 -15.8386,35.4449 -35.4437,35.4449z"/>
  <path class="fil3" d="M1099.35 695.092c2.62795,-5.56654 4.68307,-11.4555 6.04725,-17.5051 1.26732,-5.62323 1.95118,-11.7213 1.95118,-18.1866 0,-23.0977 -9.33072,-44.0055 -24.411,-59.1071 -14.9976,-15.0201 -35.8016,-24.3236 -58.8532,-24.3236 -23.0043,0 -43.8201,9.3189 -58.8804,24.3792 -15.0662,15.0673 -24.3839,35.889 -24.3839,58.8863 0,6.74646 0.659056,12.9827 1.90512,18.613 1.30748,5.9067 3.31299,11.7036 5.92796,17.2441l18.0272 38.1886 -41.778 6.93662c-139.166,23.1095 -264.272,95.6068 -355.721,198.578 -82.9949,93.4513 -138.203,211.902 -150.973,341.203l1194.36 0c-12.2776,-130.986 -64.7646,-250.775 -145.523,-344.745 -86.8831,-101.098 -206.521,-172.214 -343.947,-195.036l-41.7815 -6.9378 18.0307 -38.1874zm72.0001 -35.6918c0,8.2382 -0.768898,16.552 -2.22166,24.8126 137.797,31.0453 257.599,106.187 346.42,209.541 96.58,112.381 156.51,258.227 163.011,416.996l1.36063 33.2504 -33.2362 0 -1262.68 0 -33.2551 0 1.37953 -33.2504c6.53741,-157.515 69.8634,-302.233 169.305,-414.205 93.1123,-104.843 217.964,-181.096 357.578,-212.379 -1.44095,-8.34213 -2.19095,-16.6914 -2.19095,-24.9307 0,-40.6607 16.4823,-77.4827 43.1351,-104.137 26.6457,-26.6457 63.4583,-43.1303 104.131,-43.1303 40.5756,0 77.3894,16.5697 104.104,43.3252 26.6646,26.7024 43.1622,63.5327 43.1622,104.107z"/>
  <path class="fil3" d="M256.064 1408c-17.6728,0 -32.0008,14.328 -32.0008,32.0008 0,17.6728 14.328,32.0008 32.0008,32.0008l1536 0c17.6728,0 32.0008,-14.328 32.0008,-32.0008 0,-17.6728 -14.328,-32.0008 -32.0008,-32.0008l-1536 0z"/>
 </g>
</svg>
