<?xml version="1.0" encoding="UTF-8"?>
<!DOCTYPE svg PUBLIC "-//W3C//DTD SVG 1.1//EN" "http://www.w3.org/Graphics/SVG/1.1/DTD/svg11.dtd">
<!-- Creator: CorelDRAW -->
<svg xmlns="http://www.w3.org/2000/svg" xml:space="preserve" width="2048px" height="2048px" style="shape-rendering:geometricPrecision; text-rendering:geometricPrecision; image-rendering:optimizeQuality; fill-rule:evenodd; clip-rule:evenodd"
viewBox="0 0 2048 2048"
 xmlns:xlink="http://www.w3.org/1999/xlink">
 <defs>
  <style type="text/css">
   <![CDATA[
    .fil0 {fill:none}
    .fil1 {fill:#212121;fill-rule:nonzero}
    .fil2 {fill:#f51d05;fill-rule:nonzero}
   ]]>
  </style>
 </defs>
 <g id="Layer_x0020_1">
  <metadata id="CorelCorpID_0Corel-Layer"/>
  <rect class="fil0" width="2048" height="2048"/>
  <rect class="fil0" x="255.999" y="255.999" width="1536" height="1536"/>
  <path class="fil1" d="M1631.84 1016.58l-0.199606 -362.996 -0.125197 0c0,-66.6378 -22.0382,-126.712 -57.6402,-169.897 -34.1575,-41.4319 -80.9068,-67.0961 -132.122,-67.0961l-963.755 0c-51.3024,0 -98.1072,25.6583 -132.297,67.0843 -35.6457,43.1918 -57.7052,103.271 -57.7052,169.909l0 632.45c0,66.7099 22.0772,126.812 57.7099,170.022 34.2213,41.5004 81.0497,67.1941 132.292,67.1941l676.532 0c11.3445,22.5662 25.0382,44.0138 40.9288,64.0016l-717.461 0c-71.1497,0 -135.351,-34.6796 -181.541,-90.6957 -44.7414,-54.2563 -72.4619,-128.736 -72.4619,-210.522l0 -632.45c0,-81.717 27.6981,-156.175 72.4571,-210.409 46.1658,-55.9382 110.336,-90.5859 181.546,-90.5859l963.755 0c71.1355,0 135.249,34.6524 181.371,90.5977 44.7154,54.2374 72.3922,128.692 72.3922,210.397l-0.125197 0 0.219685 398.24c-20.1142,-13.8685 -41.4721,-25.6618 -63.7713,-35.2441z"/>
  <path class="fil1" d="M1485.72 1082.6c-75.9083,0 -144.574,30.704 -194.237,80.3292 -49.6087,49.5685 -80.2867,118.147 -80.2867,193.955 0,75.8363 30.7158,144.47 80.3847,194.139 49.6701,49.6701 118.304,80.3847 194.139,80.3847 75.8079,0 144.386,-30.678 193.955,-80.2867 49.6252,-49.663 80.3292,-118.329 80.3292,-194.237 0,-75.7146 -30.7146,-144.288 -80.3552,-193.929 -49.6406,-49.6406 -118.213,-80.3552 -193.929,-80.3552zm-239.237 35.0788c61.2567,-61.2095 145.836,-99.0804 239.237,-99.0804 93.3816,0 177.954,37.8815 239.179,99.1064 61.2249,61.2249 99.1064,145.799 99.1064,239.179 0,93.4016 -37.8709,177.98 -99.0804,239.237 -61.3004,61.35 -145.89,99.2883 -239.205,99.2883 -93.5009,0 -178.133,-37.8803 -239.39,-99.1359 -61.2556,-61.2556 -99.1359,-145.888 -99.1359,-239.39 0,-93.3154 37.9382,-177.905 99.2883,-239.205z"/>
  <polygon class="fil2" points="1516.93,1184.06 1516.93,1325 1658.33,1325 1658.33,1389 1516.93,1389 1516.93,1529.53 1452.93,1529.53 1452.93,1389 1312.86,1389 1312.86,1325 1452.93,1325 1452.93,1184.06 "/>
  <g id="_511690056">
   <path id="_511698240" class="fil1" d="M592.001 512c48.5965,0 92.5973,19.7008 124.449,51.5516 31.8496,31.8496 51.5516,75.8516 51.5516,124.449 0,48.5965 -19.7008,92.5973 -51.5516,124.449 -31.852,31.8508 -75.8528,51.5516 -124.449,51.5516 -48.5977,0 -92.5997,-19.702 -124.449,-51.5516 -31.8508,-31.852 -51.5516,-75.8528 -51.5516,-124.449 0,-48.5977 19.702,-92.5997 51.5516,-124.449 31.8496,-31.8496 75.8516,-51.5516 124.449,-51.5516zm79.1989 96.802c-20.2666,-20.2654 -48.2681,-32.8004 -79.1989,-32.8004 -30.9319,0 -58.9347,12.5362 -79.1989,32.8004 -20.2642,20.2642 -32.8004,48.267 -32.8004,79.1989 0,30.9307 12.535,58.9323 32.8004,79.1989 20.2642,20.2642 48.267,32.8004 79.1989,32.8004 30.9307,0 58.9323,-12.535 79.1989,-32.8004 20.2654,-20.2666 32.8004,-48.2681 32.8004,-79.1989 0,-30.9319 -12.5362,-58.9347 -32.8004,-79.1989z"/>
   <path id="_511700856" class="fil1" d="M454 896l276.001 0c28.0819,0 53.5914,11.4673 72.0615,29.9374 18.4736,18.4736 29.9386,43.9807 29.9386,72.0627l0 148.002c0,28.0819 -11.4673,53.5902 -29.9386,72.0615 -18.4713,18.4713 -43.9807,29.9386 -72.0615,29.9386l-276.001 0c-28.0819,0 -53.589,-11.465 -72.0627,-29.9386 -18.4701,-18.4701 -29.9374,-43.9796 -29.9374,-72.0615l0 -148.002c0,-28.0831 11.4662,-53.5914 29.9374,-72.0627 18.4713,-18.4713 43.9796,-29.9374 72.0627,-29.9374zm276.001 64.0016l-276.001 0c-10.4173,0 -19.911,4.28504 -26.8122,11.1862 -6.90119,6.90119 -11.1862,16.3949 -11.1862,26.8122l0 148.002c0,10.4161 4.28622,19.911 11.1862,26.811 6.90237,6.90237 16.3961,11.1874 26.8122,11.1874l276.001 0c10.415,0 19.9087,-4.28504 26.811,-11.1874 6.90237,-6.90237 11.1874,-16.3949 11.1874,-26.811l0 -148.002c0,-10.4161 -4.28504,-19.9099 -11.1874,-26.8122 -6.90001,-6.90001 -16.3949,-11.1862 -26.811,-11.1862z"/>
  </g>
  <polygon class="fil2" points="1344,736.001 896,736.001 896,671.999 1344,671.999 "/>
  <polygon class="fil2" points="1344,960.002 896,960.002 896,896 1344,896 "/>
  <path class="fil2" d="M1157.4 1184l-261.401 0 0 -64.0016 299.615 0c-14.7721,19.9122 -27.5563,41.3658 -38.2146,64.0016z"/>
 </g>
</svg>
