<?xml version="1.0" encoding="UTF-8"?>
<!DOCTYPE svg PUBLIC "-//W3C//DTD SVG 1.1//EN" "http://www.w3.org/Graphics/SVG/1.1/DTD/svg11.dtd">
<!-- Creator: CorelDRAW -->
<svg xmlns="http://www.w3.org/2000/svg" xml:space="preserve" width="2048px" height="2048px" style="shape-rendering:geometricPrecision; text-rendering:geometricPrecision; image-rendering:optimizeQuality; fill-rule:evenodd; clip-rule:evenodd"
viewBox="0 0 2048 2048"
 xmlns:xlink="http://www.w3.org/1999/xlink">
 <defs>
  <style type="text/css">
   <![CDATA[
    .fil0 {fill:none}
    .fil1 {fill:#f51d05}
    .fil2 {fill:#212121;fill-rule:nonzero}
   ]]>
  </style>
 </defs>
 <g id="Layer_x0020_1">
  <metadata id="CorelCorpID_0Corel-Layer"/>
  <rect class="fil0" width="2048" height="2048"/>
  <rect class="fil0" x="255.999" y="255.999" width="1536" height="1536"/>
  <path class="fil1" d="M768.863 887.698l0 -25.3536c0,-24.2681 9.57402,-47.3398 26.7284,-64.4953 17.1555,-17.1567 40.226,-26.7331 64.4941,-26.7331l6.09095 0 0 0.277559c21.9957,1.45748 42.691,10.7516 58.3949,26.452 17.1366,17.1331 26.7095,40.1681 26.7095,64.4079l0 25.4445 43.3122 0 0 206.301 -264.591 0 0 -206.301 38.8607 0zm50.8595 0l80.6989 0 0 -25.4445c0,-10.7161 -4.23426,-20.8748 -11.8087,-28.4469 -6.99804,-6.99686 -16.1929,-11.2205 -26.0173,-11.8311l-2.50984 0c-10.7445,0 -20.9386,4.23544 -28.5331,11.8311 -7.59568,7.59686 -11.8299,17.7921 -11.8299,28.5378l0 25.3536zm124.012 50.8583l-162.874 0 0 104.583 162.874 0 0 -104.583z"/>
  <path class="fil2" d="M1792 466.512c-15.7654,1.20473 -33.0047,2.2252 -49.8662,3.22087 -113.329,6.71339 -207.162,12.2669 -263.301,134.982l-360.612 793.822 -523.367 -0.347244 0.0755906 -62.6812 480.447 -0.302362 56.7248 -123.957 -536.63 0 -195.571 -337.618 -0.0944883 0.056693 -35.4 -61.3323 -55.4575 -95.7355 0.126378 -0.126378 -53.0752 -91.9359 73.3973 0 2.15551 4.48229 27.8858 48.3473 1016.78 0 45.2209 -98.895c71.9717,-157.339 182.943,-163.908 316.987,-171.843 16.6347,-0.989765 33.6792,-1.99843 53.5725,-3.60591l0 63.4689zm-1396.02 274.212l11.3717 19.7173 224.452 387.472 529.262 0 186.19 -407.189 -951.276 0z"/>
  <path class="fil2" d="M647.084 1417.73c31.3654,0 59.7756,12.7193 80.3304,33.2811 20.5618,20.5559 33.2823,48.965 33.2823,80.3316 0,31.3725 -12.7205,59.7756 -33.2823,80.3375 -20.5547,20.5547 -48.965,33.2752 -80.3304,33.2752 -31.3725,0 -59.7756,-12.7205 -80.3304,-33.2752 -20.5618,-20.5618 -33.2823,-48.965 -33.2823,-80.3375 0,-31.3666 12.7205,-59.7756 33.2823,-80.3316 20.5547,-20.5618 48.9579,-33.2811 80.3304,-33.2811zm35.5512 78.0615c-9.09568,-9.09568 -21.665,-14.7248 -35.5512,-14.7248 -13.8862,0 -26.4555,5.62914 -35.5512,14.7248 -9.09568,9.09568 -14.7248,21.6709 -14.7248,35.5512 0,13.8862 5.62914,26.4614 14.7248,35.5571 9.09568,9.09568 21.665,14.7189 35.5512,14.7189 13.8862,0 26.4555,-5.62323 35.5512,-14.7189 9.09568,-9.09568 14.7248,-21.6709 14.7248,-35.5571 0,-13.8803 -5.62914,-26.4555 -14.7248,-35.5512z"/>
  <path class="fil2" d="M1073.81 1417.73c31.3725,0 59.7756,12.7193 80.3304,33.2811 20.5618,20.5559 33.2823,48.965 33.2823,80.3316 0,31.3725 -12.7205,59.7756 -33.2823,80.3375 -20.5547,20.5547 -48.9579,33.2752 -80.3304,33.2752 -31.3725,0 -59.7756,-12.7205 -80.3375,-33.2752 -20.5547,-20.5618 -33.2752,-48.965 -33.2752,-80.3375 0,-31.3666 12.7205,-59.7756 33.2752,-80.3316 20.5618,-20.5618 48.965,-33.2811 80.3375,-33.2811zm35.5512 78.0615c-9.09568,-9.09568 -21.665,-14.7248 -35.5512,-14.7248 -13.8862,0 -26.4614,5.62914 -35.5583,14.7248 -9.09568,9.09568 -14.7177,21.6709 -14.7177,35.5512 0,13.8862 5.62205,26.4614 14.7177,35.5571 9.09686,9.09568 21.6721,14.7189 35.5583,14.7189 13.8862,0 26.4555,-5.62323 35.5512,-14.7189 9.09568,-9.09568 14.7248,-21.6709 14.7248,-35.5571 0,-13.8803 -5.62914,-26.4555 -14.7248,-35.5512z"/>
 </g>
</svg>
