<?xml version="1.0" encoding="UTF-8"?>
<!DOCTYPE svg PUBLIC "-//W3C//DTD SVG 1.1//EN" "http://www.w3.org/Graphics/SVG/1.1/DTD/svg11.dtd">
<!-- Creator: CorelDRAW -->
<svg xmlns="http://www.w3.org/2000/svg" xml:space="preserve" width="2048px" height="2048px" style="shape-rendering:geometricPrecision; text-rendering:geometricPrecision; image-rendering:optimizeQuality; fill-rule:evenodd; clip-rule:evenodd"
viewBox="0 0 2048 2048"
 xmlns:xlink="http://www.w3.org/1999/xlink">
 <defs>
  <style type="text/css">
   <![CDATA[
    .fil0 {fill:none}
    .fil1 {fill:#212121}
    .fil2 {fill:#212121;fill-rule:nonzero}
    .fil3 {fill:#f51d05;fill-rule:nonzero}
   ]]>
  </style>
 </defs>
 <g id="Layer_x0020_1">
  <metadata id="CorelCorpID_0Corel-Layer"/>
  <rect class="fil0" width="2048" height="2048"/>
  <rect class="fil0" width="2048" height="2048"/>
  <rect class="fil0" x="255.999" y="255.999" width="1536" height="1536"/>
  <path class="fil1" d="M746.742 1190.52c-18.6744,-14.7295 -37.1244,-34.4599 -41.1555,-58.8107 -3.60591,-21.7819 3.35315,-41.3386 16.8673,-58.4717 13.6725,-17.3327 31.1988,-29.3091 53.5642,-30.9603 24.5965,-1.81536 48.2091,11.6669 66.854,26.374 18.6307,14.6953 37.076,34.4717 41.0977,58.7622 3.61063,21.8126 -3.33544,41.3174 -16.8697,58.4752 -13.6429,17.2961 -31.167,29.3551 -53.5028,31.0051 -24.6012,1.81654 -48.2067,-11.6634 -66.8552,-26.374zm285.703 62.1615l-36.8362 46.7008 -167.504 -360.085 36.013 -45.6555 168.327 359.04zm-15.4004 -127.817c-18.6732,-14.7295 -37.0217,-34.4882 -41.0504,-58.8225 -3.63425,-21.9532 3.48189,-41.6256 17.0906,-58.878 13.6217,-17.2689 31.1398,-28.8685 53.3705,-30.45 24.6036,-1.74921 48.0922,11.491 66.7654,26.2217 18.7217,14.7662 37.2473,34.5992 41.2878,59.0091 3.60473,21.7831 -3.35433,41.341 -16.8697,58.4741 -13.6784,17.341 -31.2166,29.2618 -53.5914,30.8551 -24.6803,1.75512 -48.2823,-11.6433 -67.0028,-26.4095zm-233.225 17.9185c7.7315,6.09804 24.3921,18.5658 34.5898,19.2756 4.51654,0.312992 7.82245,-1.20945 10.6205,-4.7563 2.82992,-3.58701 3.69449,-7.20709 2.29843,-11.5925 -3.04961,-9.58465 -19.3299,-22.9843 -26.9481,-28.9937 -7.6193,-6.00945 -24.3189,-18.6177 -34.3571,-19.3606 -4.61221,-0.341339 -7.99371,1.2189 -10.8532,4.84252 -2.77441,3.51851 -3.55512,7.09725 -2.20866,11.3929 3.06733,9.79607 19.0984,23.0717 26.8583,29.1921zm270.527 -65.5772c7.67599,6.05434 24.3047,18.5303 34.4292,19.2437 4.53898,0.318898 7.95945,-1.14685 10.7799,-4.72323 2.77795,-3.52087 3.6189,-7.04528 2.22874,-11.3386 -3.17599,-9.80552 -19.1197,-23.0303 -26.9244,-29.1862 -7.59449,-5.99056 -24.463,-18.7488 -34.4469,-19.5154 -4.58268,-0.351969 -7.89449,1.36181 -10.715,4.93701 -2.79685,3.54685 -3.62126,7.11733 -2.21693,11.439 3.17717,9.7819 19.076,22.9996 26.8654,29.1437z"/>
  <polygon class="fil2" points="1459.73,457.978 1317.43,459.284 1043.09,461.798 386.286,1118.6 906.935,1639.25 1563.74,982.448 1566.25,708.1 1567.52,569.393 1645.45,491.468 1643.45,708.707 1640.79,999.095 1629.59,1026.19 934.334,1721.45 906.935,1748.85 879.536,1721.45 304.087,1146 276.688,1118.6 304.087,1091.2 999.342,395.944 1026.44,384.742 1316.83,382.08 1537.66,380.052 "/>
  <polygon class="fil3" points="1771.31,310.799 1387.36,694.751 1332.56,639.951 1716.51,255.999 "/>
  <path class="fil3" d="M1359.08 666.459c-11.3469,-11.3469 -26.2264,-17.0209 -41.1071,-17.0209 -14.8795,0 -29.7579,5.67402 -41.1048,17.0209l-0.0011811 0.0011811c-11.3457,11.3469 -17.0209,26.2252 -17.0209,41.1048 0,14.8807 5.6752,29.7567 17.0209,41.1036l0.0011811 0.00236221 0.0011811 0.0011811c11.3469,11.3469 26.2252,17.0209 41.1036,17.0209 14.8807,0 29.7591,-5.6752 41.1059,-17.0209l0.0011811 -0.0011811c11.3469,-11.3469 17.0209,-26.2252 17.0209,-41.1059 0,-14.8795 -5.67402,-29.7591 -17.0209,-41.1059zm-41.1071 -94.5284c34.7091,0 69.4205,13.2437 95.9068,39.7288 26.4851,26.4862 39.7288,61.1977 39.7288,95.9056 0,34.7055 -13.2437,69.4193 -39.7288,95.9044l-0.00236221 0.0011811c-26.4851,26.4851 -61.1977,39.73 -95.9044,39.73 -34.7067,0 -69.4182,-13.2449 -95.902,-39.73l-0.0011811 -0.0011811 -0.00236221 -0.0011811c-26.4851,-26.4874 -39.7288,-61.1977 -39.7288,-95.9032 0,-34.7055 13.2449,-69.4182 39.7288,-95.9044l0.00236221 -0.0011811c26.4851,-26.4851 61.1977,-39.7288 95.9032,-39.7288z"/>
 </g>
</svg>
