<?xml version="1.0" encoding="UTF-8"?>
<!DOCTYPE svg PUBLIC "-//W3C//DTD SVG 1.1//EN" "http://www.w3.org/Graphics/SVG/1.1/DTD/svg11.dtd">
<!-- Creator: CorelDRAW -->
<svg xmlns="http://www.w3.org/2000/svg" xml:space="preserve" width="2048px" height="2048px" style="shape-rendering:geometricPrecision; text-rendering:geometricPrecision; image-rendering:optimizeQuality; fill-rule:evenodd; clip-rule:evenodd"
viewBox="0 0 2048 2048"
 xmlns:xlink="http://www.w3.org/1999/xlink">
 <defs>
  <style type="text/css">
   <![CDATA[
    .fil0 {fill:none}
    .fil1 {fill:#231F20;fill-rule:nonzero}
    .fil2 {fill:#f51d05;fill-rule:nonzero}
   ]]>
  </style>
 </defs>
 <g id="Layer_x0020_1">
  <metadata id="CorelCorpID_0Corel-Layer"/>
  <rect class="fil0" width="2048" height="2048"/>
  <rect class="fil0" x="255.999" y="255.999" width="1536" height="1536"/>
  <polygon class="fil1" points="1792,1824 255.999,1824 223.999,1824 223.999,1792 223.999,255.997 288,255.997 288,1760 1792,1760 "/>
  <path class="fil1" d="M624.126 1284.37l285.281 -164.707 15.8752 -9.16654 15.8752 9.16654 216.21 124.828c-1.55906,1.39488 -3.08032,2.83229 -4.55906,4.31103 -13.6335,13.6323 -23.7685,30.763 -28.9441,49.9276l-198.582 -114.652 -269.406 155.542 -31.7504 -55.2496zm627.95 -66.58l246.003 -426.09 55.2496 31.7504 -244.338 423.207c-15.4595,-14.6374 -35.0859,-24.9154 -56.9138,-28.8673z"/>
  <path class="fil2" d="M592 1248c30.9248,0 58.9252,12.5374 79.193,32.8075 20.2701,20.2677 32.8075,48.2681 32.8075,79.193 0,30.9236 -12.5374,58.9241 -32.8075,79.1942 -20.2689,20.2689 -48.2693,32.8063 -79.193,32.8063 -30.9236,0 -58.9241,-12.5374 -79.1942,-32.8063 -20.2689,-20.2701 -32.8063,-48.2705 -32.8063,-79.1942 0,-30.9236 12.5374,-58.9241 32.8063,-79.193 20.2701,-20.2701 48.2705,-32.8075 79.1942,-32.8075zm33.9425 78.0579c-8.68347,-8.68347 -20.6858,-14.0563 -33.9425,-14.0563 -13.2579,0 -25.2591,5.37166 -33.9437,14.0563 -8.68229,8.68229 -14.0551,20.6847 -14.0551,33.9425 0,13.2579 5.37166,25.2603 14.0551,33.9437 8.68347,8.68347 20.6858,14.0551 33.9437,14.0551 13.2579,0 25.2603,-5.37284 33.9425,-14.0551 8.68465,-8.68465 14.0563,-20.6858 14.0563,-33.9437 0,-13.2567 -5.37284,-25.2591 -14.0563,-33.9425z"/>
  <path class="fil2" d="M1232 1216c30.9236,0 58.9241,12.5374 79.1942,32.8075 20.2689,20.2689 32.8063,48.2693 32.8063,79.193 0,30.9236 -12.5374,58.9241 -32.8063,79.1942 -20.2701,20.2689 -48.2705,32.8063 -79.1942,32.8063 -30.9236,0 -58.9241,-12.5374 -79.193,-32.8063 -20.2701,-20.2701 -32.8075,-48.2705 -32.8075,-79.1942 0,-30.9248 12.5374,-58.9252 32.8075,-79.193 20.2677,-20.2701 48.2681,-32.8075 79.193,-32.8075zm33.9437 78.0579c-8.68465,-8.68465 -20.6858,-14.0563 -33.9437,-14.0563 -13.2567,0 -25.2591,5.37284 -33.9425,14.0563 -8.68347,8.68347 -14.0563,20.6858 -14.0563,33.9425 0,13.2579 5.37166,25.2591 14.0563,33.9437 8.68229,8.68229 20.6847,14.0551 33.9425,14.0551 13.2579,0 25.2603,-5.37166 33.9437,-14.0551 8.68347,-8.68347 14.0551,-20.6858 14.0551,-33.9437 0,-13.2579 -5.37284,-25.2603 -14.0551,-33.9425z"/>
  <path class="fil2" d="M1563.67 642.518c30.9236,0 58.9241,12.5374 79.1942,32.8063 20.2689,20.2701 32.8063,48.2705 32.8063,79.1942 0,30.9236 -12.5374,58.9241 -32.8063,79.193 -20.2701,20.2701 -48.2705,32.8075 -79.1942,32.8075 -30.9248,0 -58.9252,-12.5374 -79.193,-32.8075 -20.2701,-20.2677 -32.8075,-48.2681 -32.8075,-79.193 0,-30.9236 12.5374,-58.9241 32.8075,-79.1942 20.2689,-20.2689 48.2693,-32.8063 79.193,-32.8063zm33.9437 78.0568c-8.68347,-8.68347 -20.6858,-14.0551 -33.9437,-14.0551 -13.2579,0 -25.2603,5.37284 -33.9425,14.0551 -8.68465,8.68465 -14.0563,20.6858 -14.0563,33.9437 0,13.2567 5.37284,25.2591 14.0563,33.9425 8.68347,8.68347 20.6858,14.0563 33.9425,14.0563 13.2579,0 25.2591,-5.37166 33.9437,-14.0563 8.68229,-8.68229 14.0551,-20.6847 14.0551,-33.9425 0,-13.2579 -5.37166,-25.2603 -14.0551,-33.9437z"/>
 </g>
</svg>
