<?xml version="1.0" encoding="UTF-8"?>
<!DOCTYPE svg PUBLIC "-//W3C//DTD SVG 1.1//EN" "http://www.w3.org/Graphics/SVG/1.1/DTD/svg11.dtd">
<!-- Creator: CorelDRAW -->
<svg xmlns="http://www.w3.org/2000/svg" xml:space="preserve" width="2048px" height="2048px" style="shape-rendering:geometricPrecision; text-rendering:geometricPrecision; image-rendering:optimizeQuality; fill-rule:evenodd; clip-rule:evenodd"
viewBox="0 0 2048 2048"
 xmlns:xlink="http://www.w3.org/1999/xlink">
 <defs>
  <style type="text/css">
   <![CDATA[
    .fil0 {fill:none}
    .fil1 {fill:#212121;fill-rule:nonzero}
    .fil2 {fill:#f51d05;fill-rule:nonzero}
   ]]>
  </style>
 </defs>
 <g id="Layer_x0020_1">
  <metadata id="CorelCorpID_0Corel-Layer"/>
  <rect class="fil0" width="2048" height="2048"/>
  <rect class="fil0" width="2048" height="2048"/>
  <g id="_512353064">
   <rect id="_512353472" class="fil0" x="255.999" y="255.999" width="1536" height="1536"/>
   <polygon id="_512353352" class="fil1" points="1459.73,457.978 1317.43,459.284 1043.09,461.798 386.286,1118.6 906.935,1639.25 1563.74,982.448 1566.25,708.1 1567.52,569.393 1645.45,491.468 1643.45,708.707 1640.79,999.095 1629.59,1026.19 934.334,1721.45 906.935,1748.85 879.536,1721.45 304.087,1146 276.688,1118.6 304.087,1091.2 999.342,395.944 1026.44,384.742 1316.83,382.08 1537.66,380.052 "/>
   <polygon id="_512353280" class="fil2" points="1771.31,310.799 1387.36,694.751 1332.56,639.951 1716.51,255.999 "/>
   <path id="_512353208" class="fil2" d="M1359.08 666.459c-11.3469,-11.3469 -26.2264,-17.0209 -41.1071,-17.0209 -14.8795,0 -29.7579,5.67402 -41.1048,17.0209l-0.0011811 0.0011811c-11.3457,11.3469 -17.0209,26.2252 -17.0209,41.1048 0,14.8807 5.6752,29.7567 17.0209,41.1036l0.0011811 0.00236221 0.0011811 0.0011811c11.3469,11.3469 26.2252,17.0209 41.1036,17.0209 14.8807,0 29.7591,-5.6752 41.1059,-17.0209l0.0011811 -0.0011811c11.3469,-11.3469 17.0209,-26.2252 17.0209,-41.1059 0,-14.8795 -5.67402,-29.7591 -17.0209,-41.1059zm-41.1071 -94.5284c34.7091,0 69.4205,13.2437 95.9068,39.7288 26.4851,26.4862 39.7288,61.1977 39.7288,95.9056 0,34.7055 -13.2437,69.4193 -39.7288,95.9044l-0.00236221 0.0011811c-26.4851,26.4851 -61.1977,39.73 -95.9044,39.73 -34.7067,0 -69.4182,-13.2449 -95.902,-39.73l-0.0011811 -0.0011811 -0.00236221 -0.0011811c-26.4851,-26.4874 -39.7288,-61.1977 -39.7288,-95.9032 0,-34.7055 13.2449,-69.4182 39.7288,-95.9044l0.00236221 -0.0011811c26.4851,-26.4851 61.1977,-39.7288 95.9032,-39.7288z"/>
   <path id="_512353136" class="fil1" d="M685.985 1295.51c7.57914,7.32756 15.3142,12.8232 23.1591,16.5295 7.88859,3.66142 15.8067,6.14646 23.798,7.32284 7.94883,1.22008 15.8894,1.74331 23.7792,1.52599 7.84489,-0.174803 15.6012,-0.520867 23.1378,-0.996851 7.5815,-0.520867 14.9043,-0.601182 21.9709,-0.243307 7.06654,0.271654 13.7953,1.59213 20.1851,3.78898 6.34607,2.24055 12.2291,5.92441 17.6929,11.1839 4.36418,4.26851 7.28623,8.33386 8.72363,12.1547 1.4374,3.82087 1.65,7.39371 0.64252,10.8059 -1.05236,3.36733 -3.06496,6.66024 -6.12756,9.70158 -2.97402,3.12874 -6.17717,5.25709 -9.56576,6.34134 -3.38859,1.08307 -6.96497,0.948426 -10.8165,-0.405118 -3.85158,-1.35236 -7.93701,-4.14095 -12.3449,-8.45198l-13.2225 -12.9331 -26.9008 27.5008 11.3717 11.1236c9.91654,9.7004 19.8851,16.2602 29.9953,19.7681 10.1102,3.50551 20.1414,3.8315 30.0933,0.975591 9.90828,-2.89961 19.5177,-9.10985 28.8744,-18.5858 9.26812,-9.56339 15.2646,-19.3099 17.9457,-29.2784 2.63504,-10.0134 2.08819,-20.0351 -1.64055,-30.065 -3.72992,-10.0299 -10.5083,-19.852 -20.4248,-29.5524 -7.58032,-7.32875 -15.3142,-12.8232 -23.1591,-16.5295 -7.88859,-3.66142 -15.8067,-6.14764 -23.798,-7.32284 -7.94764,-1.22126 -15.8882,-1.74331 -23.778,-1.52599 -7.84607,0.173622 -15.6024,0.520867 -23.139,0.996851 -7.5815,0.519685 -14.9043,0.601182 -21.9721,0.242126 -7.06536,-0.270473 -13.7929,-1.59095 -20.1839,-3.7878 -6.34607,-2.24055 -12.2728,-5.96811 -17.6929,-11.1839 -6.52441,-6.46772 -9.98859,-12.2717 -10.3961,-17.5854 -0.36378,-5.27244 1.71851,-10.2213 6.3756,-14.8075 4.48229,-4.75748 9.38387,-6.94843 14.6634,-6.70158 5.32205,0.290551 11.2004,3.62599 17.811,10.0063l7.6689 7.50119 26.902 -27.502 -5.81811 -5.69174c-9.91654,-9.7004 -19.9299,-16.3028 -29.954,-19.898 -10.0665,-3.55158 -20.0103,-3.87874 -29.876,-1.11024 -9.82324,2.81221 -19.3477,8.93387 -28.617,18.3225 -9.1819,9.47481 -15.0921,19.1315 -17.6858,29.0138 -2.55118,9.92481 -2.00433,19.8591 1.76811,29.8453 3.81614,9.94135 10.6382,19.8071 20.5547,29.5075l0 0zm146.296 -153.264c-6.52441,-6.46772 -9.85985,-12.4039 -10.1386,-17.85 -0.190158,-5.44961 1.97717,-10.4858 6.63544,-15.0721 4.48229,-4.75867 9.47009,-7.03701 14.9209,-6.96615 5.45197,0.158268 11.4602,3.36142 18.0709,9.74056l99.9591 97.7776c6.52441,6.46772 9.85867,12.4051 10.1374,17.8512 0.191339,5.44725 -1.97717,10.4847 -6.63544,15.0709 -4.48111,4.75748 -9.4689,7.03701 -14.9209,6.96615 -5.45197,-0.157087 -11.4591,-3.36142 -18.0697,-9.74174l-99.9591 -97.7765zm69.6544 125.055c9.91654,9.7004 19.9713,16.1717 30.2114,19.5473 10.239,3.37441 20.3563,3.61181 30.4382,0.623623 10.0382,-3.03307 19.7339,-9.33072 29.0906,-18.8067 9.26812,-9.56457 15.3496,-19.3973 18.1606,-29.4992 2.76496,-10.1457 2.30433,-20.2547 -1.29567,-30.4158 -3.6,-10.1634 -10.2921,-20.0729 -20.2087,-29.7733l-96.2576 -94.1564c-9.91654,-9.7004 -20.0162,-16.2154 -30.2563,-19.5898 -10.239,-3.37559 -20.3126,-3.57048 -30.3933,-0.581103 -10.0394,3.03189 -19.7351,9.32953 -29.0918,18.8067 -9.26812,9.56339 -15.3496,19.3961 -18.1595,29.4992 -2.76614,10.1445 -2.34921,20.211 1.25079,30.3744 3.6,10.161 10.337,20.1142 20.2536,29.8146l96.2576 94.1564zm170.845 -85.7835l75.2729 -76.9536 -26.4449 -25.8673 -46.8189 47.8654 -158.666 -155.203 -28.454 29.0894 185.111 181.069zm109.345 -111.787l45.0095 -46.0134c14.1827,-14.5866 20.8654,-29.2666 20.1343,-44.1237 -0.774804,-14.8158 -8.60906,-29.465 -23.4614,-43.9937l-93.6142 -91.5698c-14.8524,-14.5288 -29.6717,-22.0394 -44.5004,-22.4847 -14.8701,-0.403937 -29.3988,6.60119 -43.6689,21.1028l-45.0095 46.0134 185.111 181.069zm-114.175 -200.686c2.97284,-3.12874 6.13347,-5.21221 9.52087,-6.29646 3.34607,-1.03937 6.87993,-0.861024 10.6878,0.536221 3.76654,1.43976 7.85079,4.22953 12.2587,8.54056l96.2576 94.1576c4.40788,4.31103 7.28623,8.33268 8.80867,12.065 1.4811,3.77717 1.7374,7.3063 0.772442,10.6736 -1.00866,3.41221 -3.02244,6.61654 -6.08504,9.65906l-16.037 16.3949 -132.221 -129.334 16.037 -16.3961z"/>
  </g>
 </g>
</svg>
