<?xml version="1.0" encoding="UTF-8"?>
<!DOCTYPE svg PUBLIC "-//W3C//DTD SVG 1.1//EN" "http://www.w3.org/Graphics/SVG/1.1/DTD/svg11.dtd">
<!-- Creator: CorelDRAW -->
<svg xmlns="http://www.w3.org/2000/svg" xml:space="preserve" width="2048px" height="2048px" style="shape-rendering:geometricPrecision; text-rendering:geometricPrecision; image-rendering:optimizeQuality; fill-rule:evenodd; clip-rule:evenodd"
viewBox="0 0 2048 2048"
 xmlns:xlink="http://www.w3.org/1999/xlink">
 <defs>
  <style type="text/css">
   <![CDATA[
    .fil0 {fill:none}
    .fil2 {fill:#212121;fill-rule:nonzero}
    .fil1 {fill:#f51d05;fill-rule:nonzero}
   ]]>
  </style>
 </defs>
 <g id="Layer_x0020_1">
  <metadata id="CorelCorpID_0Corel-Layer"/>
  <rect class="fil0" width="2048" height="2048"/>
  <rect class="fil0" x="255.999" y="255.999" width="1536" height="1536"/>
  <path class="fil1" d="M1294.5 672.387c129.075,0 245.323,-19.7386 328.969,-51.6319 74.4012,-28.3666 120.409,-63.9201 120.409,-99.906 0,-36.378 -45.9083,-72.1229 -120.164,-100.569 -83.6776,-32.054 -200.028,-51.8363 -329.214,-51.8363 -128.884,0 -245.229,19.8059 -328.949,51.8941 -74.2064,28.4421 -120.165,64.167 -120.165,100.511 0,35.9516 46.0595,71.4863 120.41,99.8493 83.6883,31.9252 199.93,51.6886 328.705,51.6886zm351.72 8.11772c-90.5351,34.5189 -214.909,55.8839 -351.72,55.8839 -136.508,0 -260.882,-21.3886 -351.455,-55.9406 -99.8233,-38.0811 -161.661,-94.2981 -161.661,-159.599 0,-65.6717 61.7363,-122.054 161.417,-160.26 90.58,-34.7173 215.052,-56.1461 351.699,-56.1461 136.949,0 261.423,21.4051 351.964,56.0882 99.7489,38.2111 161.415,94.6217 161.415,160.318 0,65.3233 -61.7682,121.57 -161.66,159.656z"/>
  <path class="fil2" d="M1139.03 940.543c12.9413,1.62165 26.1827,3.05551 39.7004,4.29449 37.9902,3.48071 76.7859,5.32441 115.768,5.32441 136.823,0 261.206,-21.3603 351.743,-55.8792 99.8765,-38.08 161.636,-94.3205 161.636,-159.659 0,-10.3323 -1.74449,-20.6091 -5.03977,-30.9284 -3.09685,-9.69331 -7.4315,-18.9106 -12.8575,-27.8173 -9.18072,-15.0496 -28.826,-19.8059 -43.8756,-10.6252 -15.0496,9.18072 -19.8059,28.826 -10.6252,43.8756 2.99646,4.9193 5.23701,9.52678 6.60709,13.8165 1.16929,3.6626 1.78937,7.53544 1.78937,11.6787 0,35.9953 -45.9981,71.5477 -120.385,99.9095 -83.6469,31.8922 -199.905,51.6272 -328.993,51.6272 -38.7898,0 -75.6024,-1.67008 -110.019,-4.82363 -15.0638,-1.38071 -29.9327,-3.0626 -44.563,-5.02914 1.85669,10.2579 2.77441,20.7898 2.65984,31.5626 -0.11811,11.1614 -1.33819,22.0666 -3.54685,32.6729z"/>
  <path class="fil2" d="M1123.64 1159.89c65.354,9.62717 129.67,15.1701 170.856,15.1701 136.837,0 261.229,-21.3709 351.766,-55.9205 99.8646,-38.1071 161.614,-94.3843 161.614,-159.775 0,-10.3512 -1.74449,-20.6374 -5.03977,-30.9544 -3.1004,-9.70276 -7.43505,-18.913 -12.8575,-27.7914 -9.18072,-15.0496 -28.826,-19.8059 -43.8756,-10.6252 -15.0496,9.18072 -19.8059,28.826 -10.6252,43.8756 3,4.91221 5.23937,9.51142 6.60709,13.7906 1.16929,3.6626 1.78937,7.54371 1.78937,11.7047 0,36.0579 -45.9874,71.6445 -120.363,100.025 -83.6528,31.9229 -199.919,51.6685 -329.015,51.6685 -39.3532,0 -163.847,-11.4874 -163.485,-14.6043l-7.37127 63.4359z"/>
  <path class="fil2" d="M1130.26 1393.79c12.2917,1.63937 24.8303,3.10748 37.5981,4.39607 41.0941,4.14685 83.5831,6.36024 126.643,6.36024 136.944,0 261.415,-21.4004 351.957,-56.0764 99.7536,-38.2051 161.423,-94.6076 161.423,-160.286 0,-10.1693 -1.71024,-20.2429 -4.85433,-30.2398 -2.83229,-9.00001 -6.97441,-18.0295 -12.1772,-27.0886 -8.76733,-15.2563 -28.2437,-20.5169 -43.5,-11.7496 -15.2563,8.76733 -20.5169,28.2437 -11.7496,43.5 2.72835,4.7504 4.91457,9.52678 6.42756,14.3374 1.19882,3.81378 1.85197,7.56379 1.85197,11.2406 0,36.3614 -45.9095,72.0957 -120.171,100.537 -83.6764,32.0457 -200.023,51.8244 -329.207,51.8244 -42.189,0 -82.5343,-2.03977 -120.392,-5.85945 -12.0732,-1.2189 -23.9929,-2.62559 -35.7343,-4.213 0.66378,3.69331 1.01457,7.4941 1.01457,11.3776 0,18.5162 -3.2752,35.824 -9.12875,51.9402z"/>
  <path class="fil2" d="M1120.55 1591.71c18.5587,2.67874 37.8118,4.95237 57.6957,6.80079 38.1083,3.54213 77.0375,5.39174 116.249,5.39174 136.934,0 261.401,-21.3886 351.943,-56.0363 99.7607,-38.1756 161.437,-94.5438 161.437,-160.178 0,-9.72166 -1.66772,-19.787 -4.73622,-29.8288 -3.03662,-9.94135 -7.30512,-19.4138 -12.5445,-28.0807 -9.11221,-15.1181 -28.7575,-19.9878 -43.8756,-10.8756 -15.1181,9.11221 -19.9878,28.7575 -10.8756,43.8756 2.83583,4.69252 4.98544,9.2882 6.29646,13.5815 1.12323,3.67441 1.73386,7.49292 1.73386,11.328 0,36.3095 -45.9154,72.0071 -120.186,100.428 -83.6729,32.0185 -200.013,51.7843 -329.192,51.7843 -38.967,0 -75.9296,-1.67835 -110.499,-4.89095 -15.5894,-1.44921 -30.9981,-3.23859 -46.187,-5.35276 -2.65512,22.4197 -8.60552,43.0701 -17.2583,62.0528z"/>
  <path class="fil1" d="M275.708 872.215c59.0528,-68.713 190.846,-121.993 398.042,-121.993 207.2,0 338.998,53.2796 398.051,121.994 26.3173,30.6236 39.1429,64.5981 38.7756,99.1973 -0.366142,34.4658 -13.8036,68.4107 -40.0111,99.1335 -60.6804,71.1378 -194.907,127.142 -396.815,127.142 -201.901,0 -336.127,-56.0044 -396.807,-127.143 -26.2075,-30.7229 -39.6437,-64.6678 -40.0099,-99.1335 -0.367323,-34.5992 12.4571,-68.5749 38.7744,-99.1973zm48.5008 41.4992c-15.9449,18.554 -23.7272,38.1166 -23.524,57.1973 0.204331,19.2095 8.5193,39.0969 24.7595,58.1351 49.9418,58.5485 166.924,104.641 348.306,104.641 181.388,0 298.373,-46.0926 348.314,-104.64 16.2402,-19.0382 24.5563,-38.9256 24.7606,-58.1351 0.20315,-19.0807 -7.58032,-38.6433 -23.5252,-57.1973 -120.887,-150.654 -589.173,-150.48 -699.091,-0.0011811z"/>
  <path class="fil2" d="M1086.55 1224.83c10.0099,-14.4969 6.37205,-34.3654 -8.12481,-44.3752 -14.4969,-10.0099 -34.3654,-6.37205 -44.3752,8.12481 -19.9571,29.0327 -65.5548,55.0335 -127.681,74.3127 -64.2556,19.9417 -144.801,31.7752 -232.619,31.7752 -87.7938,0 -168.344,-11.8358 -232.608,-31.7799 -62.1237,-19.2803 -107.73,-45.2776 -127.684,-74.3079 -10.0099,-14.4969 -29.8784,-18.1347 -44.3752,-8.12481 -14.4969,10.0099 -18.1347,29.8784 -8.12481,44.3752 28.1693,40.9796 85.7363,75.5634 161.433,99.0568 70.3359,21.828 157.445,34.7823 251.359,34.7823 93.939,0 181.043,-12.952 251.371,-34.7776 75.6993,-23.4921 133.259,-58.0808 161.43,-99.0615z"/>
  <path class="fil2" d="M304.126 1341.85c0,-17.6728 -14.328,-32.0008 -32.0008,-32.0008 -17.6728,0 -32.0008,14.328 -32.0008,32.0008 0,64.1941 52.1126,120.033 136.367,158.432 76.7493,34.9772 181.901,56.6067 297.26,56.6067 115.363,0 220.517,-21.6295 297.265,-56.6067 84.2564,-38.3965 136.369,-94.239 136.369,-158.432 0,-17.6728 -14.328,-32.0008 -32.0008,-32.0008 -17.6728,0 -32.0008,14.328 -32.0008,32.0008 0,36.9201 -37.7811,72.5953 -98.8666,100.433 -68.6103,31.2685 -164.288,50.6044 -270.766,50.6044 -106.474,0 -202.151,-19.337 -270.761,-50.6044 -61.0831,-27.8386 -98.8642,-63.5126 -98.8642,-100.433z"/>
  <path class="fil2" d="M304.126 1502.84c0,-17.6728 -14.328,-32.0008 -32.0008,-32.0008 -17.6728,0 -32.0008,14.328 -32.0008,32.0008 0,123.359 115.123,200.815 262.479,233.443 54.4536,12.0555 113.026,18.0862 171.151,18.0862 58.1256,0 116.698,-6.03071 171.151,-18.0862 147.356,-32.628 262.479,-110.084 262.479,-233.443 0,-17.6728 -14.328,-32.0008 -32.0008,-32.0008 -17.6728,0 -32.0008,14.328 -32.0008,32.0008 0,87.3863 -93.0839,144.81 -212.228,171.191 -49.1835,10.8886 -103.073,16.3358 -157.401,16.3358 -54.3296,0 -108.217,-5.44725 -157.401,-16.3358 -119.144,-26.3811 -212.228,-83.8052 -212.228,-171.191z"/>
  <path class="fil1" d="M559.965 923.611c2.8937,6.99922 7.69607,13.1197 14.2949,18.3236 6.69567,5.20158 14.5087,9.75119 23.6327,13.6465 9.02717,3.89646 18.6839,7.40434 28.9725,10.5213 10.1752,3.08032 20.3953,6.03308 30.4725,8.86536 10.174,2.82992 19.6016,5.76024 28.2981,8.83347 8.77914,3.03071 16.148,6.4689 22.2709,10.2295 6.03898,3.80197 10.1669,8.23465 12.2705,13.2567 1.62638,4.07717 1.57914,7.40434 -0.159449,9.94135 -1.73977,2.53701 -4.83071,4.40079 -9.35198,5.63386 -4.53662,1.19173 -10.2461,1.91221 -17.0788,2.03622 -6.79607,0.206693 -12.9496,-0.184252 -18.3591,-1.1752 -5.40827,-0.990946 -9.913,-2.66929 -13.6252,-5.07402 -3.71221,-2.40473 -6.37323,-5.62441 -8.01733,-9.74292l-5.42481 -13.591 -60.7512 1.47756 4.73504 11.8606c4.70197,11.778 14.3587,21.1902 28.8366,28.1563 14.5736,6.96378 33.763,11.1957 57.6414,12.6532l5.03032 12.6024 52.5709 -1.27913 -5.03032 -12.6012c22.0736,-2.57481 37.4492,-7.64764 46.3347,-15.1819 8.79095,-7.5319 10.9146,-17.2299 6.21378,-29.0079 -2.89134,-6.99922 -7.69607,-13.1197 -14.2949,-18.3236 -6.69567,-5.2004 -14.5075,-9.75119 -23.6327,-13.6453 -9.02717,-3.89764 -18.6839,-7.40552 -28.9713,-10.5224 -10.174,-3.08032 -20.4142,-6.07441 -30.4736,-8.86536 -10.1717,-2.82992 -19.6004,-5.76024 -28.2969,-8.83347 -8.78032,-3.02953 -16.148,-6.4689 -22.174,-10.2307 -6.13701,-3.80079 -10.265,-8.23347 -12.3673,-13.2543 -2.35276,-6.13937 -1.3689,-10.5709 3.11221,-13.3819 4.49764,-2.77087 11.8571,-4.2815 22.2095,-4.44922 10.2862,-0.334252 18.698,0.79252 25.3004,3.29292 6.61772,2.54173 11.0858,6.84095 13.6335,12.9756l2.86063 7.16457 60.7489 -1.47638 -2.17087 -5.43662c-4.70079,-11.778 -14.3398,-21.1488 -28.6878,-28.0347 -14.4461,-6.88465 -33.5185,-11.0776 -57.1063,-12.5421l-5.12953 -12.8492 -52.5709 1.27913 5.12953 12.8492c-21.6343,2.68819 -36.717,7.75276 -45.1347,15.2351 -8.52875,7.44213 -10.4114,17.0102 -5.76024,28.6642l0 0z"/>
  <path class="fil1" d="M1186.33 483.812c2.8937,6.99922 7.69607,13.1197 14.2949,18.3236 6.69567,5.20158 14.5087,9.75119 23.6327,13.6465 9.02717,3.89646 18.6839,7.40434 28.9725,10.5213 10.1752,3.08032 20.3953,6.03308 30.4725,8.86536 10.174,2.82992 19.6016,5.76024 28.2981,8.83347 8.77914,3.03071 16.148,6.4689 22.2709,10.2295 6.03898,3.80197 10.1669,8.23465 12.2705,13.2567 1.62638,4.07717 1.57914,7.40434 -0.159449,9.94135 -1.73977,2.53701 -4.83071,4.40079 -9.35198,5.63386 -4.53662,1.19173 -10.2461,1.91221 -17.0788,2.03622 -6.79607,0.206693 -12.9496,-0.184252 -18.3591,-1.1752 -5.40827,-0.990946 -9.913,-2.66929 -13.6252,-5.07402 -3.71221,-2.40473 -6.37323,-5.62441 -8.01733,-9.74292l-5.42481 -13.591 -60.7512 1.47756 4.73504 11.8606c4.70197,11.778 14.3587,21.1902 28.8366,28.1563 14.5736,6.96378 33.763,11.1957 57.6414,12.6532l5.03032 12.6024 52.5709 -1.27913 -5.03032 -12.6012c22.0736,-2.57481 37.4492,-7.64764 46.3347,-15.1819 8.79095,-7.5319 10.9146,-17.2299 6.21378,-29.0079 -2.89134,-6.99922 -7.69607,-13.1197 -14.2949,-18.3236 -6.69567,-5.2004 -14.5075,-9.75119 -23.6327,-13.6453 -9.02717,-3.89764 -18.6839,-7.40552 -28.9713,-10.5224 -10.174,-3.08032 -20.4142,-6.07441 -30.4736,-8.86536 -10.1717,-2.82992 -19.6004,-5.76024 -28.2969,-8.83347 -8.78032,-3.02953 -16.148,-6.4689 -22.174,-10.2307 -6.13701,-3.80079 -10.265,-8.23347 -12.3673,-13.2543 -2.35276,-6.13937 -1.3689,-10.5709 3.11221,-13.3819 4.49764,-2.77087 11.8571,-4.2815 22.2095,-4.44922 10.2862,-0.334252 18.698,0.79252 25.3004,3.29292 6.61772,2.54173 11.0858,6.84095 13.6335,12.9756l2.86063 7.16457 60.7489 -1.47638 -2.17087 -5.43662c-4.70079,-11.778 -14.3398,-21.1488 -28.6878,-28.0347 -14.4461,-6.88465 -33.5185,-11.0776 -57.1063,-12.5421l-5.12953 -12.8492 -52.5709 1.27913 5.12953 12.8492c-21.6343,2.68819 -36.717,7.75276 -45.1347,15.2351 -8.52875,7.44213 -10.4114,17.0102 -5.76024,28.6642l0 0z"/>
 </g>
</svg>
