<?xml version="1.0" encoding="UTF-8"?>
<!DOCTYPE svg PUBLIC "-//W3C//DTD SVG 1.1//EN" "http://www.w3.org/Graphics/SVG/1.1/DTD/svg11.dtd">
<!-- Creator: CorelDRAW -->
<svg xmlns="http://www.w3.org/2000/svg" xml:space="preserve" width="2048px" height="2048px" style="shape-rendering:geometricPrecision; text-rendering:geometricPrecision; image-rendering:optimizeQuality; fill-rule:evenodd; clip-rule:evenodd"
viewBox="0 0 2048 2048"
 xmlns:xlink="http://www.w3.org/1999/xlink">
 <defs>
  <style type="text/css">
   <![CDATA[
    .fil0 {fill:none}
    .fil2 {fill:#212121;fill-rule:nonzero}
    .fil1 {fill:#f51d05;fill-rule:nonzero}
   ]]>
  </style>
 </defs>
 <g id="Layer_x0020_1">
  <metadata id="CorelCorpID_0Corel-Layer"/>
  <rect class="fil0" width="2048" height="2048"/>
  <rect class="fil0" x="255.999" y="255.999" width="1536" height="1536"/>
  <path class="fil1" d="M1023.68 771.226c-69.815,0 -133.024,28.3051 -178.777,74.0611 -45.7548,45.7583 -74.0575,108.974 -74.0575,178.792 0,69.8268 28.2614,132.998 73.9465,178.658 45.75,45.7229 108.995,74.0174 178.888,74.0174 69.7418,0 132.917,-28.3016 178.652,-74.0351 45.737,-45.7347 74.0398,-108.905 74.0398,-178.641 0,-69.9178 -28.2744,-133.185 -74.0032,-178.94 -45.639,-45.665 -108.801,-73.9134 -178.689,-73.9134zm-224.027 28.8107c57.3367,-57.3402 136.545,-92.8123 224.027,-92.8123 87.3981,0 166.567,35.5099 223.94,92.915 57.3166,57.3497 92.7544,136.534 92.7544,223.94 0,87.4028 -35.4709,166.573 -92.791,223.891 -57.3201,57.3178 -136.495,92.7863 -223.903,92.7863 -87.3863,0 -166.547,-35.4614 -223.888,-92.7686 -57.4252,-57.3934 -92.9481,-136.578 -92.9481,-223.909 0,-87.482 35.4685,-166.699 92.8087,-224.042z"/>
  <path class="fil1" d="M1003.72 1116.82l0 -78.0272c-24.3555,-6.99567 -42.2244,-17.4874 -53.6079,-31.6051 -11.3185,-14.1177 -17.0421,-31.2236 -17.0421,-51.3189 0,-20.3492 6.42284,-37.4551 19.2685,-51.3189 12.9083,-13.8626 30.0154,-21.8114 51.3815,-23.974l0 -18.4417 26.9634 0 0 18.4417c19.7776,2.41654 35.4839,9.09331 47.1851,20.2229 11.6374,11.1284 19.0784,26.0091 22.3205,44.641l-47.1213 6.1689c-2.86181,-14.6906 -10.3016,-24.6106 -22.3843,-29.8252l0 72.8127c29.8252,8.07638 50.1744,18.5693 60.9213,31.415 10.8106,12.8457 16.2154,29.3162 16.2154,49.4741 0,22.448 -6.80434,41.3989 -20.3492,56.7874 -13.6087,15.4536 -32.5583,24.8646 -56.7874,28.363l0 34.8485 -26.9634 0 0 -33.9591c-21.4937,-2.60669 -38.9811,-10.6193 -52.3996,-24.0378 -13.4173,-13.3536 -21.939,-32.3044 -25.6914,-56.7874l48.6485 -5.21457c1.97126,9.92009 5.72363,18.5055 11.1921,25.6914 5.40473,7.18583 11.5099,12.4004 18.2504,15.6437zm0 -195.608c-7.37599,2.47914 -13.1634,6.74056 -17.5512,12.6543 -4.32402,5.97756 -6.48662,12.5917 -6.48662,19.7776 0,6.54922 1.97244,12.7181 5.91497,18.3142 4.0063,5.65985 10.0476,10.2378 18.1228,13.7362l0 -64.4823zm26.9634 198.216c9.34843,-1.71732 16.9158,-6.04134 22.7658,-12.9095 5.85119,-6.9319 8.7756,-15.0083 8.7756,-24.3555 0,-8.3315 -2.48032,-15.4536 -7.37599,-21.4949 -4.89685,-6.04134 -12.9732,-10.6831 -24.1654,-13.8626l0 72.6225z"/>
  <polygon class="fil1" points="1767.75,1268.75 1575.75,1045.12 1557.76,1024.16 1575.88,1003.37 1767.88,783.032 1816.13,825.033 1642.24,1024.58 1816.25,1227.25 "/>
  <polygon class="fil1" points="231.75,1227.25 405.757,1024.58 231.875,825.033 280.126,783.032 472.126,1003.37 490.245,1024.16 472.251,1045.12 280.251,1268.75 "/>
  <path class="fil2" d="M255.999 544.735l1536 0 32.0008 0 0 32.0008 0 895.264 0 32.0008 -32.0008 0 -1536 0 -32.0008 0 0 -32.0008 0 -895.264 0 -32.0008 32.0008 0zm1504 64.0016l-1472 0 0 831.263 1472 0 0 -831.263z"/>
 </g>
</svg>
