<?xml version="1.0" encoding="UTF-8"?>
<!DOCTYPE svg PUBLIC "-//W3C//DTD SVG 1.1//EN" "http://www.w3.org/Graphics/SVG/1.1/DTD/svg11.dtd">
<!-- Creator: CorelDRAW -->
<svg xmlns="http://www.w3.org/2000/svg" xml:space="preserve" width="2048px" height="2048px" style="shape-rendering:geometricPrecision; text-rendering:geometricPrecision; image-rendering:optimizeQuality; fill-rule:evenodd; clip-rule:evenodd"
viewBox="0 0 2048 2048"
 xmlns:xlink="http://www.w3.org/1999/xlink">
 <defs>
  <style type="text/css">
   <![CDATA[
    .fil0 {fill:none}
    .fil2 {fill:#f51d05}
    .fil1 {fill:#231F20;fill-rule:nonzero}
    .fil3 {fill:#f51d05;fill-rule:nonzero}
   ]]>
  </style>
 </defs>
 <g id="Layer_x0020_1">
  <metadata id="CorelCorpID_0Corel-Layer"/>
  <rect class="fil0" width="2048" height="2048"/>
  <rect class="fil0" x="255.999" y="255.999" width="1536" height="1536"/>
  <path class="fil1" d="M1363.45 1024l349.957 0c-19.4315,-69.7146 -54.4536,-117.932 -95.5087,-144.671 -25.1811,-16.4008 -52.5981,-24.6508 -79.8036,-24.6921 -27.2339,-0.0413386 -54.6367,8.11182 -79.7587,24.5114 -40.7327,26.5902 -75.4867,74.7225 -94.8863,144.852zm389.885 64.0016l-429.77 0 -38.1201 0 6.74528 -37.6264c19.6689,-109.723 69.978,-184.632 131.397,-224.726 35.6327,-23.2618 74.9859,-34.8248 114.509,-34.7634 39.5516,0.0614174 78.919,11.7354 114.554,34.9441 61.8296,40.2685 112.482,115.389 132.06,224.545l6.74764 37.6264 -38.1225 0z"/>
  <path class="fil1" d="M1662.76 640.56c0,38.4366 -15.6732,73.3146 -41.0032,98.6316 -25.2614,25.2508 -60.1134,40.8685 -98.5465,40.8685 -38.5205,0 -73.3938,-15.6154 -98.6351,-40.8579 -25.2437,-25.2461 -40.8567,-60.1229 -40.8567,-98.6422 0,-38.5193 15.613,-73.3973 40.8555,-98.641 25.2414,-25.2449 60.1158,-40.8579 98.6363,-40.8579 38.4319,0 73.2827,15.6189 98.5442,40.8685 25.3299,25.3181 41.0055,60.1961 41.0055,98.6304zm-86.0032 53.3811c13.591,-13.5839 22.0016,-32.4508 22.0016,-53.3811 0,-20.9268 -8.41182,-39.7949 -22.004,-53.38 -13.6713,-13.6642 -32.6044,-22.1173 -53.5441,-22.1173 -20.8536,0 -39.7288,8.44843 -53.3859,22.1067 -13.6559,13.6571 -22.1043,32.5359 -22.1043,53.3906 0,20.8547 8.44843,39.7335 22.1055,53.3918 13.6559,13.6571 32.5311,22.1067 53.3847,22.1067 20.9421,0 39.8764,-8.45198 53.5465,-22.1173z"/>
  <path class="fil2" d="M1515.98 1753.85c-1.17992,0.686221 -2.52756,1.20591 -3.85512,1.20591 -0.068504,0 -0.146457,0 -0.214961,0l-974.87 0c-1.25906,0 -2.50866,-0.519685 -3.64134,-1.20591 -3.85394,0 -7.27087,3.21142 -8.88072,8.13308 -1.74803,5.53819 -1.40551,11.6658 0.839764,16.9099 4.1374,9.03072 10.911,24.3284 165.649,35.3918 87.4111,6.3378 203.938,9.71812 328.174,9.71812 111.461,0 477.192,-3.09921 502.957,-43.5118 2.50866,-3.91181 3.70985,-8.86064 3.42756,-13.8662 -0.411024,-7.25079 -4.54843,-12.678 -9.58583,-12.7748z"/>
  <path class="fil3" d="M1446.8 1180.26l-844.522 0c-1.8,0 -3.44055,0.739371 -4.63229,1.92992 -1.19055,1.19173 -1.92992,2.8311 -1.92992,4.63229l0 445.187c0,1.84016 0.694489,3.45473 1.81417,4.57205 1.1811,1.17874 2.86063,1.91221 4.74804,1.91221l844.453 0c1.8874,0 3.56693,-0.733465 4.74804,-1.91221 1.11969,-1.11732 1.81417,-2.73189 1.81417,-4.57205l0 -445.187c0,-1.88858 -0.733465,-3.56575 -1.91457,-4.74922 -1.11614,-1.1185 -2.73425,-1.81299 -4.57914,-1.81299zm-844.522 -64.0016l844.522 0c19.3618,0 36.9992,7.96064 49.8296,20.8146 12.7571,12.7784 20.6658,30.378 20.6658,49.7493l0 445.187c0,19.3571 -7.963,36.9957 -20.8158,49.8225 -12.7784,12.7524 -30.3768,20.6634 -49.7481,20.6634l-844.453 0c-19.3713,0 -36.9697,-7.91103 -49.7481,-20.6634 -12.8528,-12.8268 -20.8158,-30.4654 -20.8158,-49.8225l0 -445.187c0,-19.4646 7.91103,-37.1103 20.6811,-49.8827 12.7713,-12.7701 30.4146,-20.6811 49.8827,-20.6811z"/>
  <path class="fil1" d="M357.792 1024l349.957 0c-19.4315,-69.7146 -54.4536,-117.932 -95.5087,-144.671 -25.1811,-16.4008 -52.5981,-24.6508 -79.8036,-24.6921 -27.2339,-0.0413386 -54.6355,8.11064 -79.7587,24.5114 -40.7327,26.5902 -75.4867,74.7225 -94.8863,144.852zm389.885 64.0016l-429.77 0 -38.1189 0 6.7441 -37.6264c19.6689,-109.723 69.978,-184.632 131.397,-224.726 35.6327,-23.2618 74.9859,-34.8248 114.509,-34.7634 39.5516,0.0614174 78.919,11.7354 114.554,34.9441 61.8296,40.2685 112.482,115.389 132.06,224.545l6.74882 37.6264 -38.1237 0z"/>
  <path class="fil1" d="M657.107 640.56c0,38.4366 -15.6732,73.3146 -41.0032,98.6316 -25.2614,25.2508 -60.1134,40.8685 -98.5465,40.8685 -38.5205,0 -73.3938,-15.6154 -98.6351,-40.8579 -25.2437,-25.2461 -40.8567,-60.1229 -40.8567,-98.6422 0,-38.5193 15.613,-73.3973 40.8555,-98.641 25.2414,-25.2449 60.1158,-40.8579 98.6363,-40.8579 38.4319,0 73.2827,15.6189 98.5442,40.8685 25.3299,25.3181 41.0055,60.1961 41.0055,98.6304zm-86.0032 53.3811c13.591,-13.5839 22.0016,-32.4508 22.0016,-53.3811 0,-20.9268 -8.41182,-39.7949 -22.004,-53.38 -13.6713,-13.6642 -32.6032,-22.1173 -53.5441,-22.1173 -20.8536,0 -39.7288,8.44843 -53.3859,22.1067 -13.6559,13.6571 -22.1043,32.5359 -22.1043,53.3906 0,20.8547 8.44843,39.7335 22.1055,53.3918 13.6559,13.6571 32.5311,22.1067 53.3847,22.1067 20.9433,0 39.8764,-8.45198 53.5465,-22.1173z"/>
  <path class="fil1" d="M873.357 767.998l363.304 0c-19.6441,-63.052 -54.1252,-107.278 -94.6276,-132.672 -27.2799,-17.1036 -57.3674,-25.7091 -87.3591,-25.7528 -29.9374,-0.0437008 -59.9646,8.46142 -87.1867,25.5732 -40.252,25.3016 -74.517,69.4666 -94.1304,132.852zm404.216 64.0016l-445.085 0 -38.7768 0 7.40197 -38.0008c20.0705,-103.038 70.5213,-173.972 132.375,-212.853 37.604,-23.6374 79.3465,-35.3859 121.186,-35.3244 41.7851,0.0614174 83.5005,11.9232 121.11,35.504 62.354,39.0945 113.197,110.221 133.163,212.673l7.40552 38.0008 -38.7803 0z"/>
  <path class="fil1" d="M1179.35 395.498c0,38.4366 -15.6732,73.3123 -41.0032,98.6316 -25.2614,25.2496 -60.1123,40.8674 -98.5454,40.8674 -38.5205,0 -73.3949,-15.6154 -98.6363,-40.8579 -25.2437,-25.2461 -40.8567,-60.1217 -40.8567,-98.641 0,-38.5217 15.613,-73.3961 40.8555,-98.6422 25.2437,-25.2449 60.117,-40.8579 98.6375,-40.8579 38.4319,0 73.2827,15.6189 98.5442,40.8685 25.3288,25.3193 41.0044,60.1973 41.0044,98.6316zm-86.0032 53.3811c13.591,-13.585 22.0016,-32.452 22.0016,-53.3811 0,-20.9268 -8.41182,-39.7949 -22.0028,-53.3811 -13.6713,-13.6642 -32.6044,-22.1173 -53.5441,-22.1173 -20.8547,0 -39.73,8.44843 -53.387,22.1067 -13.6571,13.6583 -22.1043,32.5359 -22.1043,53.3918 0,20.8547 8.44843,39.7323 22.1055,53.3906 13.6559,13.6571 32.5323,22.1067 53.3859,22.1067 20.941,0 39.8752,-8.45316 53.5453,-22.1162z"/>
  <polygon class="fil1" points="1023.03,993.278 1023.03,871.833 1087.03,871.833 1087.03,993.278 1208.48,993.278 1208.48,1057.28 901.585,1057.28 901.585,993.278 "/>
 </g>
</svg>
