<?xml version="1.0" encoding="UTF-8"?>
<!DOCTYPE svg PUBLIC "-//W3C//DTD SVG 1.1//EN" "http://www.w3.org/Graphics/SVG/1.1/DTD/svg11.dtd">
<!-- Creator: CorelDRAW -->
<svg xmlns="http://www.w3.org/2000/svg" xml:space="preserve" width="2048px" height="2048px" style="shape-rendering:geometricPrecision; text-rendering:geometricPrecision; image-rendering:optimizeQuality; fill-rule:evenodd; clip-rule:evenodd"
viewBox="0 0 2048 2048"
 xmlns:xlink="http://www.w3.org/1999/xlink">
 <defs>
  <style type="text/css">
   <![CDATA[
    .fil0 {fill:none}
    .fil1 {fill:#212121;fill-rule:nonzero}
    .fil2 {fill:#f51d05;fill-rule:nonzero}
   ]]>
  </style>
 </defs>
 <g id="Layer_x0020_1">
  <metadata id="CorelCorpID_0Corel-Layer"/>
  <rect class="fil0" width="2048" height="2048"/>
  <rect class="fil0" width="2048" height="2048"/>
  <rect class="fil0" x="255.999" y="255.999" width="1536" height="1536"/>
  <polygon class="fil1" points="1459.73,457.978 1317.43,459.284 1043.09,461.798 386.286,1118.6 906.935,1639.25 1563.74,982.448 1566.25,708.1 1567.52,569.393 1645.45,491.468 1643.45,708.707 1640.79,999.095 1629.59,1026.19 934.334,1721.45 906.935,1748.85 879.536,1721.45 304.087,1146 276.688,1118.6 304.087,1091.2 999.342,395.944 1026.44,384.742 1316.83,382.08 1537.66,380.052 "/>
  <polygon class="fil2" points="1771.31,310.799 1387.36,694.751 1332.56,639.951 1716.51,255.999 "/>
  <path class="fil2" d="M1359.08 666.459c-11.3469,-11.3469 -26.2264,-17.0209 -41.1071,-17.0209 -14.8795,0 -29.7579,5.67402 -41.1048,17.0209l-0.0011811 0.0011811c-11.3457,11.3469 -17.0209,26.2252 -17.0209,41.1048 0,14.8807 5.6752,29.7567 17.0209,41.1036l0.0011811 0.00236221 0.0011811 0.0011811c11.3469,11.3469 26.2252,17.0209 41.1036,17.0209 14.8807,0 29.7591,-5.6752 41.1059,-17.0209l0.0011811 -0.0011811c11.3469,-11.3469 17.0209,-26.2252 17.0209,-41.1059 0,-14.8795 -5.67402,-29.7591 -17.0209,-41.1059zm-41.1071 -94.5284c34.7091,0 69.4205,13.2437 95.9068,39.7288 26.4851,26.4862 39.7288,61.1977 39.7288,95.9056 0,34.7055 -13.2437,69.4193 -39.7288,95.9044l-0.00236221 0.0011811c-26.4851,26.4851 -61.1977,39.73 -95.9044,39.73 -34.7067,0 -69.4182,-13.2449 -95.902,-39.73l-0.0011811 -0.0011811 -0.00236221 -0.0011811c-26.4851,-26.4874 -39.7288,-61.1977 -39.7288,-95.9032 0,-34.7055 13.2449,-69.4182 39.7288,-95.9044l0.00236221 -0.0011811c26.4851,-26.4851 61.1977,-39.7288 95.9032,-39.7288z"/>
  <path class="fil1" d="M834.826 1388.09l48.7737 -48.4276c15.3697,-15.3543 22.7351,-30.9236 22.1858,-46.8 -0.595276,-15.8303 -8.7319,-31.5933 -24.365,-47.3374l-98.5253 -99.2292c-15.6319,-15.7441 -31.337,-23.9941 -47.1638,-24.7016 -15.8717,-0.661418 -31.4929,6.59174 -46.9559,21.8528l-48.7737 48.4276 194.824 196.216zm-118.779 -216.056c3.22323,-3.2941 6.62835,-5.46969 10.2638,-6.57402 3.58819,-1.05827 7.35827,-0.811418 11.4036,0.739371 3.99803,1.59567 8.31733,4.63819 12.9555,9.30946l101.308 102.032c4.63937,4.67126 7.65001,9.01182 9.21733,13.0217 1.52244,4.05591 1.74213,7.82717 0.659056,11.4083 -1.13032,3.62717 -3.33071,7.01693 -6.64725,10.2177l-17.3788 17.2559 -139.16 -140.154 17.3788 -17.2559zm96.9875 -96.2989l53.2583 -52.8804 -27.8327 -28.0311 -84.0934 83.4957 194.825 196.216 84.0922 -83.4957 -27.8315 -28.0299 -53.2583 52.8804 -57.0556 -57.463 42.326 -42.0272 -27.8327 -28.0311 -42.326 42.026 -54.2717 -54.6591zm112.88 -167.747l-45.1288 44.8087 163.43 227.388 28.311 -28.1103 -30.0213 -40.8863 37.8414 -37.5733 40.6737 30.3095 31.1138 -30.8929 -226.22 -165.044zm10.4055 58.6937l113.381 84.4784 -29.7118 29.5016 -83.6694 -113.98zm230.111 92.1556l81.5694 -80.9918 -27.8315 -28.0299 -50.7355 50.3752 -166.994 -168.186 -30.8339 30.6154 194.825 196.217z"/>
  <path class="fil1" d="M1371.4 1073.86l-45.2552 -45.2552 45.254 -45.2552 45.2552 45.2552 -45.254 45.2552zm-452.552 452.552l-45.2552 -45.2552 45.2552 -45.2552 45.2552 45.2552 -45.2552 45.2552zm90.5103 -90.5103l-45.2552 -45.2552 45.2552 -45.2552 45.2552 45.2552 -45.2552 45.2552zm90.5103 -90.5103l-45.2552 -45.2552 45.2552 -45.2552 45.2552 45.2552 -45.2552 45.2552zm90.5103 -90.5103l-45.2552 -45.2552 45.2552 -45.2552 45.2552 45.2552 -45.2552 45.2552zm90.5103 -90.5103l-45.2552 -45.2552 45.2552 -45.2552 45.2552 45.2552 -45.2552 45.2552z"/>
  <path class="fil1" d="M1008.53 711.803l-45.2552 -45.2552 45.254 -45.2552 45.2552 45.2552 -45.254 45.2552zm-452.552 452.552l-45.2552 -45.2552 45.2552 -45.2552 45.2552 45.2552 -45.2552 45.2552zm90.5103 -90.5103l-45.2552 -45.2552 45.2552 -45.2552 45.2552 45.2552 -45.2552 45.2552zm90.5103 -90.5103l-45.2552 -45.2552 45.2552 -45.2552 45.2552 45.2552 -45.2552 45.2552zm90.5103 -90.5103l-45.2552 -45.2552 45.2552 -45.2552 45.2552 45.2552 -45.2552 45.2552zm90.5103 -90.5103l-45.2552 -45.2552 45.2552 -45.2552 45.2552 45.2552 -45.2552 45.2552z"/>
 </g>
</svg>
