<?xml version="1.0" encoding="UTF-8"?>
<!DOCTYPE svg PUBLIC "-//W3C//DTD SVG 1.1//EN" "http://www.w3.org/Graphics/SVG/1.1/DTD/svg11.dtd">
<!-- Creator: CorelDRAW -->
<svg xmlns="http://www.w3.org/2000/svg" xml:space="preserve" width="2048px" height="2048px" style="shape-rendering:geometricPrecision; text-rendering:geometricPrecision; image-rendering:optimizeQuality; fill-rule:evenodd; clip-rule:evenodd"
viewBox="0 0 2048 2048"
 xmlns:xlink="http://www.w3.org/1999/xlink">
 <defs>
  <style type="text/css">
   <![CDATA[
    .fil0 {fill:none}
    .fil2 {fill:#212121;fill-rule:nonzero}
    .fil1 {fill:#f51d05;fill-rule:nonzero}
   ]]>
  </style>
 </defs>
 <g id="Layer_x0020_1">
  <metadata id="CorelCorpID_0Corel-Layer"/>
  <rect class="fil0" width="2048" height="2048"/>
  <rect class="fil0" x="255.999" y="255.999" width="1536" height="1536"/>
  <path class="fil1" d="M544.009 896l-63.9922 0 0 543.998 1087.96 0 0 -543.998 -1023.97 0zm-95.993 -64.0016l95.993 0 1055.97 0 32.0008 0 0 32.0008 0 608 0 32.0008 -32.0008 0 -1151.96 0 -32.0008 0 0 -32.0008 0 -608 0 -32.0008 32.0008 0z"/>
  <path class="fil1" d="M576.002 1088l351.999 0 0 416.001 -351.999 0 0 -416.001zm64.0028 64.0004l0 287.998 223.996 0 0 -287.998 -223.996 0z"/>
  <path class="fil2" d="M1791.98 1792l-1535.95 0 -32.0008 0 0 -34.4611c0,-52.3252 19.7067,-99.7087 51.5552,-134.012 31.852,-34.304 75.8516,-55.5272 124.432,-55.5272l1247.97 0c48.58,0 92.5796,21.2232 124.432,55.5272 31.8484,34.3028 51.5552,81.6863 51.5552,134.012l0 34.4611 -32.0008 0zm-1499.31 -68.9233l1462.66 0c-5.37638,-19.4492 -15.1854,-36.8422 -28.1634,-50.8193 -20.2677,-21.8292 -48.2681,-35.3339 -79.1812,-35.3339l-1247.97 0c-30.913,0 -58.9134,13.5047 -79.1812,35.3339 -12.978,13.9772 -22.787,31.3701 -28.1634,50.8193z"/>
  <path class="fil2" d="M351.926 736.927c10.7232,0 21.189,-2.56181 30.4028,-7.48819 8.90316,-4.76103 16.8449,-11.778 22.9642,-20.8784l-0.0295276 -0.0188977 20.6221 -30.9366 40.2874 -60.4371 17.3386 70.4375c3.5752,14.5276 11.6221,27.202 22.6406,36.0768 10.2756,8.27599 23.3209,13.2449 37.8567,13.2449 17.6988,0 33.7028,-7.15512 45.2741,-18.7264 11.5736,-11.5736 18.7276,-27.5788 18.7276,-45.2752l64.0016 0c0,17.7 7.15276,33.704 18.7252,45.2764 11.5713,11.5713 27.5764,18.7252 45.2764,18.7252 17.6941,0 33.6957,-7.15394 45.267,-18.7276 11.5724,-11.5724 18.7252,-27.5776 18.7252,-45.2741l64.0016 0c0,17.7012 7.15276,33.7063 18.724,45.2776 11.5713,11.5713 27.5752,18.724 45.2776,18.724 17.6929,0 33.6922,-7.15512 45.2611,-18.7264 11.5713,-11.5724 18.7228,-27.5776 18.7228,-45.2752l64.0016 0c0,17.6965 7.15512,33.6992 18.7276,45.2717 11.5736,11.5748 27.5788,18.7299 45.2729,18.7299 17.6965,0 33.6992,-7.15512 45.2729,-18.7288 11.5736,-11.5736 18.7288,-27.5776 18.7288,-45.2729l64.0016 0c0,17.7 7.15276,33.7028 18.724,45.2752 11.5713,11.5724 27.5729,18.7264 45.2693,18.7264 17.6953,0 33.6981,-7.15512 45.2717,-18.7288 11.5736,-11.5736 18.7288,-27.5776 18.7288,-45.2729l64.0016 0c0,17.7 7.15276,33.7028 18.724,45.2752 11.5713,11.5724 27.5729,18.7264 45.2693,18.7264 14.5701,0 27.613,-4.96181 37.8733,-13.226 11.0138,-8.87127 19.0465,-21.5516 22.6229,-36.0957l17.3102 -70.389 40.1906 60.2646 20.6315 30.9366 0.125197 0.124016c6.05788,9.10631 13.9795,16.1244 22.8721,20.8795 9.23505,4.93819 19.7303,7.50591 30.4654,7.50591 6.45119,0 12.6697,-0.861024 18.4335,-2.60906 5.74371,-1.74095 11.4697,-4.42559 17.0091,-8.08465l-0.0377953 -0.056693 0.0637796 -0.0425197 0.0377953 0.056693 0.022441 -0.0141732 0.0188977 0.0283465c14.6232,-9.80079 23.9232,-24.6449 27.1382,-40.7363 3.20315,-16.0276 0.387402,-33.1796 -9.18898,-47.7024l-0.207874 -0.27874 -0.100394 0 -0.0425197 -0.0637796 0.0625985 -0.0425197 -165.161 -220.454 -368.129 0 -383.991 0 -368.137 0 -165.451 220.83c-9.56457,14.5158 -12.3626,31.6618 -9.15709,47.687 3.22087,16.1008 12.5221,30.9567 27.1169,40.7611l0.0188977 -0.0283465c5.53701,3.6874 11.2772,6.38741 17.0315,8.13308 5.7815,1.75394 12.0295,2.61732 18.4973,2.61732zm60.4028 48.763c-18.7524,10.0264 -39.5398,15.2386 -60.4028,15.2386 -12.1075,0 -24.5823,-1.85315 -36.9981,-5.61969 -11.8654,-3.59882 -23.2677,-8.87953 -33.7819,-15.8811l-0.124016 -0.125197c-29.4059,-19.6394 -48.0969,-49.3004 -54.5103,-81.3579 -6.4063,-32.0221 -0.549213,-66.5623 19.1244,-96.0202l1.00039 -1.37599 175.879 -234.748 9.64725 -12.8752 15.8528 0 383.991 0 383.991 0 383.983 0 15.8539 0 9.64607 12.8752 175.87 234.748 1.12559 1.37599 0.0425197 0.0637796 -0.0874016 0.0578741c19.6134,29.4414 25.4752,63.939 19.0831,95.9233 -6.39922,32.0173 -25.0583,61.643 -54.4678,81.2906l0 0.125197 -0.0637796 0.0425197 -0.124016 0c-10.5898,7.01457 -21.9992,12.2965 -33.8457,15.8894 -12.3969,3.76063 -24.8362,5.61142 -36.9343,5.61142 -20.8677,0 -41.6953,-5.2193 -60.4654,-15.2563 -13.5898,-7.26615 -25.9961,-17.0303 -36.4406,-29.1295 -5.22638,6.17245 -11.0197,11.8406 -17.3126,16.9087 -21.3177,17.1697 -48.1536,27.4772 -77.8725,27.4772 -35.3622,0 -67.3607,-14.3162 -90.5198,-37.4776 -1.88622,-1.88622 -3.71103,-3.8315 -5.47678,-5.83229 -1.76457,1.99961 -3.59174,3.94488 -5.47678,5.82993 -23.1614,23.1614 -55.1611,37.48 -90.5221,37.48 -35.3622,0 -67.3607,-14.3162 -90.5198,-37.4776 -1.88622,-1.88622 -3.71103,-3.8315 -5.47678,-5.83229 -1.76457,1.99961 -3.59174,3.94488 -5.47678,5.82993 -23.1614,23.1614 -55.1611,37.48 -90.5233,37.48 -35.3587,0 -67.3619,-14.3173 -90.5233,-37.4811 -1.88504,-1.88504 -3.70985,-3.82796 -5.47441,-5.82756 -1.76575,2.00079 -3.59055,3.94488 -5.47678,5.83111 -23.1555,23.1603 -55.1493,37.4776 -90.5115,37.4776 -35.3693,0 -67.3678,-14.315 -90.528,-37.4752 -1.88504,-1.88504 -3.71221,-3.83032 -5.47678,-5.82993 -1.76457,1.99843 -3.58937,3.94252 -5.47323,5.82638 -23.1591,23.1614 -55.1552,37.4788 -90.5174,37.4788 -35.3658,0 -67.3666,-14.3162 -90.5268,-37.4764 -1.88504,-1.88622 -3.71103,-3.8315 -5.47678,-5.83111 -1.76457,1.99961 -3.59174,3.94488 -5.47678,5.82993 -23.1603,23.1603 -55.1599,37.4776 -90.5245,37.4776 -29.6788,0 -56.5241,-10.3158 -77.856,-27.4961 -6.3,-5.0752 -12.1028,-10.7504 -17.3374,-16.9335 -10.4717,12.137 -22.8874,21.9189 -36.4866,29.191z"/>
 </g>
</svg>
