<?xml version="1.0" encoding="UTF-8"?>
<!DOCTYPE svg PUBLIC "-//W3C//DTD SVG 1.1//EN" "http://www.w3.org/Graphics/SVG/1.1/DTD/svg11.dtd">
<!-- Creator: CorelDRAW -->
<svg xmlns="http://www.w3.org/2000/svg" xml:space="preserve" width="2048px" height="2048px" style="shape-rendering:geometricPrecision; text-rendering:geometricPrecision; image-rendering:optimizeQuality; fill-rule:evenodd; clip-rule:evenodd"
viewBox="0 0 2048 2048"
 xmlns:xlink="http://www.w3.org/1999/xlink">
 <defs>
  <style type="text/css">
   <![CDATA[
    .fil0 {fill:none}
    .fil1 {fill:#212121;fill-rule:nonzero}
    .fil2 {fill:#f51d05;fill-rule:nonzero}
   ]]>
  </style>
 </defs>
 <g id="Layer_x0020_1">
  <metadata id="CorelCorpID_0Corel-Layer"/>
  <rect class="fil0" width="2048" height="2048"/>
  <rect class="fil0" x="255.999" y="255.999" width="1536" height="1536"/>
  <polygon class="fil1" points="277.918,1416.16 522.867,1416.16 522.867,1480.16 277.918,1480.16 "/>
  <path class="fil1" d="M849.557 1536.62c0,41.2217 -16.7138,78.5469 -43.7303,105.563 -27.0166,27.0166 -64.3418,43.7303 -105.562,43.7303 -41.2217,0 -78.5469,-16.7138 -105.563,-43.7303 -27.0166,-27.0166 -43.7303,-64.3418 -43.7303,-105.563 0,-41.2229 16.7114,-78.5469 43.7303,-105.563 27.0166,-27.0166 64.3418,-43.7303 105.563,-43.7303 41.2217,0 78.5457,16.7138 105.562,43.7303 27.0189,27.0166 43.7303,64.3406 43.7303,105.563zm-88.9808 60.313c15.4311,-15.4311 24.9792,-36.7571 24.9792,-60.313 0,-23.5559 -9.54686,-44.8807 -24.9792,-60.313 -15.4311,-15.4311 -36.7559,-24.9792 -60.3119,-24.9792 -23.5559,0 -44.8819,9.54804 -60.313,24.9792 -15.4323,15.4323 -24.9792,36.7571 -24.9792,60.313 0,23.5559 9.54804,44.8819 24.9792,60.313 15.4311,15.4311 36.7571,24.9792 60.313,24.9792 23.5547,0 44.8807,-9.54804 60.3119,-24.9792z"/>
  <path class="fil1" d="M1236.41 1480.16l-357.313 0 0 -64.0016 357.313 0 0 64.0016zm-111.158 -142.332l0 -626.927c0,-20.9362 8.49095,-39.8965 22.2177,-53.6209 13.7244,-13.7268 32.6859,-22.2177 53.6209,-22.2177l206.913 0c34.4244,0 67.7469,8.55946 97.2875,24.2575 29.5099,15.6827 55.2473,38.5217 74.5394,67.0985l133.39 197.57c11.4425,16.9394 20.2937,35.6374 26.3504,55.4304 6.05079,19.7705 9.17599,40.1776 9.17599,60.5587l0 265.85 21.3378 0c14.8016,0 28.239,6.04016 37.9985,15.7961l0.125197 0.125197c9.75709,9.75946 15.7961,23.198 15.7961,37.9985l0 66.4938c0,14.8016 -6.04016,28.239 -15.7961,37.9985l-0.125197 0.125197c-9.75946,9.75591 -23.1969,15.7961 -37.9985,15.7961l-177.448 0 0 -64.0016 167.366 0 0 -46.33 -43.2567 0 -32.0008 0 0 -32.0008 0 -297.851c0,-14.5878 -2.10354,-28.7563 -6.17363,-42.0579 -4.06181,-13.2744 -10.226,-26.152 -18.352,-38.1815l-133.39 -197.57c-13.3075,-19.7114 -31.1044,-35.4898 -51.5386,-46.3489 -20.4047,-10.8425 -43.4504,-16.7551 -67.2875,-16.7551l-206.913 0c-3.26929,0 -6.23032,1.3252 -8.37048,3.46654 -2.14134,2.14016 -3.46654,5.10237 -3.46654,8.37048l0 626.927 -64.0016 0z"/>
  <path class="fil1" d="M1260.5 963.413l253.71 0 -92.4721 -131.413 -161.238 0 0 -64.0016 166.387 0c8.66221,0 17.1236,2.14606 24.724,6.08741 7.62284,3.95079 14.2866,9.68032 19.3323,16.8366l106.668 151.585c6.72756,9.56103 9.77717,20.2984 9.78308,30.9012 0.00236221,8.81457 -2.12362,17.328 -6.00119,24.8032 -3.97205,7.65119 -9.73111,14.3717 -16.8815,19.4043 -8.55473,6.02126 -19.0937,9.66851 -30.9473,9.67324l0 0.125197 -273.064 0 0 -64.0016z"/>
  <path class="fil2" d="M352.001 693.653l0 75.2646 255.999 0 0 -96.9178 -242.242 0c-2.84646,0 -5.72953,1.71378 -8.08583,4.47638 -3.50315,4.10788 -5.67166,10.1646 -5.67166,17.1768zm-64.0016 107.265l0 -107.265c0,-22.5508 8.09292,-43.3406 21.1725,-58.676 14.2016,-16.6536 34.1859,-26.9788 56.5867,-26.9788l274.243 0 32.0008 0 0 32.0008 0 160.919 0 32.0008 -32.0008 0 -320.001 0 -32.0008 0 0 -32.0008z"/>
  <path class="fil2" d="M928 543.998c0,-14.511 -4.32874,-27.1666 -13.4811,-35.3433 -8.99292,-8.03386 -23.5276,-12.9532 -44.4,-12.9532 -21.5575,0 -40.9855,5.27126 -58.0937,13.7776 -20.8843,10.3843 -38.6634,25.6465 -52.9004,42.2185l-18.789 21.8717 -23.5866 -16.3713c-4.71496,-3.27284 -9.6567,-5.88898 -14.7449,-7.58859 -4.10906,-1.37126 -8.59725,-2.13898 -13.4693,-2.13898 -4.52953,0 -8.79213,0.711024 -12.7677,2.00197 -4.68662,1.52008 -9.30237,3.8941 -13.7693,6.91536l-23.3244 15.7772 -18.5504 -21.2776c-14.2488,-16.3453 -32.0256,-31.4008 -52.8827,-41.6776 -16.9311,-8.34095 -36.1477,-13.5083 -57.4548,-13.5083 -20.9445,0 -35.4768,4.90512 -44.4437,12.9165 -9.1382,8.16379 -13.4315,20.837 -13.4315,35.3799l-64.0016 0c0,-32.139 11.1626,-61.6441 34.9323,-82.8792 20.4236,-18.2469 49.2154,-29.4189 86.9446,-29.4189 31.6252,0 60.3095,7.74922 85.7044,20.2595 20.8075,10.252 39.2268,23.7177 55.0973,38.68 1.78701,-0.683859 3.59764,-1.32402 5.42953,-1.91811 10.4315,-3.3874 21.3036,-5.25237 32.5181,-5.25237 11.6079,0 22.8839,2.02205 33.7205,5.63977 2.10236,0.702756 4.17638,1.46457 6.22205,2.28425 15.8894,-15.1276 34.3666,-28.7563 55.2981,-39.1642 25.4906,-12.6744 54.3756,-20.5288 86.3434,-20.5288 37.6453,0 66.4501,11.185 86.9009,29.4555 23.752,21.2185 34.9819,50.7107 34.9819,82.8426l-64.0016 0z"/>
  <path class="fil2" d="M352.001 863.999l0 375.141c0,6.0378 2.42953,11.4945 6.35434,15.4217 3.84331,3.84567 9.23741,6.2315 15.2634,6.2315l235.892 0 0 -396.794 64.0016 0 0 428.795 0 32.0008 -32.0008 0 -267.893 0c-23.5453,0 -44.9504,-9.65906 -60.5138,-25.2331 -15.5055,-15.515 -25.1055,-36.9 -25.1055,-60.4217l0 -375.141 64.0016 0z"/>
  <path class="fil2" d="M1024 693.653c0,-6.95788 -2.20866,-13.0099 -5.76733,-17.1567 -2.3811,-2.77441 -5.33504,-4.49646 -8.28662,-4.49646l-241.944 0 0 96.9178 255.998 0 0 -75.2646zm42.7335 -58.656c13.1256,15.2941 21.2681,36.0709 21.2681,58.656l0 107.265 0 32.0008 -32.0008 0 -320 0 -32.0008 0 0 -32.0008 0 -160.919 0 -32.0008 32.0008 0 273.945 0c22.4079,0 42.4843,10.3347 56.7874,26.9988z"/>
  <path class="fil2" d="M768.856 863.999l0 396.794 233.535 0c6.02599,0 11.4177,-2.38583 15.2587,-6.23032 3.92126,-3.92481 6.35079,-9.38268 6.35079,-15.4228l0 -375.141 64.0016 0 0 375.141c0,23.5193 -9.59883,44.9067 -25.102,60.4229 -15.5622,15.5752 -36.965,25.2319 -60.5091,25.2319l-265.536 0 -32.0008 0 0 -32.0008 0 -428.795 64.0016 0z"/>
  <path class="fil1" d="M1560.24 1536.62c0,41.2217 -16.7138,78.5469 -43.7303,105.563 -27.0166,27.0166 -64.3418,43.7303 -105.562,43.7303 -41.2217,0 -78.5469,-16.7138 -105.563,-43.7303 -27.0166,-27.0166 -43.7303,-64.3418 -43.7303,-105.563 0,-41.2217 16.7138,-78.5469 43.7303,-105.563 27.0166,-27.0166 64.3418,-43.7303 105.563,-43.7303 41.2217,0 78.5457,16.7138 105.562,43.7303 27.0189,27.0166 43.7303,64.3406 43.7303,105.563zm-88.9808 60.313c15.4311,-15.4311 24.9792,-36.7571 24.9792,-60.313 0,-23.5559 -9.54686,-44.8807 -24.9792,-60.313 -15.4311,-15.4311 -36.7559,-24.9792 -60.3119,-24.9792 -23.5559,0 -44.8819,9.54804 -60.313,24.9792 -15.4311,15.4311 -24.9792,36.7571 -24.9792,60.313 0,23.5559 9.54804,44.8819 24.9792,60.313 15.4311,15.4311 36.7571,24.9792 60.313,24.9792 23.5547,0 44.8807,-9.54804 60.3119,-24.9792z"/>
 </g>
</svg>
