<?xml version="1.0" encoding="UTF-8"?>
<!DOCTYPE svg PUBLIC "-//W3C//DTD SVG 1.1//EN" "http://www.w3.org/Graphics/SVG/1.1/DTD/svg11.dtd">
<!-- Creator: CorelDRAW -->
<svg xmlns="http://www.w3.org/2000/svg" xml:space="preserve" width="2048px" height="2048px" style="shape-rendering:geometricPrecision; text-rendering:geometricPrecision; image-rendering:optimizeQuality; fill-rule:evenodd; clip-rule:evenodd"
viewBox="0 0 2048 2048"
 xmlns:xlink="http://www.w3.org/1999/xlink">
 <defs>
  <style type="text/css">
   <![CDATA[
    .str0 {stroke:#373435;stroke-width:64.0004}
    .fil0 {fill:none}
    .fil1 {fill:#f51d05}
    .fil3 {fill:#212121;fill-rule:nonzero}
    .fil2 {fill:#f51d05;fill-rule:nonzero}
   ]]>
  </style>
 </defs>
 <g id="Layer_x0020_1">
  <metadata id="CorelCorpID_0Corel-Layer"/>
  <rect class="fil0" width="2048" height="2048"/>
  <rect class="fil0" x="255.999" y="255.999" width="1536" height="1536"/>
  <path class="fil1" d="M383.948 848.931l-45.815 0c6.50315,-22.0181 23.7709,-39.1571 45.815,-45.8244l0 45.8244z"/>
  <path class="fil1" d="M465.05 848.931l-12.8799 0 0 75.7146 -42.4536 0 0 -124.645 48.7028 0c30.9189,0 56.8146,20.6362 65.3339,48.9307l-58.7032 0z"/>
  <path class="fil1" d="M477.93 950.315l43.5803 0c-8.01142,18.6484 -24.0343,32.6811 -43.5803,38.5488l0 -38.5488z"/>
  <polygon class="fil1" points="409.716,950.315 452.17,950.315 452.17,991.998 409.716,991.998 "/>
  <path class="fil1" d="M383.948 988.863c-19.5473,-5.86772 -35.5595,-19.9004 -43.5709,-38.5488l43.5709 0 0 38.5488z"/>
  <path class="fil1" d="M526.987 923.529c0,0.381496 -0.090945,0.762993 -0.090945,1.11614l-48.9662 0 0 -50.0469 49.0571 0 0 48.9307z"/>
  <path class="fil1" d="M334.864 923.529l0 -48.9307 49.0843 0 0 50.0469 -48.9579 0c0,-0.35315 -0.126378,-0.734646 -0.126378,-1.11614z"/>
  <polygon class="fil2" points="1536,767.997 1120,767.997 1120,703.995 1536,703.995 "/>
  <path class="fil0 str0" d="M960.001 544l-110.001 0c-27.4996,0 -49.9996,-22.4988 -49.9996,-49.9996l0 -28.0004c0,-27.5008 22.4988,-49.9996 49.9996,-49.9996l110.001 0"/>
  <path class="fil3" d="M273.999 640l590.001 0 0 64.0016 -590.001 0c-4.91693,0 -9.41103,2.03504 -12.6874,5.31142 -3.27638,3.27638 -5.31142,7.77048 -5.31142,12.6874l0 668.001c0,4.91693 2.03504,9.41103 5.31142,12.6874 3.27638,3.27638 7.77048,5.31142 12.6874,5.31142l590.001 0 0 64.0016 -590.001 0c-22.5827,0 -43.0914,-9.21615 -57.9378,-24.0626 -14.8465,-14.8465 -24.0626,-35.3551 -24.0626,-57.9378l0 -668.001c0,-22.5827 9.21615,-43.0914 24.0626,-57.9378 14.8465,-14.8465 35.3551,-24.0626 57.9378,-24.0626z"/>
  <path class="fil3" d="M928.001 383.999l750.001 0c22.5827,0 43.0914,9.21615 57.9378,24.0626 14.8465,14.8465 24.0626,35.3551 24.0626,57.9378l0 1116c0,22.5827 -9.21615,43.0914 -24.0626,57.9378 -14.8465,14.8465 -35.3551,24.0626 -57.9378,24.0626l-700.001 0c-22.5827,0 -43.0914,-9.21615 -57.9378,-24.0626 -14.8465,-14.8465 -24.0626,-35.3551 -24.0626,-57.9378l0 -1166 0 -32.0008 32.0008 0zm750.001 64.0016l-718 0 0 1134c0,4.91693 2.03504,9.41103 5.31142,12.6874 3.27638,3.27638 7.77048,5.31142 12.6874,5.31142l700.001 0c4.91693,0 9.41103,-2.03504 12.6874,-5.31142 3.27638,-3.27638 5.31142,-7.77048 5.31142,-12.6874l0 -1116c0,-4.91693 -2.03504,-9.41103 -5.31142,-12.6874 -3.27638,-3.27638 -7.77048,-5.31142 -12.6874,-5.31142z"/>
  <polygon class="fil2" points="1536,992 1120,992 1120,927.999 1536,927.999 "/>
  <polygon class="fil2" points="1536,1216 1120,1216 1120,1152 1536,1152 "/>
  <polygon class="fil2" points="1440,1408 1216,1408 1216,1344 1440,1344 "/>
 </g>
</svg>
