<?xml version="1.0" encoding="UTF-8"?>
<!DOCTYPE svg PUBLIC "-//W3C//DTD SVG 1.1//EN" "http://www.w3.org/Graphics/SVG/1.1/DTD/svg11.dtd">
<!-- Creator: CorelDRAW -->
<svg xmlns="http://www.w3.org/2000/svg" xml:space="preserve" width="2048px" height="2048px" style="shape-rendering:geometricPrecision; text-rendering:geometricPrecision; image-rendering:optimizeQuality; fill-rule:evenodd; clip-rule:evenodd"
viewBox="0 0 2048 2048"
 xmlns:xlink="http://www.w3.org/1999/xlink">
 <defs>
  <style type="text/css">
   <![CDATA[
    .fil0 {fill:none}
    .fil1 {fill:#212121;fill-rule:nonzero}
    .fil2 {fill:#f51d05;fill-rule:nonzero}
   ]]>
  </style>
 </defs>
 <g id="Layer_x0020_1">
  <metadata id="CorelCorpID_0Corel-Layer"/>
  <rect class="fil0" x="255.999" y="255.999" width="1536" height="1536"/>
  <polygon class="fil1" points="1448.42,490.868 1306.12,492.174 1031.77,494.689 374.973,1151.49 895.622,1672.14 1552.42,1015.34 1554.94,740.99 1556.21,602.284 1634.14,524.358 1632.14,741.597 1629.48,1031.99 1618.28,1059.08 923.022,1754.34 895.622,1781.74 868.223,1754.34 292.774,1178.89 265.375,1151.49 292.774,1124.09 988.029,428.834 1015.13,417.632 1305.51,414.97 1526.35,412.942 "/>
  <polygon class="fil2" points="1760,343.689 1376.05,727.641 1321.25,672.841 1705.2,288.89 "/>
  <path class="fil2" d="M1347.76 699.349c-11.3469,-11.3469 -26.2264,-17.0209 -41.1071,-17.0209 -14.8795,0 -29.7579,5.67402 -41.1048,17.0209l-0.0011811 0.0011811c-11.3457,11.3469 -17.0209,26.2252 -17.0209,41.1048 0,14.8807 5.6752,29.7567 17.0209,41.1036l0.0011811 0.00236221 0.0011811 0.0011811c11.3469,11.3469 26.2252,17.0209 41.1036,17.0209 14.8807,0 29.7591,-5.6752 41.1059,-17.0209l0.0011811 -0.0011811c11.3469,-11.3469 17.0209,-26.2252 17.0209,-41.1059 0,-14.8795 -5.67402,-29.7591 -17.0209,-41.1059zm-41.1071 -94.5284c34.7091,0 69.4205,13.2437 95.9068,39.7288 26.4851,26.4862 39.7288,61.1977 39.7288,95.9056 0,34.7055 -13.2437,69.4193 -39.7288,95.9044l-0.00236221 0.0011811c-26.4851,26.4851 -61.1977,39.73 -95.9044,39.73 -34.7067,0 -69.4182,-13.2449 -95.902,-39.73l-0.0011811 -0.0011811 -0.00236221 -0.0011811c-26.4851,-26.4874 -39.7288,-61.1977 -39.7288,-95.9032 0,-34.7055 13.2449,-69.4182 39.7288,-95.9044l0.00236221 -0.0011811c26.4851,-26.4851 61.1977,-39.7288 95.9032,-39.7288z"/>
  <path class="fil1" d="M743.63 933.759c-7.44449,7.5319 -13.05,15.2398 -16.8614,23.0788 -3.76536,7.88386 -6.34961,15.8091 -7.61693,23.824 -1.31457,7.97008 -1.92638,15.9414 -1.79528,23.8666 0.0874016,7.88386 0.349607,15.6803 0.745276,23.2547 0.437008,7.62048 0.438189,14.9788 0,22.0725 -0.349607,7.09489 -1.7504,13.8378 -4.02874,20.2323 -2.31969,6.34961 -6.08623,12.2185 -11.4272,17.6492 -4.33583,4.33701 -8.45316,7.22599 -12.3071,8.62796 -3.85276,1.40197 -7.44449,1.57795 -10.8602,0.525591 -3.37323,-1.09488 -6.6567,-3.15236 -9.67914,-6.26103 -3.10984,-3.02244 -5.21103,-6.26221 -6.26339,-9.67914 -1.05118,-3.41575 -0.876379,-7.00749 0.525591,-10.8602 1.40197,-3.85394 4.24725,-7.92757 8.62678,-12.3071l13.1374 -13.1386 -27.3272 -27.326 -11.2996 11.3008c-9.85276,9.85158 -16.5532,19.7929 -20.1874,29.9114 -3.63307,10.115 -4.07126,20.1874 -1.31221,30.2162 2.80158,9.98505 8.93387,19.7079 18.3496,29.2099 9.50316,9.41576 19.2248,15.5457 29.2122,18.3484 10.0287,2.75906 20.1012,2.31969 30.2162,-1.31457 10.1161,-3.63544 20.0575,-10.3358 29.9103,-20.1898 7.44449,-7.53308 13.0512,-15.2398 16.8602,-23.0799 3.76536,-7.88268 6.34961,-15.8091 7.6193,-23.824 1.31339,-7.9689 1.92638,-15.9402 1.7941,-23.8677 -0.0874016,-7.8815 -0.350788,-15.678 -0.745276,-23.2547 -0.438189,-7.6193 -0.43937,-14.9764 0,-22.0725 0.349607,-7.09371 1.75158,-13.8378 4.02756,-20.2311 2.32087,-6.35079 6.13111,-12.2622 11.4307,-17.6504 6.56812,-6.48071 12.4358,-9.89646 17.7791,-10.2484 5.30079,-0.305906 10.2473,1.84134 14.8039,6.57048 4.72796,4.55315 6.8752,9.50198 6.56812,14.8004 -0.349607,5.34331 -3.76536,11.2122 -10.2473,17.7815l-7.62048 7.62048 27.3284 27.3272 5.7815 -5.78268c9.85276,-9.85394 16.598,-19.839 20.3185,-29.8677 3.67914,-10.0724 4.11733,-20.0587 1.44449,-30 -2.71536,-9.89528 -8.76024,-19.5295 -18.0874,-28.9453 -9.41694,-9.32717 -19.0512,-15.3709 -28.9477,-18.0862 -9.94253,-2.67166 -19.9264,-2.23347 -30,1.44567 -10.0276,3.72402 -20.0126,10.4681 -29.8654,20.3232l0 0zm210.213 121.913l-42.3059 -42.3036 -213.357 154.511 26.5394 26.5382 38.3622 -28.3784 35.4744 35.4721 -28.3772 38.3634 29.1673 29.1638 154.497 -213.366zm-55.1788 9.98741l-79.0879 106.947 -27.8551 -27.8516 106.943 -79.0949zm-85.9158 216.781l76.4646 76.4599 26.276 -26.2772 -47.5607 -47.5583 157.65 -157.662 -28.904 -28.9016 -183.926 183.939zm275.634 -39.6863l49.9276 49.9229 26.2748 -26.2772 -78.8316 -78.8257 -183.926 183.938 78.8316 78.8268 26.2748 -26.2772 -49.9264 -49.9229 53.8642 -53.8689 39.678 39.6756 26.276 -26.2772 -39.678 -39.6756 51.2351 -51.2386z"/>
 </g>
</svg>
