<?xml version="1.0" encoding="UTF-8"?>
<!DOCTYPE svg PUBLIC "-//W3C//DTD SVG 1.1//EN" "http://www.w3.org/Graphics/SVG/1.1/DTD/svg11.dtd">
<!-- Creator: CorelDRAW -->
<svg xmlns="http://www.w3.org/2000/svg" xml:space="preserve" width="2048px" height="2048px" style="shape-rendering:geometricPrecision; text-rendering:geometricPrecision; image-rendering:optimizeQuality; fill-rule:evenodd; clip-rule:evenodd"
viewBox="0 0 2048 2048"
 xmlns:xlink="http://www.w3.org/1999/xlink">
 <defs>
  <style type="text/css">
   <![CDATA[
    .fil0 {fill:none}
    .fil2 {fill:#212121;fill-rule:nonzero}
    .fil1 {fill:#f51d05;fill-rule:nonzero}
   ]]>
  </style>
 </defs>
 <g id="Layer_x0020_1">
  <metadata id="CorelCorpID_0Corel-Layer"/>
  <g id="_511696320">
   <rect id="_511695360" class="fil0" width="2048" height="2048"/>
   <g>
    <rect id="_511700040" class="fil0" x="255.999" y="255.997" width="1536" height="1536.01"/>
    <polygon id="_511700880" class="fil1" points="1622.63,1366.63 1366.63,1622.62 1344.04,1645.21 1321.38,1622.5 1198.37,1499.22 1243.62,1454.22 1343.96,1554.79 1577.38,1321.37 "/>
    <path id="_511689240" class="fil2" d="M1440.13 1043.79l0.00354331 -755.79 -746.689 0 -341.436 364.529 0 1011.47 691.472 0c11.9528,22.4516 25.976,43.8744 41.9504,64.0016l-765.423 0 -32.0008 0 0 -32.0008 0 -1056 8.75079 -21.8752 359.671 -383.997 9.48426 -10.1256 13.7658 0 792.33 0 31.8756 0 0 32.0008 -0.00354331 796.225c-20.8819,-4.40433 -42.1855,-7.23426 -63.7512,-8.43426z"/>
    <polygon id="_511692960" class="fil1" points="1248,992.003 481.915,992.003 481.915,928.001 1248,928.001 "/>
    <path id="_511693536" class="fil1" d="M480 1440l513.937 0c0.46063,21.6106 2.61732,42.9969 6.41457,64.0016l-520.352 0 0 -64.0016z"/>
    <path id="_511698096" class="fil1" d="M480 1184.03l605.239 0c-15.4476,20.2288 -28.9288,41.6469 -40.3193,64.0016l-564.919 0 0 -64.0016z"/>
    <path id="_511697400" class="fil2" d="M1416.5 1171.13c-81.2989,0 -154.882,32.9717 -208.146,86.2371 -53.302,53.302 -86.2642,126.93 -86.2642,208.175 0,81.3568 32.9362,154.974 86.1993,208.246 53.2666,53.276 126.875,86.217 208.211,86.217 81.2717,0 154.912,-32.9622 208.22,-86.2713 53.2701,-53.2701 86.2418,-126.866 86.2418,-208.192 0,-81.215 -32.9988,-154.821 -86.3079,-208.122 -53.3044,-53.2973 -126.918,-86.2902 -208.154,-86.2902zm-253.396 40.9866c64.8461,-64.8473 154.425,-104.988 253.396,-104.988 98.902,0 188.517,40.1634 253.405,105.041 64.891,64.8804 105.059,154.489 105.059,253.373 0,98.9989 -40.141,188.59 -104.993,253.442 -64.8945,64.8957 -154.538,105.023 -253.471,105.023 -99.0036,0 -188.609,-40.1055 -253.461,-104.968 -64.8497,-64.8615 -104.95,-154.474 -104.95,-253.497 0,-98.9068 40.1268,-188.537 105.015,-253.426z"/>
   </g>
  </g>
 </g>
</svg>
