<?xml version="1.0" encoding="UTF-8"?>
<!DOCTYPE svg PUBLIC "-//W3C//DTD SVG 1.1//EN" "http://www.w3.org/Graphics/SVG/1.1/DTD/svg11.dtd">
<!-- Creator: CorelDRAW -->
<svg xmlns="http://www.w3.org/2000/svg" xml:space="preserve" width="2048px" height="2048px" style="shape-rendering:geometricPrecision; text-rendering:geometricPrecision; image-rendering:optimizeQuality; fill-rule:evenodd; clip-rule:evenodd"
viewBox="0 0 2048 2048"
 xmlns:xlink="http://www.w3.org/1999/xlink">
 <defs>
  <style type="text/css">
   <![CDATA[
    .fil0 {fill:none}
    .fil1 {fill:none;fill-rule:nonzero}
    .fil4 {fill:#212121}
    .fil3 {fill:#212121;fill-rule:nonzero}
    .fil2 {fill:#f51d05;fill-rule:nonzero}
   ]]>
  </style>
 </defs>
 <g id="Layer_x0020_1">
  <metadata id="CorelCorpID_0Corel-Layer"/>
  <rect class="fil0" width="2048" height="2048"/>
  <rect class="fil0" x="255.999" y="255.999" width="1536" height="1536"/>
  <line class="fil1" x1="509.2" y1="715.723" x2="509.198" y2= "715.724" />
  <line class="fil1" x1="643.353" y1="657.42" x2="643.352" y2= "657.419" />
  <path class="fil2" d="M1005.71 894.853c59.7142,23.5406 104.237,69.0615 127.944,123.626 23.7083,54.5634 26.602,118.173 3.06142,177.887 -23.5406,59.7142 -69.0615,104.238 -123.626,127.945 -54.5646,23.7083 -118.174,26.6008 -177.888,3.06024 -59.7142,-23.5406 -104.238,-69.0615 -127.945,-123.626 -23.7083,-54.5634 -26.6008,-118.173 -3.06024,-177.887 16.8236,-42.6756 44.8748,-77.589 79.428,-102.693 40.8744,10.7303 78.2871,8.04686 113.973,-2.38347 27.7193,-8.10119 53.7685,-20.726 79.4103,-35.1662 9.63072,2.42835 19.2166,5.49804 28.7032,9.23741zm71.1638 148.297c-17.3906,-40.0276 -50.0575,-73.4221 -93.8717,-90.6957 -43.8166,-17.2725 -90.4831,-15.1524 -130.51,2.23937 -40.0264,17.3917 -73.4221,50.0575 -90.6946,93.8729 -17.2736,43.8154 -15.1524,90.482 2.23937,130.508 17.3906,40.0276 50.0563,73.4221 93.8717,90.6957 43.8154,17.2725 90.4831,15.1524 130.51,-2.23937 40.0264,-17.3906 73.4209,-50.0563 90.6946,-93.8729 17.2725,-43.8142 15.1512,-90.482 -2.23937,-130.508z"/>
  <path class="fil3" d="M1004.46 598.74c-28.3559,4.22953 -48.5906,23.6103 -68.6882,42.8622 -4.9004,4.69489 -9.79961,9.38623 -15.4677,14.5016 -11.113,10.0252 -26.9977,22.1386 -45.326,36.1181 -17.054,13.0051 -36.2693,27.6603 -53.8158,42.1429 -38.6044,31.8626 -74.8382,64.2319 -68.7319,71.6304 21.5209,26.0729 51.1512,33.2799 82.3666,30.1713 51.3059,-5.10827 107.189,-35.9339 145.382,-62.543 10.3228,-7.19292 25.3087,-19.9181 37.402,-30.1866 11.3067,-9.60473 20.5547,-17.4532 25.2307,-20.1012 11.5406,-6.5315 22.5213,-9.85631 34.0429,-10.1067 11.0929,-0.240945 21.4666,2.38819 32.1047,7.77284l452.67 178.452c7.02756,-3.47244 32.1851,-18.815 49.3985,-29.3138 5.51693,-3.36614 10.3843,-6.33426 13.8626,-8.36221 19.1232,-11.1543 39.1429,-25.4315 56.1863,-41.4945 13.9358,-13.1339 25.9559,-27.4666 33.8173,-42.1748 0.833859,-1.56024 2.37756,-4.28622 3.88819,-6.95315 2.27835,-4.02638 4.41496,-7.79646 5.69174,-11.0374 0.61063,-1.54843 2.76496,-7.22008 4.6878,-12.4949 -2.02795,-1.5437 -6.30827,-0.271654 -10.2047,-4.83662 -3.21496,-3.7689 -6.12756,-7.18465 -9.5752,-11.7957 -4.60394,-6.16182 -12.9295,-15.5693 -22.2036,-25.5662 -13.1823,-14.2134 -28.937,-30.1937 -38.6658,-39.7831 -39.2929,-38.7355 -84.4949,-80.2406 -131.316,-117.546 -31.6607,-25.226 -64.2142,-48.6945 -96.3875,-68.2985 -20.7473,17.948 -52.3949,42.7311 -79.4835,63.9426 -17.9587,14.0646 -33.7536,26.4307 -42.9744,34.2355 -23.191,19.6264 -108.874,19.0595 -186.799,18.5445 -45.3992,-0.301181 -87.8871,-0.583465 -106.978,2.26536l-0.113386 -0.0448819zm-111.398 -1.7941c27.0437,-25.904 54.2705,-51.9827 102.323,-59.1827l-0.00944883 -0.0602363c23.5536,-3.51378 68.53,-3.21496 116.588,-2.89725 66.9886,0.442914 140.647,0.93189 146.492,-4.01575 7.92638,-6.70867 25.187,-20.224 44.8099,-35.5914 35.9634,-28.1622 80.5253,-63.0567 89.6847,-73.7741l16.4953 -19.3004 22.0961 12.4158c41.3303,23.2252 83.406,52.9134 123.95,85.2178 49.3796,39.3449 96.1513,82.2296 136.369,121.876 9.39922,9.26576 25.4599,25.611 40.4717,41.7945 10.6807,11.5134 20.5016,22.6583 26.4508,30.6201 0.380315,0.509056 3.62717,4.31575 7.22363,8.53111 11.3221,13.2697 25.2992,29.6492 25.9914,45.1843l-0.0437008 0.112205c0.210236,4.97126 -1.55197,11.7898 -3.97087,18.5256 -2.09055,5.81811 -5.24292,14.0906 -6.12993,16.3358 -3.12284,7.92048 -6.08386,13.1469 -9.24686,18.7347 -0.773623,1.36772 -1.5815,2.79331 -3.1311,5.69174 -11.1071,20.7827 -27.4016,40.3843 -45.9992,57.9107 -21.0756,19.8626 -44.987,37.0264 -67.3737,50.0835 -3.63898,2.12244 -7.94646,4.74922 -12.8327,7.72914 -26.4508,16.1339 -66.802,40.7445 -88.7564,38.8866l-8.70119 -1.99843 -460.807 -181.66 -3.28583 -1.55669c-1.80236,-0.967324 -2.96693,-1.4563 -3.52205,-1.44449 -0.836221,0.0177165 -2.43189,0.711024 -4.88859,2.10118 -0.664961,0.376772 -7.44449,6.13347 -15.7429,13.1823 -13.4953,11.4602 -30.2185,25.6595 -41.967,33.8457 -44.4898,30.9969 -110.685,67.0146 -174.611,73.3784 -50.5583,5.03504 -99.2623,-7.50119 -136.103,-52.1339 -39.0555,-47.3185 14.0575,-106.897 76.7859,-158.669 19.3512,-15.9721 38.6315,-30.6768 55.741,-43.7244 17.7,-13.5 33.039,-25.1988 41.3882,-32.7307 4.39961,-3.96969 9.32835,-8.68938 14.263,-13.4173zm837.299 153.549c0.0637796,1.0311 0.0921261,1.41732 0.0330709,-0.00236221l-0.0330709 0.00236221z"/>
  <polygon class="fil2" points="1382.67,1451.27 1331.17,1358.36 1330.72,1357.53 1280.76,1260.7 1264.6,1229.37 1297.79,1217.5 1400.39,1180.8 1401.28,1180.51 1502.33,1147.74 1521.31,1206.43 1420.99,1238.96 1351.75,1263.73 1385.47,1329.08 1436.6,1421.31 "/>
  <path class="fil2" d="M923.957 1082.61l11.2476 -32.178c-5.17087,-1.53425 -9.61418,-1.48937 -13.3725,0.119291 -3.72992,1.66181 -6.37796,4.66418 -7.89922,9.01536 -1.36417,3.90473 -1.29567,7.62756 0.180709,11.1106 1.51654,3.49843 4.78465,7.47048 9.84331,11.9327zm-13.4776 86.3611c5.28426,1.20827 9.96379,0.881103 13.9713,-1.05118 4.02166,-1.97244 6.83504,-5.18859 8.41418,-9.70394 1.63465,-4.67953 1.67126,-9.0945 0.151181,-13.2319 -1.54725,-4.19292 -4.77048,-8.42363 -9.66733,-12.828l-12.8693 36.815zm-34.0134 49.5107l8.16024 -23.3504c-18.9886,-7.18465 -31.7233,-17.1142 -38.1343,-29.8547 -6.42756,-12.7016 -6.59646,-28.2803 -0.537402,-46.6595l38.2394 13.3654c-2.70945,8.27481 -3.15945,14.9185 -1.39252,19.9181 1.76693,5.00079 6.04489,8.96103 12.789,11.8665l14.6587 -41.9422c-16.963,-12.4571 -28.3063,-24.411 -33.9992,-35.941 -5.69292,-11.5323 -6.27993,-23.6977 -1.8,-36.5114 5.01851,-14.3599 13.8272,-24.1547 26.4709,-29.3681 12.6,-5.22756 27.6071,-5.32323 44.9906,-0.205512l4.83426 -13.8319 14.889 5.20512 -4.83307 13.8319c16.7563,6.12874 28.3193,15.1016 34.676,26.9551 6.31418,11.8394 6.90591,25.5603 1.73268,41.1437l-37.9961 -13.2803c2.09055,-5.97993 2.32677,-10.9642 0.818505,-15.0071 -1.53543,-4.09725 -4.85788,-7.13032 -9.93898,-9.18072l-13.1232 37.5485c18.215,14.4921 30.0473,27.5303 35.5205,39.1677 5.47323,11.6374 5.84882,24.2764 1.07126,37.9441 -4.8626,13.9122 -13.9984,23.5937 -27.4205,29.0811 -13.4221,5.48859 -28.9642,5.80867 -46.6252,0.960237l-8.16142 23.3504 -14.889 -5.20512z"/>
  <polygon class="fil2" points="354.788,994.84 455.1,962.311 524.339,937.544 490.627,872.193 439.497,779.962 493.421,750.006 544.924,842.911 545.378,843.74 595.332,940.574 611.494,971.9 578.301,983.774 475.707,1020.47 474.811,1020.77 373.765,1053.53 "/>
  <path class="fil4" d="M517.134 552.028l256.754 101.218c-3.99331,3.20551 -7.9689,6.43583 -11.9209,9.69686 -12.4973,10.3146 -26.7484,22.5272 -40.5402,36.1736l-169.4 -66.7808 -215.72 547.206 979.211 386.026 215.72 -547.208 5.38229 -28.9335 10.9618 2.51811c17.6032,4.04528 37.8201,-1.87087 57.3603,-11.0799l6.60355 2.60315 -261.135 662.406 -1094.41 -431.439 261.135 -662.408z"/>
 </g>
</svg>
