<?xml version="1.0" encoding="UTF-8"?>
<!DOCTYPE svg PUBLIC "-//W3C//DTD SVG 1.1//EN" "http://www.w3.org/Graphics/SVG/1.1/DTD/svg11.dtd">
<!-- Creator: CorelDRAW -->
<svg xmlns="http://www.w3.org/2000/svg" xml:space="preserve" width="2048px" height="2048px" style="shape-rendering:geometricPrecision; text-rendering:geometricPrecision; image-rendering:optimizeQuality; fill-rule:evenodd; clip-rule:evenodd"
viewBox="0 0 2048 2048"
 xmlns:xlink="http://www.w3.org/1999/xlink">
 <defs>
  <style type="text/css">
   <![CDATA[
    .fil0 {fill:none}
    .fil2 {fill:#212121}
    .fil1 {fill:#f51d05;fill-rule:nonzero}
   ]]>
  </style>
 </defs>
 <g id="Layer_x0020_1">
  <metadata id="CorelCorpID_0Corel-Layer"/>
  <rect class="fil0" width="2048" height="2048"/>
  <rect class="fil0" x="255.999" y="255.999" width="1536" height="1536"/>
  <path class="fil1" d="M1105.03 484.662c0,-63.3308 25.6689,-120.682 67.1741,-162.195l0.0625985 0.0625985c41.5689,-41.5465 98.8772,-67.2449 162.097,-67.2449 63.3284,0 120.678,25.6819 162.191,67.193 41.5134,41.5111 67.1953,98.8572 67.1953,162.184 0,63.3319 -25.6819,120.679 -67.1953,162.191 -41.5134,41.5158 -98.8631,67.1965 -162.191,67.1965l0 -0.125197c-63.3225,-0.0307087 -120.665,-25.7185 -162.167,-67.2308 -41.4945,-41.5063 -67.167,-98.7922 -67.167,-162.032zm112.424 -116.945c-29.9185,29.9244 -48.4229,71.276 -48.4229,116.945 0,45.7418 18.5055,87.1123 48.4158,117.032 29.9268,29.9351 71.269,48.4571 116.916,48.4796l0 -0.125197c45.6626,0 87.0119,-18.515 116.941,-48.4453 29.9292,-29.928 48.4441,-71.2749 48.4441,-116.941 0,-45.6615 -18.5162,-87.0072 -48.4441,-116.934 -29.9292,-29.9268 -71.2772,-48.4418 -116.941,-48.4418 -45.7465,0 -87.0721,18.463 -116.909,48.3059l0 0.125197z"/>
  <path class="fil2" d="M1375.22 1355.83c8.65749,-6.47481 26.0799,-24.5162 30.2398,-28.728 20.5252,-20.7815 40.9784,-41.5004 63.104,-60.613 29.2642,-25.2803 72.4879,-57.7347 112.898,-57.7347 80.7603,0 146.537,65.7001 146.537,146.476 0,36.9992 -14.0256,72.2304 -39.2717,99.1406l-0.434646 0.689764c-1.20118,1.90984 -2.83937,3.89646 -4.25197,5.64804 -5.19213,6.43583 -10.7681,12.6744 -16.3252,18.7949 -31.5922,34.8 -65.6197,68.3693 -99.1501,101.28 -22.6701,22.2508 -45.3449,44.5052 -67.8449,66.9272 -19.5886,19.5189 -41.2193,36.913 -63.8717,52.7374 -0.944883,0.885827 -1.91575,1.67362 -2.94803,2.48504l-2.28071 1.7941 -0.522048 0c-85.7694,58.5874 -182.873,87.2753 -286.739,87.2753 -105.006,0 -207.35,-29.961 -295.865,-86.4036 -36.6166,-23.3492 -76.5886,-41.4118 -119.379,-45.6154l0 80.8323 0 33.5268 -33.5268 0 -406.064 0 -33.5268 0 0 -33.5268 0 -636.989 0 -33.5268 33.5268 0 406.064 0 33.5268 0 0 33.5268 0 50.087c40.8662,-5.9752 83.5158,-7.62166 123.842,-7.03111 63.7819,0.933072 128.428,7.8626 190.916,20.6882 118.743,24.3721 265.529,78.6473 331.347,188.26zm-646.105 223.641c56.7319,4.17284 112.156,24.8303 160.691,53.9221l0.713386 0 2.1437 1.47047c73.8426,50.687 162.364,76.239 251.695,76.239 88.1398,0 177.054,-24.1524 249.597,-75.0792 8.87717,-6.2315 17.3303,-13.0217 25.4965,-20.1532l1.29331 -1.12913c9.04607,-10.3016 19.0831,-20.2382 28.7221,-29.9055 20.6291,-20.6906 41.5335,-41.1343 62.3788,-61.6063 19.7622,-19.4067 39.3697,-39.0048 58.8981,-58.6453 11.9646,-12.0319 23.8996,-24.1004 35.7201,-36.2752 7.71024,-7.94174 15.7654,-16.0725 23.0173,-24.4276 11.2099,-12.9165 17.654,-31.3347 17.5536,-48.3804 -0.210236,-36.0803 -29.315,-65.863 -65.5737,-65.863 -30.3992,0 -90.6296,55.304 -111.696,75.6024 -18.8162,18.1335 -36.9862,37.2461 -54.0685,57.0248 -6.92008,8.01142 -13.7055,16.1835 -20.1567,24.5799 -4.34292,5.65394 -8.76497,11.6067 -12.4937,17.7083 -18.3791,58.291 -70.8449,99.2091 -131.488,102.679l0 0.891733 -8.57009 -0.194882c-31.2331,-0.705119 -63.6851,-7.53308 -93.7938,-15.4984 -45.7347,-12.098 -91.0985,-28.2673 -135.275,-45.117l-7.83426 -2.98819 28.8957 -75.6638 7.82835 2.98701c39.9154,15.228 80.8583,30.1488 122.03,41.6292 21.1406,5.89489 44.8713,11.7201 67.2083,13.3299l0.12874 -0.478347 6.42402 0c1.79882,0 2.97756,0.370866 4.60866,0.617717 36.2256,-0.135827 65.6067,-29.5713 65.6067,-65.8276 0,-16.0299 -5.59134,-31.8827 -16.8307,-43.4835 -50.9363,-52.5697 -118.33,-89.2158 -186.98,-113.072 -80.7863,-28.0713 -168.154,-40.4162 -253.511,-40.4162 -40.9323,0 -81.9284,3.14646 -122.38,9.54686l0 345.976zm-67.0536 -442.118l-339.011 0 0 569.935 339.011 0 0 -569.935z"/>
  <path class="fil1" d="M983.887 806.66l-0.285827 -34.0855c-5.38465,0.303544 -9.55158,1.84725 -12.5457,4.62992 -2.94921,2.8252 -4.42678,6.54567 -4.38898,11.1555 0.0354331,4.13622 1.35827,7.61693 3.92481,10.3961 2.60906,2.77914 7.02638,5.41418 13.2957,7.90394zm16.4953 85.8367c5.38111,-0.648426 9.6756,-2.53819 12.7937,-5.70945 3.11929,-3.21614 4.68071,-7.19292 4.64055,-11.9764 -0.0413386,-4.95709 -1.5,-9.12402 -4.32756,-12.5043 -2.87362,-3.42402 -7.33701,-6.31772 -13.4339,-8.80867l0.327166 38.9988zm-15.2847 58.0914l-0.209055 -24.7347c-20.2996,-0.346063 -35.641,-5.38937 -45.9804,-15.2138 -10.3394,-9.78308 -15.763,-24.3886 -16.2697,-43.7351l40.5059 -0.340158c0.246851,8.70355 2.06693,15.1087 5.4189,19.2177 3.35315,4.10906 8.71772,6.39095 16.0465,6.84804l-0.373229 -44.4296c-20.1756,-5.99174 -34.891,-13.4102 -44.1449,-22.3394 -9.25394,-8.93032 -13.9169,-20.1815 -14.0303,-33.7559 -0.12874,-15.2114 4.85315,-27.4063 14.9906,-36.5847 10.0937,-9.17717 24.1855,-14.3386 42.2764,-15.3957l-0.124016 -14.6504 15.7725 -0.132284 0.124016 14.6516c17.8417,0.10748 31.7563,4.64528 41.7449,13.6536 9.94371,9.00946 15.1358,21.724 15.5327,38.1378l-40.2496 0.338977c-0.0519685,-6.33426 -1.51417,-11.1059 -4.3004,-14.4012 -2.82874,-3.33662 -6.98032,-5.0693 -12.4559,-5.28189l0.335433 39.7748c22.0406,7.48465 37.5827,15.7583 46.6654,24.8622 9.08387,9.10276 13.7079,20.8725 13.8295,35.3504 0.122835,14.7378 -5.20512,26.9362 -15.9827,36.6355 -10.7787,9.70158 -25.2981,15.2539 -43.5591,16.6571l0.209055 24.7347 -15.7725 0.132284z"/>
  <path class="fil1" d="M1326.86 453.363l-0.285827 -34.0855c-5.38465,0.303544 -9.55158,1.84725 -12.5457,4.62992 -2.94921,2.8252 -4.42678,6.54567 -4.38898,11.1555 0.0354331,4.13622 1.35827,7.61693 3.92481,10.3961 2.60906,2.77914 7.02638,5.41418 13.2957,7.90394zm16.4953 85.8367c5.38111,-0.648426 9.6756,-2.53819 12.7937,-5.70945 3.11929,-3.21614 4.68071,-7.19292 4.64055,-11.9764 -0.0413386,-4.95709 -1.5,-9.12402 -4.32756,-12.5043 -2.87362,-3.42402 -7.33701,-6.31772 -13.4339,-8.80867l0.327166 38.9988zm-15.2847 58.0914l-0.209055 -24.7347c-20.2996,-0.346063 -35.641,-5.38937 -45.9804,-15.2138 -10.3394,-9.78308 -15.763,-24.3886 -16.2697,-43.7351l40.5059 -0.340158c0.246851,8.70355 2.06693,15.1087 5.4189,19.2177 3.35315,4.10906 8.71772,6.39095 16.0465,6.84804l-0.373229 -44.4296c-20.1756,-5.99174 -34.891,-13.4102 -44.1449,-22.3394 -9.25394,-8.93032 -13.9169,-20.1815 -14.0303,-33.7559 -0.12874,-15.2114 4.85315,-27.4063 14.9906,-36.5847 10.0937,-9.17717 24.1855,-14.3386 42.2764,-15.3957l-0.124016 -14.6504 15.7725 -0.132284 0.124016 14.6516c17.8417,0.10748 31.7563,4.64528 41.7449,13.6536 9.94371,9.00946 15.1358,21.724 15.5327,38.1378l-40.2496 0.338977c-0.0519685,-6.33426 -1.51417,-11.1059 -4.3004,-14.4012 -2.82874,-3.33662 -6.98032,-5.0693 -12.4559,-5.28189l0.335433 39.7748c22.0406,7.48465 37.5827,15.7583 46.6654,24.8622 9.08387,9.10276 13.7079,20.8725 13.8295,35.3504 0.122835,14.7378 -5.20512,26.9362 -15.9827,36.6355 -10.7787,9.70158 -25.2981,15.2539 -43.5591,16.6571l0.209055 24.7347 -15.7725 0.132284z"/>
  <path class="fil1" d="M757.281 837.376c0,-63.3308 25.6689,-120.682 67.1741,-162.195l0.0625985 0.0625985c41.5689,-41.5465 98.8772,-67.2449 162.097,-67.2449 63.3284,0 120.678,25.6819 162.191,67.193 41.5134,41.5111 67.1953,98.8572 67.1953,162.184 0,63.3319 -25.6819,120.679 -67.1953,162.191 -41.5134,41.5158 -98.8631,67.1965 -162.191,67.1965l0 -0.125197c-63.3225,-0.0307087 -120.665,-25.7185 -162.167,-67.2308 -41.4945,-41.5063 -67.167,-98.7922 -67.167,-162.032zm112.424 -116.945c-29.9185,29.9244 -48.4229,71.276 -48.4229,116.945 0,45.7418 18.5055,87.1123 48.4158,117.032 29.9268,29.9351 71.269,48.4571 116.916,48.4796l0 -0.125197c45.6626,0 87.0119,-18.515 116.941,-48.4453 29.9292,-29.928 48.4441,-71.2749 48.4441,-116.941 0,-45.6615 -18.5162,-87.0072 -48.4441,-116.934 -29.9292,-29.9268 -71.2772,-48.4418 -116.941,-48.4418 -45.7465,0 -87.0721,18.463 -116.909,48.3059l0 0.125197z"/>
 </g>
</svg>
