<?xml version="1.0" encoding="UTF-8"?>
<!DOCTYPE svg PUBLIC "-//W3C//DTD SVG 1.1//EN" "http://www.w3.org/Graphics/SVG/1.1/DTD/svg11.dtd">
<!-- Creator: CorelDRAW -->
<svg xmlns="http://www.w3.org/2000/svg" xml:space="preserve" width="2048px" height="2048px" style="shape-rendering:geometricPrecision; text-rendering:geometricPrecision; image-rendering:optimizeQuality; fill-rule:evenodd; clip-rule:evenodd"
viewBox="0 0 2048 2048"
 xmlns:xlink="http://www.w3.org/1999/xlink">
 <defs>
  <style type="text/css">
   <![CDATA[
    .fil0 {fill:none}
    .fil1 {fill:#212121;fill-rule:nonzero}
    .fil2 {fill:#f51d05;fill-rule:nonzero}
   ]]>
  </style>
 </defs>
 <g id="Layer_x0020_1">
  <metadata id="CorelCorpID_0Corel-Layer"/>
  <rect class="fil0" width="2048" height="2048"/>
  <rect class="fil0" x="255.999" y="255.999" width="1536" height="1536"/>
  <path class="fil1" d="M1551.15 948.83c7.30867,14.511 20.9788,41.654 55.8343,41.654l79.78 0 32.0008 0 0 32.0008 0 300.236 0 32.0008 -32.0008 0 -104.167 0c-15.2929,0 -28.6004,4.41851 -39.3177,10.7386 -13.6122,8.02678 -22.6087,18.1288 -26.0386,25.8579l0 0.125197c-9.49016,21.1099 -22.7528,42.0473 -38.7071,62.1544 -16.5414,20.8441 -35.9965,40.9512 -57.1229,59.5252l-0.125197 0c-3.99331,3.49134 -9.99804,9.37442 -14.1721,16.624 -3.22205,5.59607 -5.41536,12.3047 -4.09134,19.4043 5.32796,28.9418 28.1445,134.46 28.2095,134.765l6.87402 31.7492 -31.8733 6.3756 -261.344 52.2697 -31.5248 6.30473 -6.1004 -31.6796c-0.0295276,-0.154725 -10.0925,-53.3445 -18.3496,-91.48 -1.14685,-5.25591 -3.47717,-7.57914 -5.9563,-8.43898 -5.89725,-2.04567 -13.9512,-1.46457 -19.5461,-0.733465 -16.3264,2.13189 -32.3658,3.77717 -48,4.84607 -16.7067,1.14331 -33.1276,1.75394 -49.1599,1.75394 -12.8291,0 -26.439,-0.518504 -40.4941,-1.35 -11.8618,-0.701575 -25.1776,-1.80827 -38.9634,-3.05315 -14.9362,-1.39252 -28.0996,-1.27205 -36.5599,2.45315 -4.26851,1.87914 -7.42205,6.30709 -8.72835,14.7685l-0.0188977 -0.00236221c-6.54804,42.4937 -16.5945,82.6843 -16.6228,82.8012l-7.30867 29.8701 -29.9421 -5.99528 -261.344 -52.3347 -31.3016 -6.2693 6.30237 -31.3559c0.0330709,-0.168898 9.36615,-46.187 26.0138,-130.609 3.23268,-16.4327 0.187795,-29.4638 -4.80945,-39.339 -5.31378,-10.5 -12.9,-18.0354 -17.9162,-22.3843l-0.375591 -0.375591c-113.857,-101.659 -170.427,-234.064 -174.597,-364.472 -1.92284,-60.1489 7.26379,-119.773 27.0827,-175.683 19.8638,-56.0363 50.4744,-108.539 91.3536,-154.323 85.6194,-95.8938 215.801,-161.483 385.862,-166.921l1.00039 -0.125197 209.273 0c11.7543,0 38.5075,3.69567 63.1323,9.28938 6.04607,1.37362 12.0591,2.88662 17.8276,4.52481 20.9941,-40.6288 52.2119,-76.5154 87.319,-106.171 51.6189,-43.6016 112.485,-74.276 161.378,-86.6859l47.8926 -12.1571 -8.76733 48.7831c-3.14646,17.5075 -9.5882,37.3111 -17.4083,61.3524 -17.5606,53.9835 -42.6201,131.048 -45.1784,229.227 1.22244,-1.98189 2.47795,-3.99922 3.76536,-6.06142l16.3217 -26.1343 26.6788 15.3851c40.8697,23.5689 72.4938,56.8004 97.428,91.1375 23.7673,32.7284 41.5311,66.7749 55.2945,93.6839l0.125197 0.125197 1.18465 2.34567zm55.8343 105.656c-74.1024,0 -99.3402,-50.113 -112.834,-76.9052l-1.18465 -2.34567 0.0484252 -0.0248032c-12.4843,-24.4051 -28.5945,-55.2567 -50.2193,-85.0347 -14.5465,-20.0315 -31.5402,-39.4181 -51.4607,-55.493 -4.59095,8.42363 -8.41772,16.4232 -11.6646,24.8386 -6.80788,17.6457 -11.8642,38.7107 -17.0492,71.1473l-62.8749 1.12559c-35.4697,-179.752 6.05315,-313.213 33.3685,-397.301 -26.576,13.1043 -54.1583,30.7429 -79.4268,52.0867 -35.7142,30.1677 -66.2457,67.3571 -81.6036,108.847l-13.3063 35.9457 -32.9433 -19.4457c-5.62796,-3.32126 -18.4488,-6.99922 -32.5453,-10.2012 -19.9843,-4.53898 -40.7044,-7.53898 -49.1315,-7.53898l-209.273 0 0 -0.0874016c-150.517,5.0504 -264.873,62.204 -339.363,145.632 -35.0587,39.2646 -61.4008,84.5457 -78.6024,133.073 -17.2465,48.6532 -25.2461,100.387 -23.5819,152.432 3.63425,113.674 53.1922,229.357 152.953,318.618l0.0177165 -0.0200788c9.11457,7.90158 22.9843,21.7618 33.1666,41.8843 10.5012,20.7484 17.0032,47.5807 10.5591,80.3398 -1.80945,9.17953 -12.7819,63.7926 -19.9595,99.5032l199.534 39.9567c2.7626,-13.2756 5.93977,-29.8607 8.64686,-47.4414l0 -0.125197c5.1626,-33.4288 22.115,-52.8993 46.2284,-63.5174 19.9169,-8.76969 43.415,-9.75237 68.0599,-7.45394 11.3469,1.02402 23.3232,1.99606 36.965,2.80276 11.4484,0.676772 23.5654,1.09961 36.7429,1.09961 15.6295,0 30.5882,-0.52441 44.9103,-1.50354 15.3945,-1.05354 30.0461,-2.52402 43.9985,-4.34528 12.1311,-1.58504 30.4666,-2.54055 48.5469,3.73347 21.4973,7.45985 40.7481,23.3244 47.7059,55.1894 4.00394,18.4949 8.77442,42.3756 12.4819,61.304l198.024 -39.6059c-7.05001,-33.0343 -17.5854,-82.9465 -21.6461,-105.004 -4.57796,-24.5457 1.8626,-45.7595 11.5913,-62.654 8.74843,-15.1937 19.976,-26.3563 27.3508,-32.8122l-0.0543308 -0.0614174c18.5528,-16.311 35.3823,-33.6473 49.3725,-51.2764 12.8917,-16.2461 23.3492,-32.5902 30.4583,-48.404l0.0472441 0.0212599c8.04804,-18.0603 26.2418,-39.965 51.7418,-55.0028 19.7032,-11.6209 44.0374,-19.741 71.817,-19.741l72.1666 0 0 -236.235 -47.7792 0z"/>
  <path class="fil2" d="M1315.48 1153.7c10.4268,10.4362 24.9272,16.8945 41.015,16.8945 16.024,0 30.5516,-6.50788 41.0705,-17.0268 10.5106,-10.5106 17.0197,-25.0299 17.0197,-41.0634 0,-16.0807 -6.46418,-30.5776 -16.9028,-41.0079 -10.5142,-10.5059 -25.0807,-17.0091 -41.1874,-17.0091 -16.0039,0 -30.5067,6.50197 -41.0067,17.0032 -10.5012,10.5024 -17.0008,25.0075 -17.0008,41.0138 0,16.1268 6.49607,30.6898 16.9925,41.1957zm41.015 80.8961c-33.5953,0 -64.1091,-13.7197 -86.2654,-35.8961 -22.0795,-22.0984 -35.7437,-52.5792 -35.7437,-86.1957 0,-33.6697 13.6677,-64.1788 35.752,-86.2642 22.0819,-22.0855 52.5851,-35.7544 86.2572,-35.7544 33.5929,0 64.0819,13.6725 86.1875,35.7603 22.174,22.1563 35.9044,52.6666 35.9044,86.2583 0,33.7028 -13.6784,64.2213 -35.7709,86.3138 -22.1032,22.1032 -52.6359,35.778 -86.3209,35.778z"/>
  <path class="fil2" d="M648.021 585.913c-8.18859,-17.0977 -14.6634,-34.95 -18.9638,-53.3646 -4.16929,-17.8559 -6.4441,-36.3272 -6.4441,-55.265 0,-69.9497 28.3524,-133.266 74.1827,-179.097 45.841,-45.841 109.171,-74.1898 179.104,-74.1898 69.9627,0 133.288,28.3429 179.121,74.1745 45.8363,45.8327 74.1804,109.155 74.1804,179.112 0,18.9142 -2.27244,37.3701 -6.42875,55.213 -4.36772,18.7595 -10.7847,36.6118 -18.7937,53.4166l-57.7512 -27.5008c6.15355,-12.9106 11.0374,-26.4307 14.2937,-40.415 3.02362,-12.9839 4.67835,-26.5831 4.67835,-40.7138 0,-52.2898 -21.1795,-99.6154 -55.4292,-133.862 -34.2473,-34.2449 -81.5741,-55.4233 -133.871,-55.4233 -52.2697,0 -99.5989,21.1843 -133.853,55.4386 -34.2461,34.2461 -55.4315,81.5634 -55.4315,133.846 0,14.1437 1.65709,27.7607 4.6937,40.7658 3.3378,14.2902 8.18386,27.7736 14.2134,40.363l-57.5008 27.5008z"/>
  <path class="fil2" d="M872.609 427.786l0 -31.8201c-5.02914,0.242126 -8.9315,1.64882 -11.7473,4.22363 -2.77559,2.61614 -4.18347,6.07441 -4.18347,10.3784 0,3.86339 1.20591,7.12087 3.57992,9.73583 2.41299,2.61496 6.51615,5.10945 12.3508,7.48229zm14.7225 80.2536c5.02914,-0.562205 9.05079,-2.29252 11.987,-5.22993 2.9374,-2.97638 4.42559,-6.67678 4.42559,-11.1425 0,-4.62638 -1.32756,-8.52757 -3.94252,-11.7059 -2.65394,-3.21851 -6.79725,-5.95394 -12.4701,-8.32678l0 36.4051zm-14.7225 54.1063l0 -23.0906c-18.9484,-0.48189 -33.2292,-5.31024 -42.8032,-14.563 -9.57402,-9.21142 -14.5217,-22.8886 -14.8441,-40.9512l37.8142 0c0.16063,8.12599 1.80945,14.1201 4.90867,17.9823 3.09685,3.86103 8.08465,6.03308 14.9244,6.51615l0 -41.4733c-18.7866,-5.75315 -32.465,-12.7937 -41.0339,-21.2008 -8.56654,-8.40709 -12.8315,-18.9473 -12.8315,-31.6193 0,-14.2004 4.74685,-25.5449 14.2807,-34.0323 9.49371,-8.48741 22.689,-13.1953 39.5847,-14.0398l0 -13.676 14.7225 0 0 13.676c16.6547,0.242126 29.6079,4.58741 38.8607,13.0748 9.21142,8.48741 13.9583,20.3953 14.1992,35.7225l-37.5721 0c0,-5.91378 -1.32756,-10.3795 -3.90237,-13.4764 -2.61378,-3.13819 -6.47717,-4.78701 -11.5854,-5.02914l0 37.1303c20.5158,7.16103 34.9583,15.0047 43.3654,23.5736 8.40709,8.56772 12.6319,19.591 12.6319,33.1063 0,13.7587 -5.0693,25.1032 -15.2067,34.0725 -10.1374,8.97166 -23.7343,14.0398 -40.7906,15.2067l0 23.0906 -14.7225 0z"/>
 </g>
</svg>
