<?xml version="1.0" encoding="UTF-8"?>
<!DOCTYPE svg PUBLIC "-//W3C//DTD SVG 1.1//EN" "http://www.w3.org/Graphics/SVG/1.1/DTD/svg11.dtd">
<!-- Creator: CorelDRAW -->
<svg xmlns="http://www.w3.org/2000/svg" xml:space="preserve" width="2048px" height="2048px" style="shape-rendering:geometricPrecision; text-rendering:geometricPrecision; image-rendering:optimizeQuality; fill-rule:evenodd; clip-rule:evenodd"
viewBox="0 0 2048 2048"
 xmlns:xlink="http://www.w3.org/1999/xlink">
 <defs>
  <style type="text/css">
   <![CDATA[
    .fil0 {fill:none}
    .fil1 {fill:#212121;fill-rule:nonzero}
    .fil2 {fill:#f51d05;fill-rule:nonzero}
   ]]>
  </style>
 </defs>
 <g id="Layer_x0020_1">
  <metadata id="CorelCorpID_0Corel-Layer"/>
  <rect class="fil0" width="2048" height="2048"/>
  <rect class="fil0" width="2048" height="2048"/>
  <g id="_511798432">
   <path id="_511799128" class="fil1" d="M1133 1317.95l14.5748 42.0863c10.9429,-24.2575 15.3685,-50.5855 13.4575,-76.4741 -2.68937,-36.4193 -18.0921,-71.9552 -45.6851,-99.5481 -30.7146,-30.7146 -70.9784,-46.0737 -111.241,-46.0737 -40.2626,0 -80.5264,15.3591 -111.241,46.0737 -30.7146,30.7146 -46.0737,70.9784 -46.0737,111.241 0,40.2626 15.3591,80.5264 46.0737,111.241l-45.2504 45.2504c-43.2154,-43.2154 -64.8249,-99.8552 -64.8249,-156.491 0,-56.6363 21.6095,-113.276 64.8249,-156.491 43.2154,-43.2154 99.8552,-64.8249 156.491,-64.8249 56.6363,0 113.276,21.6095 156.491,64.8249 38.7437,38.7437 60.3851,88.8355 64.1859,140.299 2.87599,38.9457 -4.57205,78.6922 -22.6583,114.876l63.091 0 0 64.0016 -128.536 0 -22.6358 0 -7.48938 -21.626 -33.8055 -97.6146 60.2504 -20.7496z"/>
   <path id="_511799176" class="fil1" d="M1041.21 1201.94c0,-17.6728 -14.328,-32.0008 -32.0008,-32.0008 -17.6728,0 -32.0008,14.328 -32.0008,32.0008l0 113.47 -59.9906 92.4119c-9.59528,14.7732 -5.39882,34.5296 9.37442,44.1248 14.7732,9.59528 34.5296,5.39882 44.1248,-9.37442l63.854 -98.3623c4.16221,-5.40119 6.63898,-12.1689 6.63898,-19.5142l0 -122.756z"/>
  </g>
  <g id="_511797808">
   <path id="_511798480" class="fil1" d="M542.276 608.017l-60.6308 1151.99 1084.71 0 -60.6296 -1151.99 -176.447 0c-3.26575,-21.2209 -7.15276,-42.6437 -11.7508,-64.0016l218.475 0 30.2764 0.0011811 1.59921 30.3744 63.9981 1216 1.76929 33.626 -33.6449 0 -1152 0 -33.6449 0 1.76929 -33.626 63.9993 -1216 1.59921 -30.3744 30.2764 -0.0011811 213.967 0c-4.42914,21.15 -8.09764,42.5233 -11.0799,64.0016l-172.611 0zm658.195 0l-356.709 0c3.39331,-21.5906 7.61575,-42.9933 12.7866,-64.0016l330.564 0c5.27008,21.0047 9.68268,42.4111 13.3583,64.0016z"/>
   <path id="_511798216" class="fil2" d="M736.125 768.016c0.816142,-247.273 69.9804,-414.603 159.056,-491.946 38.2193,-33.1843 80.4745,-50.6847 123.476,-51.8918 43.2485,-1.21417 86.1497,14.0563 125.366,46.4221 87.9001,72.5516 158.602,235.756 167.854,496.29l-63.7512 2.25118c-8.53229,-240.284 -69.3308,-387.163 -144.602,-449.292 -26.8961,-22.1977 -55.3099,-32.7012 -83.1154,-31.9205 -28.0536,0.787796 -56.6056,13.0595 -83.4768,36.391 -76.7174,66.613 -136.305,216.792 -137.054,443.696l-63.7512 0z"/>
   <path id="_511797280" class="fil2" d="M768.019 704.006c26.5004,0 50.4993,10.7469 67.8686,28.1173 17.3705,17.3705 28.1173,41.3681 28.1173,67.8697 0,26.4154 -10.7492,50.3847 -28.1221,67.7682 -17.4425,17.4532 -41.4437,28.2555 -67.8638,28.2555 -26.5181,0 -50.5181,-10.7516 -67.8945,-28.1256 -17.3811,-17.3835 -28.1303,-41.3941 -28.1303,-67.8981 0,-26.4225 10.7941,-50.4284 28.2508,-67.8745 17.3799,-17.3693 41.3422,-28.1126 67.7741,-28.1126zm22.6181 73.3678c-5.78504,-5.78622 -13.7847,-9.36615 -22.6181,-9.36615 -8.93859,0 -16.9878,3.57874 -22.774,9.36142 -5.71418,5.71063 -9.24922,13.7067 -9.24922,22.624 0,8.84292 3.58465,16.8532 9.37914,22.6477 5.79095,5.78977 13.7965,9.37442 22.6441,9.37442 8.90906,0 16.9016,-3.53859 22.6134,-9.25394 5.78859,-5.79213 9.37087,-13.8413 9.37087,-22.7681 0,-8.83583 -3.58111,-16.8343 -9.36615,-22.6193z"/>
   <path id="_511798048" class="fil2" d="M1280.02 704.006c26.5028,0 50.5004,10.7469 67.8697,28.1173 17.3705,17.3705 28.1173,41.3681 28.1173,67.8697 0,26.4154 -10.7492,50.3847 -28.1221,67.7682 -17.4425,17.4532 -41.4437,28.2555 -67.865,28.2555 -26.5169,0 -50.5205,-10.7539 -67.8934,-28.1268 -17.3823,-17.3823 -28.1303,-41.3941 -28.1303,-67.8969 0,-26.4225 10.7941,-50.4284 28.2508,-67.8745 17.3776,-17.3693 41.341,-28.1126 67.7729,-28.1126zm22.6193 73.3678c-5.78504,-5.78622 -13.7847,-9.36615 -22.6193,-9.36615 -8.93859,0 -16.9866,3.57874 -22.7729,9.36142 -5.71418,5.71063 -9.24922,13.7067 -9.24922,22.624 0,8.84174 3.58465,16.852 9.37914,22.6465 5.79095,5.79095 13.7976,9.3756 22.6429,9.3756 8.91142,0 16.9028,-3.53859 22.6146,-9.25394 5.78859,-5.79213 9.37087,-13.8413 9.37087,-22.7681 0,-8.83583 -3.58111,-16.8343 -9.36615,-22.6193z"/>
  </g>
 </g>
</svg>
