<?xml version="1.0" encoding="UTF-8"?>
<!DOCTYPE svg PUBLIC "-//W3C//DTD SVG 1.1//EN" "http://www.w3.org/Graphics/SVG/1.1/DTD/svg11.dtd">
<!-- Creator: CorelDRAW -->
<svg xmlns="http://www.w3.org/2000/svg" xml:space="preserve" width="2048px" height="2048px" style="shape-rendering:geometricPrecision; text-rendering:geometricPrecision; image-rendering:optimizeQuality; fill-rule:evenodd; clip-rule:evenodd"
viewBox="0 0 2048 2048"
 xmlns:xlink="http://www.w3.org/1999/xlink">
 <defs>
  <style type="text/css">
   <![CDATA[
    .fil0 {fill:none}
    .fil3 {fill:#f51d05}
    .fil2 {fill:#212121;fill-rule:nonzero}
    .fil1 {fill:#f51d05;fill-rule:nonzero}
   ]]>
  </style>
 </defs>
 <g id="Layer_x0020_1">
  <metadata id="CorelCorpID_0Corel-Layer"/>
  <rect class="fil0" width="2048" height="2048"/>
  <rect class="fil0" x="255.999" y="255.999" width="1536" height="1536"/>
  <path class="fil1" d="M1091.91 798.223l664.688 0c17.9599,0 34.363,6.62126 46.415,17.3457 12.9874,11.5547 20.9917,27.7264 20.9917,45.7855l0 259.419c0,17.954 -8.01024,34.1256 -21.0071,45.7241 -12.1122,10.8106 -28.5142,17.504 -46.3996,17.504l-664.688 0c-17.9055,0 -34.441,-6.62481 -46.591,-17.315 -13.1327,-11.5559 -21.3142,-27.7736 -21.3142,-45.913l0 -259.419c0,-18.1606 8.17678,-34.3394 21.3,-45.8516 12.1713,-10.6784 28.7173,-17.2795 46.6052,-17.2795zm664.685 65.778l-665.517 0c-1.27441,0 -2.33268,0.253937 -3.07323,0.680315l0 254.599c0.752363,0.451181 1.81181,0.719292 3.07323,0.719292l665.517 0c1.10787,0 1.98189,-0.155906 2.57481,-0.424016l0 -255.089c-0.620079,-0.305906 -1.49882,-0.485433 -2.57481,-0.485433z"/>
  <path class="fil2" d="M1664 768.001l0 -240.529c0,-21.9437 -8.75552,-41.9256 -22.8402,-56.3788 -13.8284,-14.1898 -32.8571,-23.0292 -53.7284,-23.0292l-1222.86 0c-20.8725,0 -39.9012,8.83938 -53.7296,23.0292 -14.0847,14.4532 -22.8402,34.4351 -22.8402,56.3788l0 992.482c0,22.2166 8.7378,42.3437 22.7965,56.8524 13.8602,14.3032 32.9079,23.1933 53.7733,23.1933l1222.86 0c20.8642,0 39.9118,-8.89016 53.7721,-23.1933 14.0587,-14.5087 22.7965,-34.6359 22.7965,-56.8524l0 -303.952 64.0016 0 0 303.952c0,39.326 -15.7323,75.2256 -41.0469,101.352 -25.5166,26.3315 -60.7571,42.6957 -99.5233,42.6957l-1222.86 0c-38.7674,0 -74.0079,-16.3642 -99.5245,-42.6957 -25.3146,-26.126 -41.0469,-62.0256 -41.0469,-101.352l0 -992.482c0,-39.1134 15.7524,-74.876 41.0906,-100.878 25.5414,-26.2087 60.7654,-42.5315 99.4808,-42.5315l1222.86 0c38.7142,0 73.9382,16.3228 99.4796,42.5315 25.3382,26.002 41.0906,61.7646 41.0906,100.878l0 240.529 -64.0016 0z"/>
  <rect class="fil3" x="1152" y="928.001" width="127.48" height="128"/>
 </g>
</svg>
