<?xml version="1.0" encoding="UTF-8"?>
<!DOCTYPE svg PUBLIC "-//W3C//DTD SVG 1.1//EN" "http://www.w3.org/Graphics/SVG/1.1/DTD/svg11.dtd">
<!-- Creator: CorelDRAW -->
<svg xmlns="http://www.w3.org/2000/svg" xml:space="preserve" width="2048px" height="2048px" style="shape-rendering:geometricPrecision; text-rendering:geometricPrecision; image-rendering:optimizeQuality; fill-rule:evenodd; clip-rule:evenodd"
viewBox="0 0 2048 2048"
 xmlns:xlink="http://www.w3.org/1999/xlink">
 <defs>
  <style type="text/css">
   <![CDATA[
    .fil0 {fill:none}
    .fil3 {fill:#212121}
    .fil1 {fill:#212121;fill-rule:nonzero}
    .fil2 {fill:#f51d05;fill-rule:nonzero}
   ]]>
  </style>
 </defs>
 <g id="Layer_x0020_1">
  <metadata id="CorelCorpID_0Corel-Layer"/>
  <g id="_511796776">
   <rect id="_511795984" class="fil0" width="2048" height="2048"/>
   <g>
    <rect id="_511796392" class="fil0" x="255.999" y="255.999" width="1536" height="1536"/>
    <path id="_511796560" class="fil1" d="M418.009 1030.97l10.7091 359.215 560.056 107.897 0.499607 0.125197c0.740552,0.155906 1.48228,0.305906 2.22284,0.451181 0.0200788,-254.224 -0.119291,-508.698 -0.119291,-763.068l64.0016 0c0,255.747 -0.111024,511.58 -0.131102,767.181 8.03741,-0.596457 15.3118,-1.34528 19.3606,-2.19803l0.249213 0 544.421 -110.23 9.2445 -366 63.4819 5.54646 -9.1878 370.144c-0.323622,12.4347 -4.88386,23.9232 -12.391,32.9362 -7.56024,9.06851 -18.0567,15.6555 -30.189,18.2114l-0.249213 0 -552.391 111.843 0.0106299 0.0484252c-7.45276,1.56969 -17.8158,2.71536 -28.3099,3.48307 -22.0158,1.60984 -37.9914,0.0165354 -59.6091,-2.20276 -7.7126,-0.791339 -15.3626,-1.97244 -22.911,-3.54095l-0.00354331 0.0200788 -568.511 -109.526 -0.499607 -0.125197c-12.1287,-2.54173 -22.6276,-9.12875 -30.1925,-18.2043 -7.513,-9.01418 -12.0756,-20.5099 -12.3874,-32.9351l-9.45709 -365.027 62.2831 -4.0441z"/>
    <path id="_511796440" class="fil2" d="M1764.98 1005.9l-548.047 -55.3808c-9.68859,-0.97441 -18.6732,-4.46103 -26.1638,-9.88347 -7.53662,-5.45788 -13.6689,-12.9059 -17.5937,-21.7606l0.00944883 -0.00472441 -148.639 -328.222 -145.678 328.18 0.105118 0.046063c-3.92481,8.85473 -10.0571,16.3028 -17.5937,21.7606 -7.49056,5.42245 -16.4752,8.90906 -26.1638,9.88347l-548.047 55.3808c-10.0547,1.01457 -19.5744,-0.83504 -27.9673,-4.76103 -8.57363,-4.01457 -15.776,-10.128 -21.013,-17.5158 -5.29843,-7.47402 -8.72127,-16.3453 -9.67205,-25.7705 -0.918898,-9.11576 0.512599,-18.698 4.84607,-27.9567l145.931 -311.934c3.69095,-7.88505 9.1382,-14.6055 15.7665,-19.7221 6.66378,-5.14252 14.5488,-8.72009 23.074,-10.2815l602.191 -110.613 613.441 110.487 0.249213 0.125197c8.5252,1.56142 16.4102,5.13898 23.074,10.2815 6.62835,5.11654 12.0756,11.837 15.7665,19.7221l145.931 311.934c4.33347,9.25867 5.76497,18.841 4.84607,27.9567 -0.950788,9.4252 -4.37363,18.2965 -9.67205,25.7705 -5.23701,7.3878 -12.4394,13.5012 -21.013,17.5158 -8.39292,3.92599 -17.9126,5.77559 -27.9673,4.76103zm-535.807 -118.277l524.239 52.9748 -136.005 -290.717 -539.278 -95.7898 151.044 333.532zm-930.437 52.9748l524.306 -52.9807 149.425 -336.619 -537.668 98.7603 -136.063 290.84z"/>
    <polygon id="_511796824" class="fil3" points="640.001,1248 480.002,1216 480.002,1344 640.001,1376 "/>
   </g>
  </g>
 </g>
</svg>
