<?xml version="1.0" encoding="UTF-8"?>
<!DOCTYPE svg PUBLIC "-//W3C//DTD SVG 1.1//EN" "http://www.w3.org/Graphics/SVG/1.1/DTD/svg11.dtd">
<!-- Creator: CorelDRAW -->
<svg xmlns="http://www.w3.org/2000/svg" xml:space="preserve" width="2048px" height="2048px" style="shape-rendering:geometricPrecision; text-rendering:geometricPrecision; image-rendering:optimizeQuality; fill-rule:evenodd; clip-rule:evenodd"
viewBox="0 0 2048 2048"
 xmlns:xlink="http://www.w3.org/1999/xlink">
 <defs>
  <style type="text/css">
   <![CDATA[
    .fil1 {fill:none}
    .fil2 {fill:#212121;fill-rule:nonzero}
    .fil0 {fill:#f51d05;fill-rule:nonzero}
   ]]>
  </style>
 </defs>
 <g id="Layer_x0020_1">
  <metadata id="CorelCorpID_0Corel-Layer"/>
  <polygon class="fil0" points="1180.5,1088.25 1339.05,1070.79 1346.05,1134.29 1187.5,1151.75 "/>
  <polygon class="fil0" points="348.376,897.229 1436.38,769.229 1443.63,832.73 355.625,960.729 "/>
  <rect class="fil1" width="2048" height="2048"/>
  <rect class="fil1" x="255.999" y="255.999" width="1536" height="1536"/>
  <path class="fil2" d="M1146.86 1321.82l84.1572 11.1213c78.6107,10.3854 157.224,20.7756 235.83,31.1811 12.6331,1.6689 24.8232,-2.04921 34.3087,-9.40985 9.5256,-7.39253 16.291,-18.463 18.0248,-31.4516 5.54056,-41.8087 11.0717,-83.6209 16.598,-125.433 4.92874,-15.7087 7.14686,-32.263 6.47126,-48.9744 16.0465,-121.423 32.0634,-242.576 46.6512,-351.389l0.0318898 0.00472441 2.59961 -20.074 0 -0.125197c0.97441,-7.29686 0.204331,-14.4591 -1.97008,-21.0874 -2.25709,-6.88111 -6.07441,-13.1587 -11.0539,-18.3839l0.00236221 -0.00236221c-3.04725,-3.09803 -6.55985,-5.85 -10.4929,-8.10709 -3.70985,-2.12953 -7.62993,-3.73701 -11.687,-4.67835l0.00590552 -0.0271654 -0.444095 -0.101575 -0.0141732 0.0637796c-0.881103,-0.191339 -1.54843,-0.327166 -1.98307,-0.400394 -1.84016,-0.315355 -1.54252,-0.32126 -2.04213,-0.383859l-0.125197 0 -54.2965 -7.19646c-1.76929,-21.6036 -3.11457,-43.2213 -3.85158,-64.8544l66.3993 8.8004 -0.00236221 0.0153543c2.72008,0.343701 4.25906,0.549213 4.6689,0.618898 1.82126,0.31063 3.39922,0.611811 4.73268,0.901182l0.250394 0.124016 0.827953 0.188977 0.125197 0c10.6417,2.46969 20.3988,6.38623 29.1862,11.4295 9.15119,5.25119 17.4425,11.8323 24.7406,19.3595l0.249213 0.249213c11.4697,12.0354 20.2914,26.5878 25.5555,42.6343 5.01024,15.2681 6.76182,31.9288 4.46929,49.089l-0.0165354 -0.00236221 -2.61496 20.1957 0 0.249213c-17.3114,129.126 -32.6599,245.269 -48.0178,361.481 -7.22599,54.6886 -14.4555,109.381 -21.7028,164.067 -4.05945,30.417 -19.9252,56.3552 -42.2752,73.6997 -22.4079,17.3906 -51.3733,26.1508 -81.5599,22.161 -78.606,-10.4055 -157.219,-20.7957 -235.83,-31.1811 -120.666,-15.9437 -241.335,-31.8898 -361.994,-47.9044 95.3646,-8.79804 190.73,-17.5973 286.088,-26.4673z"/>
  <path class="fil2" d="M453.472 1288.76c1.21299,0.101575 2.57599,0.271654 3.9437,0.447638l0 -0.00826772c-0.0295276,-0.00590552 -0.0366142,-0.011811 0,-0.011811 1.76929,0 1.54016,0.0543308 1.97008,0.0330709 1.11378,-0.056693 1.86969,-0.10748 2.33977,-0.151181l0.125197 0 61.05 -5.68819c214.889,-19.624 429.748,-39.6461 644.602,-59.6634 79.0276,-7.363 158.058,-14.7284 237.086,-22.0713 12.5185,-1.16575 23.4898,-7.49292 31.0973,-16.7752 7.71969,-9.42048 11.8996,-21.7795 10.7008,-34.839 -5.09882,-54.9756 -10.2224,-109.952 -15.3425,-164.926 -11.2701,-120.979 -22.5425,-241.963 -33.5847,-362.964l-0.011811 0.0011811 -1.95354 -20.3941 0 -0.125197c-0.667323,-7.28623 -2.99646,-14.0539 -6.56812,-19.9937 -3.69685,-6.14882 -8.82048,-11.4071 -14.8819,-15.4228l0.0177165 -0.0271654c-3.81851,-2.45551 -7.86024,-4.3937 -12.0201,-5.66575 -3.98386,-1.21772 -8.16615,-1.90158 -12.4654,-1.92992l0 0.124016 -0.849213 0 0 -0.111024 -1.7941 0.0980316c-0.790158,0.0425197 -1.44685,0.090945 -1.9441,0.13937l-0.250394 0 -942.739 87.4572c-12.5894,1.16102 -23.5902,7.4941 -31.1882,16.761 -7.67008,9.3567 -11.8169,21.7181 -10.6099,34.8177l50.8666 548.321c1.05354,11.5642 6.02599,21.7016 13.4976,29.1697 7.52599,7.52245 17.654,12.3957 28.9099,13.3358l-0.00472441 0.0614174zm3.9437 0.447638l0.28937 0.0377953c0.173622,0.022441 -0.188977,-0.0236221 -0.28937,-0.046063l0 0.00826772zm-7.71142 63.2882c-0.0850394,-0.0106299 -0.177165,-0.022441 -0.603544,-0.046063l-0.875198 0c-26.615,-2.22402 -50.6705,-13.8555 -68.6587,-31.8366 -17.7437,-17.7366 -29.5335,-41.6079 -31.9984,-68.6705l-50.8666 -548.321c-2.8004,-30.3874 6.913,-59.1745 24.861,-81.0674 17.9894,-21.9402 44.3126,-36.9591 74.6882,-39.7618l942.491 -87.4347 -0.00236221 -0.022441c1.80473,-0.178347 3.45,-0.308268 4.9441,-0.389764 0.896457,-0.0484252 2.52047,-0.0862205 4.7941,-0.112205l0.250394 -0.125197 0.849213 0 0.125197 0.125197c10.7469,0.0413386 21.0851,1.70079 30.841,4.68307 10.2992,3.15 19.8614,7.69843 28.5024,13.3169l0.250394 0.124016c13.8154,9.15355 25.6465,21.3945 34.3819,35.9244 8.28426,13.7776 13.7067,29.6303 15.3059,46.8697l0.011811 -0.0011811 1.95354 20.3941 0 0.125197c11.0457,121.042 22.3229,242.067 33.5965,363.088 5.12008,54.9733 10.2437,109.95 15.3425,164.926 2.8063,30.5481 -6.84567,59.2997 -24.7016,81.0886 -17.9811,21.9414 -44.3611,36.9366 -74.8477,39.776 -79.0288,7.34292 -158.059,14.7083 -237.086,22.0713 -214.854,20.0173 -429.714,40.0394 -644.602,59.6634l-60.926 5.67638 0.0011811 0.011811c-2.11417,0.200788 -3.8067,0.336614 -5.08937,0.401575 -2.83229,0.144095 -4.56496,0.217323 -5.22048,0.217323 -2.30788,0 -5.00197,-0.346063 -7.71142,-0.693308z"/>
 </g>
</svg>
