<?xml version="1.0" encoding="UTF-8"?>
<!DOCTYPE svg PUBLIC "-//W3C//DTD SVG 1.1//EN" "http://www.w3.org/Graphics/SVG/1.1/DTD/svg11.dtd">
<!-- Creator: CorelDRAW -->
<svg xmlns="http://www.w3.org/2000/svg" xml:space="preserve" width="2048px" height="2048px" style="shape-rendering:geometricPrecision; text-rendering:geometricPrecision; image-rendering:optimizeQuality; fill-rule:evenodd; clip-rule:evenodd"
viewBox="0 0 2048 2048"
 xmlns:xlink="http://www.w3.org/1999/xlink">
 <defs>
  <style type="text/css">
   <![CDATA[
    .fil0 {fill:none}
    .fil1 {fill:#212121;fill-rule:nonzero}
    .fil2 {fill:#231F20;fill-rule:nonzero}
    .fil3 {fill:#f51d05;fill-rule:nonzero}
   ]]>
  </style>
 </defs>
 <g id="Layer_x0020_1">
  <metadata id="CorelCorpID_0Corel-Layer"/>
  <rect class="fil0" width="2048" height="2048"/>
  <rect class="fil0" x="255.999" y="255.999" width="1536" height="1536"/>
  <path class="fil1" d="M288 737.997l0 337.941 11.8913 12.0602 852.108 0 0 -350.001 0.00826772 0c-0.090945,-1.17992 -0.21378,-2.44843 -0.36378,-3.79843 -2.42717,-21.6862 -12.0815,-37.8449 -24.2492,-48.3189 -11.3374,-9.75946 -24.2339,-14.4874 -34.689,-13.9134l-0.125197 0c-0.103937,0.00472441 -0.562205,0.0543308 -1.35591,0.142913l-3.49961 0.250394 -735.451 0c-14.8772,0 -30.7099,8.51103 -43.1752,21.1536 -12.6095,12.789 -21.0992,29.0941 -21.0992,44.4839zm-64.0016 350.934l0 -350.934c0,-32.7154 15.9331,-65.23 39.6,-89.2335 23.811,-24.15 56.1225,-40.4055 88.6761,-40.4055l734.766 0c0.669686,-0.0484252 1.39134,-0.0944883 2.16496,-0.137008l0 -0.00590552c25.9949,-1.42795 55.8898,8.46142 79.9394,29.1638 23.2169,19.9843 41.5595,50.1355 46.0004,89.8205 0.304725,2.72481 0.550394,5.74016 0.731103,9.04725l0.125197 1.7504 0 382.002 0 32.0008 -32.0008 0 -897.368 0 -13.2591 0 -9.49135 -9.62599 -30.6331 -31.0677 -9.2504 -22.3748z"/>
  <path class="fil2" d="M290.945 1215.51l0 32.4862 60.5516 0c-10.7043,19.2945 -17.6563,40.9571 -19.8732,64.0016l-56.693 0c-13.161,0 -25.1185,-5.37756 -33.8032,-14.0587l-0.125197 -0.125197c-8.68111,-8.68465 -14.0587,-20.6421 -14.0587,-33.8032l0 -48.5008 64.0016 0z"/>
  <path class="fil3" d="M1528.36 959.998l-55.2544 -78.5209 -97.1068 0 0 78.5209 152.361 0zm-7.8189 -122.114l77.7993 110.561c5.98819,8.5004 8.69646,18.0614 8.69292,27.5197l0.125197 0c0,7.68898 -1.9311,15.2563 -5.44961,22.037 -3.52441,6.79961 -8.64686,12.7748 -15.0095,17.2595 -7.72796,5.44252 -17.1236,8.73898 -27.5516,8.73898l-199.165 0c-13.1669,0 -25.1173,-5.37402 -33.8032,-14.0563l-0.125197 0c-8.6882,-8.6882 -14.0575,-20.6858 -14.0575,-33.9296l0 -110.551c0,-13.1669 5.3752,-25.1197 14.0563,-33.8044l0.125197 -0.125197c8.6882,-8.68465 20.6445,-14.0575 33.8044,-14.0575l121.357 0c7.69607,0 15.2209,1.91221 21.9886,5.42245 6.7878,3.52205 12.7217,8.62087 17.2122,14.9858z"/>
  <path class="fil1" d="M1511.93 736.636l-214.882 -0.0295276c0,-17.8335 7.16221,-33.9886 18.7406,-45.6815 11.5784,-11.6941 27.5693,-18.9272 45.2315,-18.9272l150.91 0c26.5406,0 52.2343,6.66851 75.013,18.8941 22.7516,12.2102 42.6,30.0012 57.4808,52.2591l97.2898 145.534c8.79331,13.1445 15.6154,27.7146 20.3032,43.1859 4.68189,15.4453 7.09961,31.3335 7.09961,47.1378l0 187.078 6.90237 0c13.2437,0 25.2425,5.42717 33.9284,14.1992 8.68229,8.76851 14.0587,20.8878 14.0587,34.265l0 48.9827c0,13.3784 -5.37284,25.4929 -14.0587,34.2662 -8.68583,8.77205 -20.6811,14.198 -33.9284,14.198l-113.511 0c-3.13347,-23.4402 -11.0917,-45.3378 -22.8284,-64.6382l6.92008 0 113.405 0 0 -16.6347 -22.8886 0 -32.0008 0 0 -32.3185 0 -219.398c0,-9.95434 -1.39606,-19.539 -4.09725,-28.454 -2.69173,-8.88426 -6.8256,-17.5748 -12.3047,-25.7646l-97.2898 -145.534c-8.89489,-13.3051 -20.8016,-23.9634 -34.4799,-31.304 -13.6429,-7.32284 -29.061,-11.3162 -45.013,-11.3162zm-176.72 575.363l-675.558 0c-3.13347,-23.4402 -11.0917,-45.3378 -22.8284,-64.6382l721.215 0c-11.7366,19.3004 -19.6937,41.1981 -22.8284,64.6382z"/>
  <polygon class="fil3" points="861.029,1001.37 934.86,927.542 416,927.542 416,863.54 934.859,863.54 861.029,789.709 906.279,744.459 1034.74,872.916 1057.36,895.541 1034.74,918.166 906.279,1046.62 "/>
  <path class="fil1" d="M496 1194.85c36.7607,0 70.0489,14.9043 94.1457,39 24.0957,24.0969 39,57.3851 39,94.1457 0,36.7618 -14.9043,70.0501 -39,94.1457 -24.0969,24.0957 -57.3851,39 -94.1457,39 -36.7618,0 -70.0501,-14.9043 -94.1457,-39 -24.0957,-24.0957 -39,-57.3839 -39,-94.1457 0,-36.7607 14.9043,-70.0489 39,-94.1457 24.0957,-24.0957 57.3839,-39 94.1457,-39zm48.8953 84.2505c-12.5102,-12.5102 -29.7992,-20.2488 -48.8953,-20.2488 -19.0973,0 -36.3851,7.73859 -48.8953,20.2488 -12.5102,12.5102 -20.2488,29.7992 -20.2488,48.8953 0,19.0973 7.73859,36.3851 20.2488,48.8953 12.5102,12.5102 29.7981,20.2488 48.8953,20.2488 19.0961,0 36.3851,-7.73859 48.8953,-20.2488 12.5102,-12.5102 20.2488,-29.7981 20.2488,-48.8953 0,-19.0961 -7.73859,-36.3851 -20.2488,-48.8953z"/>
  <path class="fil1" d="M1498.86 1194.85c36.7618,0 70.0501,14.9043 94.1457,39 24.0957,24.0969 39,57.3851 39,94.1457 0,36.7618 -14.9043,70.0501 -39,94.1457 -24.0957,24.0957 -57.3839,39 -94.1457,39 -36.7607,0 -70.0489,-14.9043 -94.1457,-39 -24.0957,-24.0957 -39,-57.3839 -39,-94.1457 0,-36.7607 14.9043,-70.0489 39,-94.1457 24.0969,-24.0957 57.3851,-39 94.1457,-39zm48.8953 84.2505c-12.5102,-12.5102 -29.7981,-20.2488 -48.8953,-20.2488 -19.0961,0 -36.3851,7.73859 -48.8953,20.2488 -12.5102,12.5102 -20.2488,29.7992 -20.2488,48.8953 0,19.0973 7.73859,36.3851 20.2488,48.8953 12.5102,12.5102 29.7992,20.2488 48.8953,20.2488 19.0973,0 36.3851,-7.73859 48.8953,-20.2488 12.5102,-12.5102 20.2488,-29.7981 20.2488,-48.8953 0,-19.0961 -7.73859,-36.3851 -20.2488,-48.8953z"/>
 </g>
</svg>
