<?xml version="1.0" encoding="UTF-8"?>
<!DOCTYPE svg PUBLIC "-//W3C//DTD SVG 1.1//EN" "http://www.w3.org/Graphics/SVG/1.1/DTD/svg11.dtd">
<!-- Creator: CorelDRAW -->
<svg xmlns="http://www.w3.org/2000/svg" xml:space="preserve" width="2048px" height="2048px" style="shape-rendering:geometricPrecision; text-rendering:geometricPrecision; image-rendering:optimizeQuality; fill-rule:evenodd; clip-rule:evenodd"
viewBox="0 0 2048 2048"
 xmlns:xlink="http://www.w3.org/1999/xlink">
 <defs>
  <style type="text/css">
   <![CDATA[
    .fil0 {fill:none}
    .fil2 {fill:#212121;fill-rule:nonzero}
    .fil1 {fill:#f51d05;fill-rule:nonzero}
   ]]>
  </style>
 </defs>
 <g id="Layer_x0020_1">
  <metadata id="CorelCorpID_0Corel-Layer"/>
  <g id="_512354168">
   <rect id="_512354720" class="fil0" width="2048" height="2048"/>
   <g>
    <rect id="_512354600" class="fil0" x="255.999" y="255.999" width="1536" height="1536"/>
    <path id="_512354528" class="fil1" d="M925.814 364.61c-26.0091,-20.9008 -54.9886,-38.126 -86.1768,-50.8914 -40.4705,-16.565 -85.0146,-25.6996 -132.007,-25.6996l-0.0259843 0c-96.6131,0 -183.949,39.0709 -247.075,102.222 -63.28,63.3012 -102.404,150.692 -102.41,247.136l0.125197 0 0 0.0259843c0,40.0713 6.65906,78.2611 18.8575,113.582 8.98938,26.0315 20.9941,50.6894 35.5689,73.5721l513.143 -459.948zm-62.1768 -109.892c50.1744,20.5358 95.3268,50.5571 133.25,87.7867l26.9906 26.4969 -30.7406 22.1292c-1.93701,1.3937 -3.86221,2.82402 -5.73662,4.28504 -0.878741,0.68504 -2.53465,2.07992 -5.25473,4.44803l-0.0744095 -0.0850394 -553.502 496.124 -25.3713 22.7421 -21.0047 -26.8666c-27.9059,-35.6953 -50.1886,-76.1646 -65.3422,-120.043 -14.6256,-42.3473 -22.6087,-87.541 -22.6087,-134.332l0 -0.0259843 0.125197 0c0.00708662,-114.103 46.1989,-217.4 120.911,-292.136 74.8619,-74.889 178.205,-121.224 292.325,-121.224l0.0259843 0c54.9922,0 107.662,10.9122 156.007,30.7004z"/>
    <path id="_512354432" class="fil1" d="M423.792 1021.57l57.3461 39.2847c-36.7028,30.215 -105.3,56.3481 -150.92,36.6118 -15.2362,-6.59174 -28.0099,-16.6087 -37.5532,-29.0788 -9.59056,-12.5315 -15.9331,-27.4996 -18.2516,-43.9264 -5.37402,-38.067 11.2382,-83.6398 60.7796,-121.519l38.7496 50.7496c-28.6264,21.887 -38.7331,44.6327 -36.2788,62.0197 0.739371,5.2441 2.73898,9.99095 5.75079,13.9264 3.05906,3.99685 7.16103,7.21182 12.0532,9.32835 16.0512,6.94489 40.3571,3.48307 68.3245,-17.3965z"/>
    <path id="_512354360" class="fil2" d="M1428.34 1228.81c-12.411,0 -24.3,0.862205 -35.674,2.47087 -12.1831,1.72323 -24.2339,4.32166 -36.0945,7.65237l-20.2819 5.69646 -13.2189 -16.4469 -304.566 -378.937c-0.557481,-0.518504 -1.22126,-1.16221 -2.26299,-2.25591l-16.3134 -17.1118 11.6882 -20.6386c14.6374,-25.8461 26.1662,-53.7473 33.9579,-83.1851 7.44331,-28.1268 11.4437,-57.8221 11.4437,-88.6512 0,-24.3792 -2.41299,-47.7804 -6.97087,-70.0453 -1.67953,-8.20276 -3.65433,-16.3158 -5.9126,-24.3272l-467.091 418.438c13.5626,5.48741 27.5658,10.161 41.9422,13.9476 28.1103,7.40316 57.8162,11.3717 88.6453,11.3717 27.6118,0 54.4382,-3.27047 80.1449,-9.38505 27.0756,-6.44056 52.6642,-15.8457 76.4197,-27.7512l23.0126 -11.5323 16.1126 20.0327 293.824 365.294 13.8756 17.25 -11.2512 18.9992c-12.0366,20.3244 -21.4725,42.163 -27.7654,65.0268 -6.03544,21.9319 -9.28702,45.2941 -9.28702,69.7099 0,73.3323 29.7355,139.723 77.8016,187.781 48.0697,48.0603 114.48,77.7886 187.821,77.7886 73.4894,0 139.969,-29.7225 188.048,-77.7721 48.0142,-47.9823 77.706,-114.376 77.706,-187.798 0,-73.4268 -29.6953,-139.836 -77.7131,-187.831 -48.0804,-48.0603 -114.556,-77.791 -188.041,-77.791zm-44.4237 -60.7796c14.8299,-2.09882 29.6681,-3.22205 44.4237,-3.22205 90.9804,0 173.371,36.8965 233.041,96.5422 59.7579,59.7308 96.7146,142.152 96.7146,233.081 0,90.9272 -36.952,173.333 -96.7076,233.048 -59.6729,59.6363 -142.065,96.5233 -233.048,96.5233 -91.0052,0 -173.414,-36.8941 -233.072,-96.5398 -59.6504,-59.6398 -96.5528,-142.03 -96.5528,-233.032 0,-29.6162 4.12677,-58.6205 11.7886,-86.4603 5.89725,-21.4288 13.8284,-41.8866 23.5264,-61.1422l-264.844 -329.263c-21.5256,9.21379 -43.8083,16.6512 -66.6615,22.0878 -30.502,7.25552 -62.2666,11.1354 -94.8946,11.1354 -36.052,0 -71.2205,-4.75394 -104.895,-13.6228 -34.6701,-9.13111 -67.5993,-22.6855 -98.1284,-39.9532l-38.6103 -21.8374 33.1099 -29.6622 537.97 -481.934 33.1524 -29.6988 17.4732 40.9489c10.7646,25.2295 19.1634,51.8339 24.8433,79.5768 5.54056,27.0638 8.47323,54.75 8.47323,82.7965 0,36.0862 -4.78701,71.2418 -13.6949,104.901 -7.25316,27.404 -17.2665,53.713 -29.6764,78.6284l282.398 351.357c7.83308,-1.68898 15.7925,-3.11575 23.8701,-4.25906zm44.4237 507.214c-49.9288,0 -95.1272,-20.2441 -127.845,-52.9619 -32.7272,-32.7272 -52.9678,-77.9375 -52.9678,-127.851 0,-49.9134 20.2406,-95.1225 52.9678,-127.85 32.7177,-32.7177 77.9162,-52.9619 127.845,-52.9619 49.8993,0 95.0824,20.2382 127.82,52.9477 32.8311,32.8004 53.1237,78.0237 53.1237,127.864l-0.125197 0c-0.111024,49.9607 -20.3705,95.1969 -53.113,127.91 -32.7118,32.6823 -77.8229,52.9028 -127.706,52.9028zm-82.5946 -98.2123c21.1347,21.1347 50.3339,34.2107 82.5946,34.2107 32.3776,0 61.5886,-13.0536 82.7056,-34.1516 21.1831,-21.1642 34.2898,-50.4 34.3618,-82.6595l-0.125197 0c0,-32.3362 -13.0347,-61.5461 -34.1221,-82.6134 -21.1441,-21.1252 -50.4142,-34.1965 -82.8201,-34.1965 -32.2607,0 -61.4599,13.076 -82.5946,34.2107 -21.1406,21.1406 -34.2166,50.3493 -34.2166,82.5993 0,32.25 13.076,61.4599 34.2166,82.6005z"/>
    <path id="_512354264" class="fil1" d="M1049.35 329.371l-57.3461 -39.2847c36.7028,-30.215 105.3,-56.3481 150.92,-36.6118 15.2362,6.59174 28.0099,16.6087 37.5532,29.0788 9.59056,12.5315 15.9331,27.4996 18.2516,43.9264 5.37402,38.067 -11.2382,83.6398 -60.7796,121.519l-38.7496 -50.7496c28.6264,-21.887 38.7331,-44.6327 36.2788,-62.0197 -0.739371,-5.2441 -2.73898,-9.99095 -5.75079,-13.9264 -3.05906,-3.99685 -7.16103,-7.21182 -12.0532,-9.32835 -16.0512,-6.94489 -40.3571,-3.48307 -68.3245,17.3965z"/>
   </g>
  </g>
 </g>
</svg>
