<?xml version="1.0" encoding="UTF-8"?>
<!DOCTYPE svg PUBLIC "-//W3C//DTD SVG 1.1//EN" "http://www.w3.org/Graphics/SVG/1.1/DTD/svg11.dtd">
<!-- Creator: CorelDRAW -->
<svg xmlns="http://www.w3.org/2000/svg" xml:space="preserve" width="2048px" height="2048px" style="shape-rendering:geometricPrecision; text-rendering:geometricPrecision; image-rendering:optimizeQuality; fill-rule:evenodd; clip-rule:evenodd"
viewBox="0 0 2048 2048"
 xmlns:xlink="http://www.w3.org/1999/xlink">
 <defs>
  <style type="text/css">
   <![CDATA[
    .fil0 {fill:none}
    .fil1 {fill:#f51d05}
    .fil2 {fill:#212121;fill-rule:nonzero}
   ]]>
  </style>
 </defs>
 <g id="Layer_x0020_1">
  <metadata id="CorelCorpID_0Corel-Layer"/>
  <g id="_512355152">
   <rect id="_512356016" class="fil0" width="2048" height="2048"/>
   <rect id="_512355872" class="fil0" width="2048" height="2048"/>
   <path id="_512355752" class="fil1" d="M916.333 888.001l0 -17.8925c0,-8.01379 -3.16418,-15.5988 -8.82757,-21.261 -5.21339,-5.21339 -12.0496,-8.37166 -19.3654,-8.84646l-1.96181 0c-8.03741,0 -15.652,3.16536 -21.3331,8.84646 -1.17756,1.17874 -2.25827,2.45315 -3.22677,3.80788l-2.3941 3.34488 -50.739 0 3.51024 -10.5295c3.8374,-11.5122 10.3323,-21.9815 18.9106,-30.561 14.7,-14.7012 34.4764,-22.9087 55.2721,-22.9087l8.0752 0 0 0.477166c17.7803,1.82953 34.4138,9.6567 47.1898,22.4292 14.6847,14.6823 22.8898,34.4292 22.8898,55.2012l0 17.8925 35.667 0 0 176 -224 0 0 -176 140.333 0zm35.667 48l-128 0 0 79.9997 128 0 0 -79.9997z"/>
   <rect id="_512355608" class="fil0" x="255.999" y="255.999" width="1536" height="1536"/>
   <path id="_512355464" class="fil2" d="M1792 466.512c-15.7654,1.20473 -33.0047,2.2252 -49.8662,3.22087 -113.329,6.71339 -207.162,12.2669 -263.301,134.982l-360.612 793.822 -523.367 -0.347244 0.0755906 -62.6812 480.447 -0.302362 56.7248 -123.957 -536.63 0 -195.571 -337.618 -0.0944883 0.056693 -35.4 -61.3323 -55.4575 -95.7355 0.126378 -0.126378 -53.0752 -91.9359 73.3973 0 2.15551 4.48229 27.8858 48.3473 1016.78 0 45.2209 -98.895c71.9717,-157.339 182.943,-163.908 316.987,-171.843 16.6347,-0.989765 33.6792,-1.99843 53.5725,-3.60591l0 63.4689zm-1396.02 274.212l11.3717 19.7173 224.452 387.472 529.262 0 186.19 -407.189 -951.276 0z"/>
   <path id="_512355320" class="fil2" d="M647.084 1417.73c31.3654,0 59.7756,12.7193 80.3304,33.2811 20.5618,20.5559 33.2823,48.965 33.2823,80.3316 0,31.3725 -12.7205,59.7756 -33.2823,80.3375 -20.5547,20.5547 -48.965,33.2752 -80.3304,33.2752 -31.3725,0 -59.7756,-12.7205 -80.3304,-33.2752 -20.5618,-20.5618 -33.2823,-48.965 -33.2823,-80.3375 0,-31.3666 12.7205,-59.7756 33.2823,-80.3316 20.5547,-20.5618 48.9579,-33.2811 80.3304,-33.2811zm35.5512 78.0615c-9.09568,-9.09568 -21.665,-14.7248 -35.5512,-14.7248 -13.8862,0 -26.4555,5.62914 -35.5512,14.7248 -9.09568,9.09568 -14.7248,21.6709 -14.7248,35.5512 0,13.8862 5.62914,26.4614 14.7248,35.5571 9.09568,9.09568 21.665,14.7189 35.5512,14.7189 13.8862,0 26.4555,-5.62323 35.5512,-14.7189 9.09568,-9.09568 14.7248,-21.6709 14.7248,-35.5571 0,-13.8803 -5.62914,-26.4555 -14.7248,-35.5512z"/>
   <path id="_512355224" class="fil2" d="M1073.81 1417.73c31.3725,0 59.7756,12.7193 80.3304,33.2811 20.5618,20.5559 33.2823,48.965 33.2823,80.3316 0,31.3725 -12.7205,59.7756 -33.2823,80.3375 -20.5547,20.5547 -48.9579,33.2752 -80.3304,33.2752 -31.3725,0 -59.7756,-12.7205 -80.3375,-33.2752 -20.5547,-20.5618 -33.2752,-48.965 -33.2752,-80.3375 0,-31.3666 12.7205,-59.7756 33.2752,-80.3316 20.5618,-20.5618 48.965,-33.2811 80.3375,-33.2811zm35.5512 78.0615c-9.09568,-9.09568 -21.665,-14.7248 -35.5512,-14.7248 -13.8862,0 -26.4614,5.62914 -35.5583,14.7248 -9.09568,9.09568 -14.7177,21.6709 -14.7177,35.5512 0,13.8862 5.62205,26.4614 14.7177,35.5571 9.09686,9.09568 21.6721,14.7189 35.5583,14.7189 13.8862,0 26.4555,-5.62323 35.5512,-14.7189 9.09568,-9.09568 14.7248,-21.6709 14.7248,-35.5571 0,-13.8803 -5.62914,-26.4555 -14.7248,-35.5512z"/>
  </g>
 </g>
</svg>
