<?xml version="1.0" encoding="UTF-8"?>
<!DOCTYPE svg PUBLIC "-//W3C//DTD SVG 1.1//EN" "http://www.w3.org/Graphics/SVG/1.1/DTD/svg11.dtd">
<!-- Creator: CorelDRAW -->
<svg xmlns="http://www.w3.org/2000/svg" xml:space="preserve" width="2048px" height="2048px" style="shape-rendering:geometricPrecision; text-rendering:geometricPrecision; image-rendering:optimizeQuality; fill-rule:evenodd; clip-rule:evenodd"
viewBox="0 0 2048 2048"
 xmlns:xlink="http://www.w3.org/1999/xlink">
 <defs>
  <style type="text/css">
   <![CDATA[
    .fil0 {fill:none}
    .fil2 {fill:#212121;fill-rule:nonzero}
    .fil1 {fill:#f51d05;fill-rule:nonzero}
   ]]>
  </style>
 </defs>
 <g id="Layer_x0020_1">
  <metadata id="CorelCorpID_0Corel-Layer"/>
  <rect class="fil0" width="2048" height="2048"/>
  <rect class="fil0" x="255.999" y="255.999" width="1536" height="1536"/>
  <path class="fil1" d="M985.676 644.223c0,-42.8445 17.2417,-81.7288 45.0555,-109.954 27.9839,-28.3949 66.5847,-45.9733 109.074,-45.9733 16.4232,0 32.2063,2.70355 47.0233,7.61103 7.98662,2.64685 15.6827,5.93623 23.0339,9.78898 8.19213,-4.86969 16.865,-9.01536 25.9382,-12.3142 15.9567,-5.80158 32.9587,-9.01182 50.5654,-9.01182 14.9929,0 29.7189,2.34921 43.8638,6.66969 14.6469,4.47166 28.2236,10.9665 40.4363,19.0642l0.124016 0.125197c9.97442,6.69331 18.952,14.4744 26.85,23.0705 7.97363,8.67993 15.0744,18.4854 21.1914,29.0977l0.125197 0.125197c6.57638,11.5524 11.8973,24.1099 15.5599,37.526 3.5374,12.965 5.48622,26.2807 5.48622,39.7477 0,42.7181 -17.1756,81.4831 -44.8996,109.615 -27.8894,28.3004 -66.3626,45.8126 -108.737,45.8126 -16.2024,0 -31.9217,-2.63858 -46.767,-7.50473 -7.71497,-2.52992 -15.1914,-5.69174 -22.3701,-9.4252 -8.31497,4.96772 -17.1638,9.21261 -26.4756,12.6118 -16.0382,5.85591 -33.1512,9.0945 -50.9481,9.0945l0 -0.125197c-24.4736,-0.00590552 -47.4827,-5.84528 -67.8721,-16.1516 -21.1784,-10.7043 -39.6272,-26.315 -54.0248,-45.2646l-0.125197 0c-6.17599,-8.16142 -11.6847,-17.2205 -16.3925,-27.0685 -4.58268,-9.5882 -8.20158,-19.552 -10.7232,-29.7709l0 -0.250394c-1.46575,-6.12756 -2.69764,-12.0449 -3.47835,-17.4874 -0.947245,-6.59646 -1.51299,-13.1705 -1.51299,-19.6583zm90.5564 -65.204c-16.3925,16.6347 -26.5547,39.6863 -26.5547,65.204 0,3.8067 0.285827,7.33701 0.761812,10.6583 0.627166,4.37126 1.37126,8.12245 2.17205,11.5016l0.056693 -0.0141732c1.54725,6.26812 3.64488,12.1264 6.22323,17.5205 2.61142,5.46142 5.93977,10.8473 9.89174,16.0701l-0.0791339 0.0602363c8.47205,11.1331 19.3925,20.3421 31.9796,26.7036 11.8665,5.99764 25.1374,9.39804 39.1217,9.4004l0 -0.125197c10.4221,0 20.2158,-1.81417 29.1969,-5.09292 9.5941,-3.50197 18.6154,-8.81457 26.7839,-15.4914l19.0417 -15.5669 19.9583 14.5665c7.31221,5.33622 15.5811,9.60828 24.5634,12.5539 8.41536,2.75788 17.4898,4.25433 27.0166,4.25433 24.6957,0 47.067,-10.1539 63.2363,-26.5607 16.3004,-16.5402 26.3988,-39.4701 26.3988,-64.865 0,-8.26654 -1.06063,-15.9449 -2.98465,-22.9973 -2.14961,-7.87442 -5.42599,-15.5138 -9.55985,-22.7764l0.0401575 -0.022441c-3.54449,-6.12402 -7.84843,-11.9976 -12.8575,-17.4508 -4.67835,-5.09174 -9.77009,-9.55749 -15.2055,-13.2225l-0.0188977 0.0283465c-7.42442,-4.92284 -15.3898,-8.78387 -23.6858,-11.3162 -7.77757,-2.3752 -16.2721,-3.66733 -25.363,-3.66733 -10.2673,0 -19.9441,1.78465 -28.8142,5.01024 -9.67087,3.51614 -18.6295,8.72481 -26.5831,15.1973l-19.0654 15.515 -19.8095 -14.3894c-7.663,-5.56536 -16.161,-10.0299 -25.2662,-13.0465 -8.48977,-2.81103 -17.5583,-4.36063 -27.0225,-4.36063 -24.8138,0 -47.3079,10.2177 -63.5729,26.7213z"/>
  <path class="fil2" d="M319.149 1178.11c3.69803,1.80118 7.66064,3.24567 11.863,4.23898 3.68268,0.870473 7.61457,1.3441 11.778,1.3441l1136.64 0c7.51654,0 14.6138,-1.50118 21.0366,-4.22126 6.81969,-2.8878 13.0063,-7.1504 18.2551,-12.4595 5.55945,-5.59371 10.0973,-12.3579 13.213,-19.9347 2.92559,-7.10906 4.55788,-15.0225 4.55788,-23.4378l0 -679.126c0,-8.44961 -1.63583,-16.4067 -4.56733,-23.5488 -3.12638,-7.61575 -7.65945,-14.4024 -13.2036,-19.9807 -5.25,-5.3067 -11.4378,-9.5693 -18.261,-12.4595 -6.42166,-2.72008 -13.5165,-4.22126 -21.0307,-4.22126l-1136.64 0c-15.6106,0 -29.7733,6.60355 -40.0264,17.2772 -10.461,10.891 -16.9417,26.0634 -16.9417,42.9331l0 679.126c0,11.9138 3.31299,22.9512 9.00827,32.2051 5.92914,9.63426 14.3811,17.3965 24.3189,22.265zm-2.52402 66.7867c-8.65749,-2.04685 -17.0232,-5.12008 -25.0134,-9.013 -20.804,-10.1894 -38.3918,-26.2713 -50.6126,-46.1268 -11.8146,-19.1941 -18.6851,-41.8654 -18.6851,-66.117l0 -679.126c0,-34.1173 13.4079,-65.1119 35.0516,-87.6438 21.8835,-22.7799 52.1044,-36.8729 85.4245,-36.8729l1136.64 0c15.9685,0 31.2733,3.28701 45.3426,9.24568 14.4969,6.14174 27.574,15.1288 38.6008,26.2748 11.4614,11.5311 20.7638,25.4008 27.0969,40.8296 6.11575,14.902 9.53032,31.1906 9.53032,48.1666l0 679.126c0,16.9654 -3.41103,33.2032 -9.51969,48.0555 -6.34134,15.4158 -15.6496,29.2547 -27.1075,40.7835 -11.0232,11.1473 -24.0992,20.1343 -38.5949,26.2748 -14.0705,5.95985 -29.3788,9.24568 -45.3485,9.24568l-1136.64 0c-8.91615,0 -17.6622,-1.09134 -26.165,-3.10276z"/>
  <path class="fil2" d="M570.745 1735.68c3.9815,1.03228 8.15197,1.66063 12.4677,1.80118 3.78189,0.124016 7.73032,-0.191339 11.811,-1.01693l1114.07 -225.396c7.36654,-1.49055 14.0256,-4.3689 19.7811,-8.31024 6.11221,-4.18111 11.3303,-9.58583 15.4217,-15.8303 4.34055,-6.58583 7.44686,-14.1154 8.99764,-22.1599 1.45866,-7.54725 1.48819,-15.6272 -0.179528,-23.876l-121.112 -598.615 0 -156.167c11.5087,8.50512 21.6555,19.05 29.7945,31.2284 8.94922,13.3937 15.5256,28.6807 18.8929,45.3201l134.671 665.64c3.36378,16.6276 3.24095,33.2197 0.198425,48.9886 -3.15827,16.3677 -9.53741,31.7776 -18.4819,45.3485 -8.59371,13.1126 -19.6276,24.5138 -32.6185,33.4075 -12.6083,8.6315 -26.961,14.8878 -42.6154,18.0543l-1114.07 225.396c-8.73898,1.76811 -17.5288,2.43307 -26.2607,2.14843 -8.88898,-0.291733 -17.7,-1.6441 -26.3032,-3.8752 -22.4103,-5.86182 -42.8398,-18.1382 -58.7552,-35.1756 -15.3862,-16.4693 -26.615,-37.3264 -31.4244,-61.0973l-85.2757 -421.494 64.7941 0 82.728 408.899c2.36221,11.6787 7.79882,21.8398 15.2138,29.7815 7.72323,8.26772 17.5465,14.198 28.2532,16.9996z"/>
  <polygon class="fil1" points="600.748,1585.7 1364.5,1429.77 1382,1491.27 618.247,1647.2 "/>
  <polygon class="fil1" points="544.001,1403.93 779.588,1355.83 797.088,1417.33 561.5,1465.43 "/>
 </g>
</svg>
