<?xml version="1.0" encoding="UTF-8"?>
<!DOCTYPE svg PUBLIC "-//W3C//DTD SVG 1.1//EN" "http://www.w3.org/Graphics/SVG/1.1/DTD/svg11.dtd">
<!-- Creator: CorelDRAW -->
<svg xmlns="http://www.w3.org/2000/svg" xml:space="preserve" width="2048px" height="2048px" style="shape-rendering:geometricPrecision; text-rendering:geometricPrecision; image-rendering:optimizeQuality; fill-rule:evenodd; clip-rule:evenodd"
viewBox="0 0 2048 2048"
 xmlns:xlink="http://www.w3.org/1999/xlink">
 <defs>
  <style type="text/css">
   <![CDATA[
    .fil0 {fill:none}
    .fil1 {fill:#212121;fill-rule:nonzero}
    .fil2 {fill:#f51d05;fill-rule:nonzero}
   ]]>
  </style>
 </defs>
 <g id="Layer_x0020_1">
  <metadata id="CorelCorpID_0Corel-Layer"/>
  <g id="_509850496">
   <g>
    <rect id="_509847688" class="fil0" width="2048" height="2048"/>
    <rect id="_509847256" class="fil0" x="255.999" y="255.999" width="1536" height="1536"/>
   </g>
   <polygon id="_509853136" class="fil1" points="483.643,1219.93 483.643,351.259 483.643,319.999 515.644,319.999 1551.49,319.999 1551.49,382.519 547.645,382.519 547.645,1222.89 696.145,1075.75 741.645,1119.46 540.246,1319.02 517.641,1341.42 494.87,1319.14 291.538,1120.22 336.788,1076.26 "/>
   <polygon id="_509846080" class="fil1" points="1754.16,690.566 1607.3,550.483 1607.3,1665.52 1607.3,1696 1575.3,1696 512.516,1696 480.515,1696 480.515,1665.52 480.515,1391.77 544.517,1391.77 544.517,1635.04 1543.3,1635.04 1543.3,547.6 1394.8,691.066 1349.3,648.445 1550.7,453.87 1573.31,432.031 1596.08,453.75 1799.41,647.706 "/>
   <path id="_509847928" class="fil2" d="M1046.17 1226.77l0 -179.765c-56.8158,-16.1173 -98.4993,-40.2898 -125.055,-72.815 -26.4024,-32.5252 -39.7548,-71.9363 -39.7548,-118.233 0,-46.8827 14.9835,-86.2926 44.9492,-118.233 30.111,-31.9382 70.0182,-50.2512 119.861,-55.2331l0 -42.4878 62.8997 0 0 42.4878c46.1363,5.56772 82.7753,20.9504 110.072,46.591 27.1465,25.6382 44.5052,59.9221 52.0678,102.848l-109.923 14.2122c-6.6756,-33.8457 -24.0307,-56.7 -52.2166,-68.7142l0 167.752c69.5753,18.6071 117.045,42.7819 142.115,72.3768 25.2177,29.5949 37.826,67.5414 37.826,113.982 0,51.7182 -15.8728,95.3788 -47.4697,130.832 -31.7457,35.6032 -75.9508,57.2859 -132.471,65.3457l0 80.2867 -62.8997 0 0 -78.2375c-50.1402,-6.00591 -90.9343,-24.4666 -122.236,-55.3808 -31.2992,-30.7654 -51.1784,-74.426 -59.9315,-130.832l113.485 -12.0142c4.59804,22.8555 13.3512,42.6355 26.1083,59.1898 12.6083,16.5555 26.85,28.5697 42.574,36.0414zm0 -450.659c-17.2063,5.71182 -30.7075,15.5291 -40.9429,29.1544 -10.0866,13.7717 -15.1311,29.0103 -15.1311,45.5658 0,15.0886 4.6004,29.3008 13.7976,42.1937 9.34607,13.0394 23.439,23.5866 42.2764,31.6465l0 -148.56zm62.8997 456.668c21.8067,-3.95551 39.4595,-13.9181 53.1071,-29.7414 13.6488,-15.9709 20.4709,-34.578 20.4709,-56.1119 0,-19.1953 -5.78622,-35.6044 -17.2063,-49.5225 -11.4236,-13.9181 -30.2634,-24.613 -56.3717,-31.9382l0 167.314z"/>
  </g>
 </g>
</svg>
