<?xml version="1.0" encoding="UTF-8"?>
<!DOCTYPE svg PUBLIC "-//W3C//DTD SVG 1.1//EN" "http://www.w3.org/Graphics/SVG/1.1/DTD/svg11.dtd">
<!-- Creator: CorelDRAW -->
<svg xmlns="http://www.w3.org/2000/svg" xml:space="preserve" width="2048px" height="2048px" style="shape-rendering:geometricPrecision; text-rendering:geometricPrecision; image-rendering:optimizeQuality; fill-rule:evenodd; clip-rule:evenodd"
viewBox="0 0 2048 2048"
 xmlns:xlink="http://www.w3.org/1999/xlink">
 <defs>
  <style type="text/css">
   <![CDATA[
    .fil0 {fill:none}
    .fil1 {fill:#212121;fill-rule:nonzero}
    .fil2 {fill:#f51d05;fill-rule:nonzero}
   ]]>
  </style>
 </defs>
 <g id="Layer_x0020_1">
  <metadata id="CorelCorpID_0Corel-Layer"/>
  <rect class="fil0" width="2048" height="2048"/>
  <rect class="fil0" x="255.999" y="255.999" width="1536" height="1536"/>
  <path class="fil1" d="M298.885 366.571l204.466 80.3753 16.5343 6.49961 3.21496 17.5004 142.668 776.508c3.36614,0.461811 8.54646,0.542126 14.4957,0.542126l23.7378 0 43.3252 0 -12.8256 41.3764 -51.2823 165.448 -0.499607 1.5c-0.496063,1.3689 -0.640158,2.81575 -0.452363,4.21772 0.197244,1.47284 0.72756,2.88425 1.56614,4.11024l0.0578741 -0.0401575c0.849213,1.20236 1.94055,2.15079 3.16181,2.78386 1.22835,0.636615 2.6811,0.983859 4.24725,0.983859l44.7048 0 0 64.0016 -44.7048 0c-11.7413,0 -23.2134,-2.90079 -33.4985,-8.23583 -10.2898,-5.33741 -19.3122,-13.0878 -26.1603,-22.7823l0 -0.125197c-6.8315,-9.75355 -11.0941,-20.8087 -12.6248,-32.1969 -1.50473,-11.191 -0.409843,-22.7256 3.42874,-33.6969l38.4733 -124.122c-8.12599,-0.826772 -15.8646,-2.48268 -23.3858,-5.71772 -17.7047,-7.61457 -29.817,-20.9941 -34.2166,-45.0555l-0.022441 0.00472441 -139.728 -760.504 -187.931 -73.8756 23.2512 -59.4993z"/>
  <path class="fil2" d="M794.143 1248l743.254 0c3.90945,0 7.4693,-1.17402 10.2591,-3.20788 2.88544,-2.10354 5.13544,-5.13662 6.31063,-8.76733l0 -0.125197 205.349 -625.66 0.0708662 0.022441c0.713386,-2.37874 0.850394,-5.02441 0.442914,-7.73268 -0.413386,-2.75079 -1.3937,-5.33032 -2.90197,-7.51536l0.0248032 -0.0165354c-1.48701,-2.07284 -3.5067,-3.8126 -5.87835,-5.11418 -2.34921,-1.28858 -4.90394,-2.04095 -7.48229,-2.15079l0 -0.00472441 -1173.58 -38.524 -11.798 -64.2119 1187.75 38.9894 0.124016 0c12.8032,0.54567 24.9862,4.00512 35.7343,9.90119 10.7067,5.87481 20.139,14.2866 27.4772,24.7559l0.125197 0.125197c7.23898,10.4847 11.8394,22.2213 13.6524,34.265 1.80827,11.9988 0.850394,24.5504 -3.01299,36.7111l0 0.250394 -205.349 625.66 -0.0366142 -0.011811c-5.43544,16.702 -15.9532,30.7595 -29.5252,40.6548 -13.6677,9.96379 -30.267,15.7087 -47.7591,15.7087l-743.254 0 0 -64.0016z"/>
  <path class="fil1" d="M1543.11 1597.51c0,45.3036 -18.3685,86.328 -48.0626,116.027 -29.6906,29.6953 -70.7103,48.0674 -116.014,48.0674 -45.2398,0 -86.2229,-18.4075 -115.95,-48.1642 -29.6799,-29.7095 -48.0166,-70.7056 -48.0166,-115.93 0,-45.2433 18.3319,-86.2347 48.0059,-115.935 29.7296,-29.7591 70.7162,-48.1595 115.961,-48.1595 45.3083,0 86.3316,18.3638 116.024,48.0615 29.6882,29.6929 48.052,70.7127 48.052,116.033zm-93.3131 70.7764c18.1087,-18.111 29.3114,-43.1363 29.3114,-70.7764 0,-27.6544 -11.198,-52.6772 -29.3008,-70.7823 -18.1087,-18.111 -43.1327,-29.3103 -70.7741,-29.3103 -27.7276,0 -52.7115,11.1413 -70.7103,29.1579 -18.0827,18.0992 -29.2547,43.1752 -29.2547,70.9347 0,27.7453 11.1756,52.8225 29.2654,70.93 17.9988,18.0165 42.9792,29.1626 70.6997,29.1626 27.6343,0 52.6548,-11.2051 70.7634,-29.3162z"/>
  <path class="fil1" d="M1088 1597.51c0,45.3036 -18.3685,86.328 -48.0626,116.027 -29.6906,29.6953 -70.7103,48.0674 -116.014,48.0674 -45.2398,0 -86.2229,-18.4075 -115.95,-48.1642 -29.6799,-29.7095 -48.0166,-70.7056 -48.0166,-115.93 0,-45.2433 18.3319,-86.2347 48.0059,-115.935 29.7296,-29.7591 70.7162,-48.1595 115.961,-48.1595 45.3083,0 86.3316,18.3638 116.024,48.0615 29.6882,29.6929 48.052,70.7127 48.052,116.033zm-93.3131 70.7764c18.1087,-18.111 29.3114,-43.1363 29.3114,-70.7764 0,-27.6544 -11.198,-52.6772 -29.3008,-70.7823 -18.1075,-18.111 -43.1327,-29.3103 -70.7741,-29.3103 -27.7276,0 -52.7115,11.1413 -70.7103,29.1579 -18.0827,18.0992 -29.2547,43.1752 -29.2547,70.9347 0,27.7453 11.1756,52.8225 29.2654,70.93 17.9988,18.0165 42.9792,29.1626 70.6997,29.1626 27.6343,0 52.6559,-11.2051 70.7634,-29.3162z"/>
 </g>
</svg>
