<?xml version="1.0" encoding="UTF-8"?>
<!DOCTYPE svg PUBLIC "-//W3C//DTD SVG 1.1//EN" "http://www.w3.org/Graphics/SVG/1.1/DTD/svg11.dtd">
<!-- Creator: CorelDRAW -->
<svg xmlns="http://www.w3.org/2000/svg" xml:space="preserve" width="2048px" height="2048px" style="shape-rendering:geometricPrecision; text-rendering:geometricPrecision; image-rendering:optimizeQuality; fill-rule:evenodd; clip-rule:evenodd"
viewBox="0 0 2048 2048"
 xmlns:xlink="http://www.w3.org/1999/xlink">
 <defs>
  <style type="text/css">
   <![CDATA[
    .fil0 {fill:none}
    .fil1 {fill:#212121;fill-rule:nonzero}
    .fil2 {fill:#231F20;fill-rule:nonzero}
    .fil3 {fill:#f51d05;fill-rule:nonzero}
   ]]>
  </style>
 </defs>
 <g id="Layer_x0020_1">
  <metadata id="CorelCorpID_0Corel-Layer"/>
  <rect class="fil0" width="2048" height="2048"/>
  <rect class="fil0" x="255.999" y="255.999" width="1536" height="1536"/>
  <path class="fil1" d="M1064.08 1544.58l8.8819 26.3681 710.336 -281.651 -338.824 -738.654 -115.551 45.815c-7.64646,-13.0488 -15.7559,-26.0693 -24.313,-38.8607l143.072 -56.7284 19.8272 -7.86024 8.93387 19.4752 357.649 779.692 9.89056 21.561 -22.0323 8.73544 -754.4 299.123 -22.0323 8.73544 -5.16142 -15.3177 23.7248 -70.4339zm180.493 -914.676l-99.9875 39.6449c0.823229,-8.72009 1.43858,-17.4402 1.8248,-26.1484 0.338977,-7.67245 0.500788,-15.4382 0.458268,-23.2583l72.339 -28.6819c8.90434,12.3874 17.3504,25.2591 25.3654,38.4437z"/>
  <path class="fil1" d="M932.053 601.306c2.04803,-42.0733 10.7421,-77.6989 24.574,-105.88 11.7969,-3.01418 24.4524,-3.59882 35.8146,1.28032 4.00158,1.71732 7.67717,4.03347 11.0421,6.77008 -1.79764,2.88662 -3.51969,5.91378 -5.16142,9.07914 -13.9087,26.8299 -21.9496,62.6233 -22.2,106.224l-44.0693 -17.4732zm131.834 -184.908c17.7862,-1.41378 36.6142,0.908268 56.1059,7.20591 76.3997,24.6874 165.076,113.205 238.784,281.417l-41.1626 18.0272c-66.6969,-152.209 -142.991,-232.468 -207.639,-255.409 -12.098,-20.0445 -27.4429,-37.6205 -46.0878,-51.241z"/>
  <path class="fil2" d="M1321.59 672.113c17.3563,-6.88229 35.8618,-6.0756 51.7453,0.790158 15.887,6.86457 29.1555,19.7894 36.0366,37.1433 6.85749,17.2984 6.04371,35.7862 -0.819686,51.6815 -6.88938,15.9591 -19.8036,29.2654 -37.1055,36.1252 -17.3646,6.88583 -35.876,6.0756 -51.7642,-0.790158 -1.10906,-0.480709 -2.20748,-0.989765 -3.29055,-1.52835l12.4323 -36.9083 -49.8296 -19.7587c-0.591733,-10.6287 1.36299,-21.1524 5.51339,-30.7477 6.8693,-15.887 19.7717,-29.1449 37.0819,-36.0071zm33.8622 42.1725c-5.28898,-2.2878 -11.4579,-2.55473 -17.2429,-0.261024 -5.85473,2.32205 -10.1953,6.75473 -12.4831,12.0437 -2.25945,5.22284 -2.49803,11.3776 -0.18189,17.2169 2.29488,5.79095 6.72166,10.1055 12.0213,12.3957 5.29607,2.2878 11.4697,2.55709 17.263,0.259843 5.83465,-2.31378 10.1504,-6.7063 12.4051,-11.9327 2.2878,-5.29489 2.5441,-11.4969 0.225591,-17.3433 -2.29252,-5.78504 -6.71457,-10.0937 -12.0071,-12.3791z"/>
  <path class="fil3" d="M803.43 631.575l226.168 94.4717c3.38386,-15.0201 5.1815,-36.1004 7.24961,-51.2008l-208.053 -81.7146c-8.90434,12.3874 -17.3516,25.2591 -25.3654,38.4437z"/>
  <path class="fil3" d="M1061.7 806.723c-17.354,-6.88111 -35.8607,-6.0756 -51.7453,0.790158 -15.8858,6.86457 -29.1544,19.7894 -36.0355,37.1445 -6.85867,17.2984 -6.04371,35.7862 0.819686,51.6804 6.89056,15.9591 19.8024,29.2654 37.1044,36.1252 17.3658,6.88583 35.8736,6.0756 51.7642,-0.788977 15.8965,-6.87166 29.1697,-19.8036 36.052,-37.1599 6.86103,-17.3032 6.02481,-35.8264 -0.876379,-51.7843 -6.87166,-15.887 -19.774,-29.1449 -37.0831,-36.0071zm-33.8622 42.1725c5.29134,-2.28662 11.4591,-2.55473 17.2441,-0.261024 5.85355,2.32087 10.1953,6.75473 12.4831,12.0437 2.25945,5.22402 2.49803,11.3776 0.18189,17.2181 -2.29606,5.78977 -6.72284,10.1055 -12.0225,12.3957 -5.29489,2.2878 -11.4685,2.55591 -17.263,0.258662 -5.83347,-2.3126 -10.1492,-6.7063 -12.4051,-11.9315 -2.28662,-5.29607 -2.54292,-11.4969 -0.225591,-17.3433 2.29488,-5.78622 6.71693,-10.0937 12.0071,-12.3803z"/>
  <path class="fil3" d="M726.414 673.779c-17.3563,-6.88111 -35.8618,-6.07441 -51.7465,0.790158 -15.8858,6.86575 -29.1544,19.7906 -36.0355,37.1445 -6.85867,17.2984 -6.04371,35.7862 0.819686,51.6815 6.89056,15.9579 19.8036,29.2642 37.1055,36.124 17.3646,6.88583 35.876,6.0756 51.7642,-0.790158 15.8965,-6.8693 29.1697,-19.8024 36.0508,-37.1587 6.86103,-17.3032 6.02599,-35.8264 -0.876379,-51.7831 -6.8693,-15.887 -19.7728,-29.1449 -37.0819,-36.0083zm-33.8634 42.1725c5.29134,-2.28662 11.4591,-2.55355 17.2453,-0.259843 5.85355,2.32087 10.1941,6.75473 12.4819,12.0437 2.25945,5.22284 2.49803,11.3776 0.183071,17.2169 -2.29606,5.78977 -6.72402,10.1043 -12.0225,12.3945 -5.29607,2.28898 -11.4709,2.55709 -17.263,0.261024 -5.83583,-2.31378 -10.1504,-6.7063 -12.4063,-11.9327 -2.28662,-5.29607 -2.54292,-11.4969 -0.22441,-17.3421 2.2937,-5.78741 6.71575,-10.0949 12.0059,-12.3815z"/>
  <path class="fil3" d="M1065.97 856.922c63.6709,-162.142 61.826,-289.679 23.576,-363.456 -16.4114,-31.6547 -39.5386,-54.0874 -67.3855,-66.0438 -28.0063,-12.0248 -60.065,-13.1634 -94.1505,-2.15197 -76.4008,24.6886 -165.078,113.206 -238.785,281.418l41.1638 18.0272c67.9772,-155.137 145.93,-235.536 211.355,-256.677 23.3764,-7.55197 44.7118,-7.05237 62.7178,0.677953 18.1665,7.80001 33.6768,23.25 45.2162,45.5067 32.9433,63.5422 32.9705,177.36 -25.4563,326.145l41.7485 16.5543z"/>
  <path class="fil3" d="M1234.46 802.478l-259.416 770.14 -710.334 -281.649 338.825 -738.654 115.549 45.815c7.64882,-13.0488 15.7571,-26.0693 24.3142,-38.8618l-143.072 -56.7272 -19.8272 -7.86142 -8.93387 19.4764 -357.649 779.692 -9.89056 21.5599 22.0323 8.73544 754.401 299.124 22.0323 8.73544 7.57205 -22.4799 273.829 -812.926 6.83977 -20.3067 -19.8272 -7.8626 -140.119 -55.5579c-2.59134,15.0012 -5.7378,29.9492 -9.36142,44.7898l113.035 44.8193z"/>
 </g>
</svg>
