<?xml version="1.0" encoding="UTF-8"?>
<!DOCTYPE svg PUBLIC "-//W3C//DTD SVG 1.1//EN" "http://www.w3.org/Graphics/SVG/1.1/DTD/svg11.dtd">
<!-- Creator: CorelDRAW -->
<svg xmlns="http://www.w3.org/2000/svg" xml:space="preserve" width="2048px" height="2048px" style="shape-rendering:geometricPrecision; text-rendering:geometricPrecision; image-rendering:optimizeQuality; fill-rule:evenodd; clip-rule:evenodd"
viewBox="0 0 2048 2048"
 xmlns:xlink="http://www.w3.org/1999/xlink">
 <defs>
  <style type="text/css">
   <![CDATA[
    .fil0 {fill:none}
    .fil4 {fill:#212121}
    .fil1 {fill:#f51d05}
    .fil3 {fill:#212121;fill-rule:nonzero}
    .fil2 {fill:#f51d05;fill-rule:nonzero}
   ]]>
  </style>
 </defs>
 <g id="Layer_x0020_1">
  <metadata id="CorelCorpID_0Corel-Layer"/>
  <rect class="fil0" width="2048" height="2048"/>
  <rect class="fil0" x="256.001" y="255.997" width="1536" height="1536.01"/>
  <path class="fil1" d="M1071.77 1602.45c-175.582,-0.975591 -414.601,-34.1303 -480.959,-227.4 -38.0599,-110.849 -3.71221,-236.495 42.2646,-339.571 47.5288,-106.552 122.647,-223.127 198.358,-312.92l6.80315 -8.06812 9.0319 -5.4567c64.5296,-38.9823 163.906,-45.3579 236.62,-40.8331l24.1276 1.50118 17.1095 17.0776c128.506,128.265 294.561,311.803 353.967,487.069 36.5906,107.955 32.954,219.714 -50.1107,305.055 -27.2563,28.004 -60.0898,49.8544 -95.1721,66.8103 -73.4245,35.4862 -179.575,57.1937 -262.04,56.7355zm-191.408 -838.636c-46.4469,55.0855 -624.567,759.568 191.764,774.638 25.0996,-0.184252 804.01,-11.6421 7.78819,-806.376 -125.353,-7.80001 -186.189,23.6646 -199.552,31.7374z"/>
  <path class="fil2" d="M1082.27 556.55c14.8547,-36.0945 39.2398,-101.607 22.2721,-105.462l-0.125197 -0.0106299c-1.1126,-0.253937 -102.331,25.7055 -180,42.9638 -15.6697,3.48071 -28.5827,5.59489 -38.752,7.05237l36.5091 68.3044c34.1941,-9.68032 96.2363,-22.6158 160.096,-12.848zm36.2445 -167.752c86.3823,12.1984 33.2221,170.123 12.0154,217.349l-11.0776 24.6638 -26.0351 -6.81142c-84.7701,-22.1764 -174.989,13.5095 -175.25,13.6099l-26.3705 10.2898 -13.3028 -24.887 -27.5103 -51.4701 34.0276 -34.5425c-17.7425,-32.563 -42.7063,-57.4949 -74.739,-74.9623 25.9736,-19.9736 274.362,-70.3902 308.242,-73.239z"/>
  <path class="fil3" d="M1438.44 537.95c5.54882,-28.2118 12.7347,-70.5579 5.88308,-70.6878l-0.625985 0c-1.38189,-0.0507874 -70.4623,35.1012 -126.406,60.2398 -8.13898,3.6567 -15.163,6.36615 -21.137,8.46024l29.1284 34.9607c25.1492,-12.5492 66.7878,-29.5418 113.158,-32.9729zm6.87993 -134.257l0.00236221 -0.18189c0.167717,0.00354331 0.325985,0.0200788 0.49252,0.0248032 0.068504,-0.0177165 0.109843,-0.0259843 0.133465,-0.0248032l-0.0011811 0.0307087c88.1918,2.48386 49.7138,172.343 49.6052,172.831l-5.89371 26.4355 -26.8571 -1.43504c-66.0355,-3.52677 -127.551,36.8622 -127.729,36.9768l-23.7532 15.378 -18.1217 -21.7524 -89.3316 -107.218c29.2784,-34.4079 44.2477,-36.104 87.4241,-55.5048 59.1048,-26.5595 145.801,-62.7343 154.03,-65.5595z"/>
  <path class="fil2" d="M1029.23 1167.33l0 119.843 0 15.7961 -14.2583 -6.77245c-6.04725,-2.87244 -11.7815,-6.59764 -17.1839,-11.1709 -5.27481,-4.46693 -10.239,-9.74292 -14.8701,-15.8256l0.00590552 -0.00472441c-4.76693,-6.19252 -8.76261,-12.9343 -11.9705,-20.2075 -2.0126,-4.5626 -3.73111,-9.38623 -5.15079,-14.4638l-56.3339 5.96339c2.77914,13.7079 6.68268,26.074 11.7201,37.0878 6.13347,13.4114 13.9748,24.828 23.5429,34.2319 9.57757,9.45946 20.6268,17.0232 33.1311,22.689 12.6508,5.73071 26.837,9.53859 42.5386,11.4189l8.82875 1.05709 0 8.86418 0 42.1583 21.9319 0 0 -43.5237 0 -8.65749 8.59371 -1.2248c17.804,-2.53819 33.5906,-7.18583 47.3445,-13.9595 13.5449,-6.67087 25.1894,-15.4536 34.9158,-26.3622 9.70749,-10.8921 16.9854,-23.0055 21.8162,-36.3213 4.85552,-13.3854 7.29095,-28.1433 7.29095,-44.2595 0,-14.4969 -1.91929,-27.5221 -5.75552,-39.0803 -3.78189,-11.3941 -9.463,-21.5327 -17.0398,-30.424l-0.0389764 -0.0389764c-7.47284,-8.82166 -18.5351,-16.9654 -33.1571,-24.4122 -15.1902,-7.73505 -34.0488,-14.6185 -56.5477,-20.6362l-7.42205 -1.98543 0 -7.663 0 -111.834 0 -15.1051 13.9063 5.9256c10.9925,4.68426 19.9252,11.5512 26.8075,20.6103 5.08583,6.69449 8.96694,14.4803 11.648,23.3587l53.7319 -6.94725c-2.3126,-9.31536 -5.43426,-17.8571 -9.36497,-25.6205 -5.25591,-10.3819 -11.9858,-19.4457 -20.1827,-27.1878 -8.2441,-7.74449 -17.9138,-13.9476 -29.0114,-18.6343 -11.302,-4.77402 -24.2032,-8.02087 -38.7059,-9.77009l-8.82875 -1.06417 0 -8.85709 0 -18.3248 -21.9319 0 0 18.3248 0 9.02009 -9.02363 0.901182c-15.476,1.54606 -29.3681,5.14489 -41.6835,10.813 -12.1524,5.59371 -22.7965,13.2295 -31.9359,22.924 -18.1524,19.3488 -27.2303,43.3453 -27.2303,71.9859 0,14.3823 2.03504,27.5918 6.0815,39.6248 4.03819,12.013 10.0996,22.9843 18.1559,32.9079 8.0693,9.88465 18.5339,18.5551 31.3855,26.0303 13.1693,7.66064 28.8201,14.0516 46.9453,19.1929l7.30512 2.07166 0 7.5378zm-31.2107 -180.982c5.28189,-3.78189 11.2984,-6.81497 18.0851,-9.06733l13.1256 -4.35709 0 13.8095 0 99.0402 0 15.1264 -13.9063 -5.94685c-6.98386,-2.98701 -13.1646,-6.49371 -18.5351,-10.5142 -5.57126,-4.17048 -10.1965,-8.82048 -13.8673,-13.9429l0 -0.0389764c-3.65788,-5.12717 -6.41221,-10.5354 -8.25591,-16.1776 -1.87914,-5.74371 -2.81929,-11.6717 -2.81929,-17.7331 0,-6.50434 1.02638,-12.8504 3.07323,-19.0193 2.02677,-6.10276 5.01733,-11.863 8.96812,-17.2559l0.0779528 -0.0779528c4.06772,-5.41418 8.74016,-10.0417 14.0539,-13.8449zm87.769 306.593c-6.81733,3.82677 -14.439,6.5126 -22.8685,8.04213l-11.7579 2.13307 0 -11.9374 0 -111.543 0 -13.1717 12.6957 3.56221c9.45237,2.65158 17.6847,5.96811 24.6756,9.92835 7.33111,4.15394 13.3075,9.04253 17.9055,14.6457 4.56378,5.56182 8.0067,11.6327 10.3087,18.2351 2.30669,6.613 3.46772,13.6417 3.46772,21.1075 0,8.30197 -1.34528,16.1256 -4.03701,23.4933 -2.6941,7.37481 -6.70512,14.1662 -12.0331,20.3988l-0.0389764 0.0389764c-5.32205,6.17245 -11.4236,11.2004 -18.3177,15.0673z"/>
  <path class="fil4" d="M770.466 747.205c-13.4551,17.4307 -26.6858,35.4225 -39.5847,53.8264 -57.5091,-76.5945 -99.9816,-79.989 -205.263,-73.4386 -671.841,670.586 -14.6067,680.254 6.57166,680.409 12.6036,-0.232677 24.6945,-0.718111 36.5197,-1.33347 9.79489,23.0398 21.8811,43.8366 35.9044,62.5819 -24.7394,1.8248 -48.991,2.62087 -72.0674,2.74961 -71.1166,0.396851 -162.186,-18.2622 -225.513,-48.8693 -30.6591,-14.8169 -59.3008,-33.9296 -83.119,-58.4008 -72.7819,-74.778 -76.6949,-172.854 -44.5866,-267.584 50.7142,-149.625 191.349,-305.326 301.079,-414.85l17.1095 -17.0776 24.1276 -1.50118c115.513,-7.18938 183.471,-0.770079 248.822,83.4875z"/>
  <path class="fil4" d="M1526.36 663.717l24.1276 1.50118 17.1095 17.0776c109.729,109.524 250.364,265.225 301.079,414.85 32.1083,94.7292 28.1953,192.806 -44.5866,267.584 -23.8181,24.4713 -52.4599,43.5839 -83.119,58.4008 -63.3272,30.6071 -154.396,49.2662 -225.513,48.8693 -12.3225,-0.068504 -24.9827,-0.329528 -37.8697,-0.831497 14.9953,-20.1213 26.6906,-41.2985 35.4036,-63.2575 0.961418,0.0200788 1.85669,0.0732284 2.82284,0.090945 21.1784,-0.154725 678.413,-9.82324 6.57166,-680.409 -131.211,-8.16379 -156.056,3.99803 -223.57,98.4343 -14.341,-16.7929 -28.8626,-33.2516 -43.4197,-49.3276 76.2166,-104.83 117.713,-122.519 270.964,-112.982z"/>
  <path class="fil3" d="M587.967 537.95c-5.54882,-28.2118 -12.7347,-70.5579 -5.88308,-70.6878l0.625985 0c1.38189,-0.0507874 70.4623,35.1012 126.406,60.2398 8.13898,3.6567 15.163,6.36615 21.137,8.46024l-29.1284 34.9607c-25.1492,-12.5492 -66.7878,-29.5418 -113.158,-32.9729zm-6.87993 -134.257l-0.00236221 -0.18189c-0.167717,0.00354331 -0.325985,0.0200788 -0.49252,0.0248032 -0.068504,-0.0177165 -0.109843,-0.0259843 -0.133465,-0.0248032l0.0011811 0.0307087c-88.1918,2.48386 -49.7138,172.343 -49.6052,172.831l5.89371 26.4355 26.8571 -1.43504c66.0355,-3.52677 127.551,36.8622 127.729,36.9768l23.7532 15.378 18.1217 -21.7524 89.3316 -107.218c-29.2784,-34.4079 -44.2477,-36.104 -87.4241,-55.5048 -59.1048,-26.5595 -145.801,-62.7343 -154.03,-65.5595z"/>
 </g>
</svg>
